<?xml version="1.0" standalone="no"?>
<!DOCTYPE svg PUBLIC "-//W3C//DTD SVG 1.1//EN" "http://www.w3.org/Graphics/SVG/1.1/DTD/svg11.dtd" >
<svg xmlns="http://www.w3.org/2000/svg">
<metadata></metadata>
<defs>
<font id="calibriregular" horiz-adv-x="1013" >
<font-face units-per-em="2000" ascent="1500" descent="-500" />
<missing-glyph horiz-adv-x="452" />
<glyph horiz-adv-x="0" />
<glyph horiz-adv-x="666" />
<glyph horiz-adv-x="0" />
<glyph horiz-adv-x="0" />
<glyph unicode=" "  horiz-adv-x="452" />
<glyph unicode="&#x09;" horiz-adv-x="452" />
<glyph unicode="&#xa0;" horiz-adv-x="452" />
<glyph unicode="!" horiz-adv-x="651" d="M260 102q0 32 4.5 54t16 34t31.5 17.5t50 5.5t50 -5.5t32 -17.5t16.5 -34t4.5 -54t-4.5 -53.5t-16.5 -34.5t-31.5 -18.5t-50.5 -5.5q-30 0 -50 5.5t-31.5 18.5t-16 34t-4.5 54zM273 1296q-1 12 3 20.5t14.5 14.5t27.5 8.5t44 2.5q26 0 43.5 -3t27.5 -9t14 -14t4 -20 l-16 -932q0 -8 -3.5 -13.5t-12.5 -9.5t-22.5 -6t-34.5 -2t-34.5 2t-22 6t-12 9.5t-3.5 13.5z" />
<glyph unicode="&#x22;" horiz-adv-x="801" d="M136 1333q0 8 5 14t14.5 9.5t25.5 5.5t39 2q47 0 65.5 -7.5t18.5 -23.5l-23 -452q0 -8 -3 -14t-10.5 -9.5t-19 -5.5t-28.5 -2q-18 0 -29.5 2t-19 5.5t-10.5 9.5t-3 14zM482 1333q0 8 5 14t15 9.5t26 5.5t38 2q23 0 39.5 -2t26.5 -5.5t14 -9.5t3 -14l-21 -452q0 -8 -3 -14 t-11 -9.5t-19 -5.5t-29 -2t-29.5 2t-18.5 5.5t-10 9.5t-3 14z" />
<glyph unicode="#" horiz-adv-x="996" d="M35 417q0 17 3 28.5t7 19t10 11t13 3.5h131l40 325h-118q-15 0 -24 14.5t-9 45.5q0 34 9 49t24 15h133l40 313q1 7 4.5 12.5t11.5 9t23 5.5t37 2q23 0 37 -2t21.5 -5.5t9 -9t1.5 -11.5l-41 -314h272l38 313q1 7 5 12.5t11.5 9t22.5 5.5t38 2q22 0 36.5 -2t21.5 -5.5t9 -9 t2 -11.5l-40 -314h113q15 0 24 -15.5t9 -47.5q0 -17 -2.5 -28.5t-7 -18.5t-10.5 -10.5t-13 -3.5h-128l-39 -325h113q15 0 24 -14.5t9 -47.5q0 -17 -3 -28.5t-6.5 -19t-10 -11t-13.5 -3.5h-130l-41 -334q-1 -7 -4 -12t-10.5 -8.5t-21.5 -5t-36 -1.5t-37 1.5t-23 5t-10.5 9 t-1.5 11.5l41 334h-272l-41 -334q-2 -7 -4.5 -12t-9.5 -8.5t-21 -5t-36 -1.5q-23 0 -38 1.5t-23 5t-10.5 9t-1.5 11.5l40 334h-114q-15 0 -24 14.5t-9 47.5zM344 479h270l41 325h-272z" />
<glyph unicode="$" d="M94 156q0 21 2 35.5t6 24t10 12.5t15 3q13 0 36.5 -14t62 -31t94 -31.5t133.5 -14.5q139 0 211 54.5t72 148.5q0 58 -26.5 96.5t-70 66t-98.5 47.5t-112.5 40.5t-112.5 47t-98 65.5t-69.5 95t-26.5 138q0 65 22.5 122t67.5 99.5t113.5 69.5t159.5 33l19 197q1 6 3.5 11.5 t9.5 9t18.5 5t32.5 1.5t35 -2t21.5 -6t9.5 -10t2 -14l-22 -195q29 -3 61 -10.5t60 -16.5t50.5 -20.5t30.5 -19t11.5 -14.5t5.5 -16t3.5 -20.5t1.5 -26.5q0 -19 -1.5 -32.5t-4.5 -21t-7.5 -11.5t-11.5 -4q-11 0 -34.5 12.5t-59 27.5t-82.5 27.5t-105 12.5q-65 0 -111.5 -12.5 t-75 -35.5t-42 -55.5t-13.5 -70.5q0 -59 27 -98t70.5 -66t99 -46.5t113.5 -40.5t114 -46.5t99.5 -64.5t70 -95.5t26.5 -138.5q0 -78 -29.5 -142t-84.5 -109.5t-134 -73t-176 -32.5l-22 -212q-1 -6 -3.5 -11.5t-9 -8.5t-19 -5t-31.5 -2q-22 0 -35.5 2.5t-21.5 5.5t-10.5 9.5 t-0.5 14.5l23 211q-47 6 -87 15t-71.5 20t-53.5 22.5t-32 22t-14 27t-4 45.5z" />
<glyph unicode="%" horiz-adv-x="1429" d="M71 947q0 71 16 132t49 105t85.5 69t123.5 25q77 0 129.5 -26t83.5 -70.5t44 -104.5t13 -126q0 -75 -17 -136.5t-51 -105t-86 -68t-123 -24.5t-122 22.5t-83 65t-47 103.5t-15 139zM195.5 -5.5q1.5 9.5 9.5 21.5l879 1258q5 8 11.5 13.5t17 8.5t23.5 4.5t34 1.5t34 -3.5 t18.5 -10.5t4 -16.5t-8.5 -20.5l-880 -1259q-5 -9 -12 -13t-16.5 -7.5t-23.5 -5t-33 -1.5q-21 0 -34.5 4t-19 10t-4 15.5zM208 953q0 -66 9.5 -110.5t26.5 -70.5t43 -36t59 -10q39 0 64 14.5t40 43.5t21.5 69t6.5 93q0 55 -8 97.5t-24 71t-42.5 42.5t-62.5 14 q-34 0 -59.5 -13.5t-41.5 -41t-24 -68t-8 -95.5zM816 315q0 71 16 132t49 105t85.5 69t123.5 25q77 0 129.5 -26t83.5 -70.5t44 -104.5t13 -126q0 -75 -17 -136.5t-51 -105t-86 -68t-123 -24.5t-122 22.5t-83 65t-47 103.5t-15 139zM953 321q0 -66 9.5 -110.5t26.5 -70.5 t43 -36t59 -10q39 0 64 14.5t40 43.5t21.5 69t6.5 93q0 55 -8 97.5t-24 71t-42.5 42.5t-62.5 14q-34 0 -59.5 -13.5t-41.5 -41t-24 -68t-8 -95.5z" />
<glyph unicode="&#x26;" horiz-adv-x="1364" d="M0 1264zM105 333q0 54 15 102t46 93.5t81.5 88t121.5 85.5q-39 53 -67 96t-46 80t-25.5 70.5t-7.5 68.5q0 61 20.5 116t65.5 97t116.5 67t173.5 25q86 0 149 -18.5t104.5 -52.5t62.5 -82.5t21 -107.5q0 -58 -19 -106t-60 -93t-105 -89t-154 -93q33 -40 72 -83.5 t81.5 -87.5t87 -86.5t87.5 -81.5q20 26 35.5 60t27 71.5t17.5 76.5t6 79v35q0 10 3.5 16.5t11 10.5t22.5 6t40 2q21 0 36.5 -1t25 -4.5t14 -10.5t4.5 -20v-24q0 -55 -9.5 -107.5t-25.5 -103t-40 -96.5t-53 -85q44 -35 76.5 -58.5t55.5 -38t38.5 -20.5t24.5 -6q10 0 19 1 t14 -3t8 -15.5t3 -36.5q0 -24 -1 -38.5t-3.5 -22t-8 -12.5t-21.5 -9t-41 -4q-20 0 -43 7t-54.5 24t-73.5 46q-40 30 -96 75q-41 -33 -86.5 -61.5t-97 -48.5t-107.5 -31.5t-122 -11.5q-62 0 -116.5 11t-101.5 31t-84 50t-63 69t-40.5 86.5t-14.5 103.5zM280 350q0 -51 17 -93 t50.5 -73t83 -48t115.5 -17q40 0 78 8.5t72.5 22.5t66 34t57.5 43q-51 44 -101 91t-97 95t-90.5 95.5t-79.5 92.5q-49 -31 -81.5 -62t-52.5 -62t-29 -62t-9 -65zM394 1029q0 -26 7 -53.5t22 -57t37 -64t53 -76.5q71 40 119.5 74t77.5 65t42.5 62.5t13.5 66.5q0 28 -10.5 54 t-33 46t-56.5 31.5t-82 11.5q-52 0 -87.5 -13t-58.5 -35t-33.5 -51.5t-10.5 -60.5z" />
<glyph unicode="'" horiz-adv-x="441" d="M136 1333q0 8 5 14t15 9.5t26 5.5t39 2t39 -1.5t26.5 -5.5t15 -10t3.5 -14l-22 -452q0 -8 -3.5 -14t-10.5 -9.5t-19 -5.5t-29 -2q-18 0 -30 2t-19 5.5t-10.5 9.5t-3.5 14z" />
<glyph unicode="(" horiz-adv-x="606" d="M130 524q0 110 15 218t43 214t68 208.5t90 202.5q1 4 5 7t12 6t21.5 4.5t35.5 1.5t36 -3t21.5 -8t8.5 -12.5t-3 -16.5q-93 -196 -138 -403t-45 -416q0 -210 46.5 -416t134.5 -404q5 -12 5.5 -20t-6 -13.5t-21 -8t-38.5 -2.5q-18 0 -30.5 1t-22 4t-15 7t-8.5 9 q-53 100 -93 201.5t-67.5 207t-41 213.5t-13.5 218z" />
<glyph unicode=")" horiz-adv-x="606" d="M119.5 -313q0.5 8 5.5 20q90 197 136 403.5t46 416.5q0 209 -46 415.5t-138 403.5q-4 9 -3 16.5t9 12.5t21.5 8t36.5 3q21 0 34 -1.5t21.5 -4.5t12.5 -6t6 -7q101 -200 158 -411.5t57 -431.5q0 -110 -14 -218t-41 -213.5t-67 -207.5t-92 -201q-3 -5 -9 -9t-15 -7t-22 -4 t-30 -1q-25 0 -39.5 2.5t-21 8t-6 13.5z" />
<glyph unicode="*" horiz-adv-x="996" d="M154.5 1145q0.5 17 23.5 55q22 38 36.5 47t26.5 0l207 -150l-27 255q-3 16 12.5 23.5t60.5 7.5t60.5 -8t12.5 -23l-27 -255l208 150q12 9 26 0t37 -48q22 -37 23 -54t-13 -24l-235 -103l235 -105q14 -6 13 -23t-23 -55q-22 -39 -36.5 -48t-26.5 0l-208 151l27 -255 q3 -15 -12.5 -23t-60.5 -8t-60.5 8t-12.5 23l27 255l-207 -151q-12 -9 -26.5 0t-36.5 48q-22 38 -23 55t13 23l235 105l-235 103q-14 7 -13.5 24z" />
<glyph unicode="+" horiz-adv-x="996" d="M68 562q0 18 3 31t8 22t11.5 13t13.5 4h322v355q0 8 4 14.5t12 11t22.5 6.5t33.5 2q21 0 34.5 -2t21.5 -6.5t12 -11t4 -14.5v-355h322q8 0 14 -4t11.5 -13t8 -22t2.5 -31q0 -19 -3 -31.5t-8 -21.5t-12 -13t-14 -4h-321v-355q0 -8 -4 -13.5t-12 -9.5t-21.5 -6.5 t-34.5 -2.5q-20 0 -34 2.5t-22 6.5t-12 9.5t-4 13.5v355h-321q-9 0 -15 4t-11 13t-8 22t-3 31z" />
<glyph unicode="," horiz-adv-x="499" d="M41.5 -267.5q-0.5 5.5 3.5 13.5l130 269v125q0 26 5.5 41.5t17 23.5t29 11t43.5 3q24 0 41.5 -3t29 -11t16.5 -23.5t5 -41.5q0 -30 -3 -55.5t-9.5 -48t-18 -44.5t-27.5 -47l-134 -201q-5 -7 -11.5 -11.5t-15.5 -8.5t-21.5 -5.5t-30.5 -1.5q-17 0 -28 1.5t-16 5t-5.5 9z " />
<glyph unicode="-" horiz-adv-x="612" d="M67 493q0 37 9 52t27 15h408q8 0 14 -3t10.5 -11.5t7 -21t2.5 -31.5q0 -38 -9 -52.5t-25 -14.5h-408q-18 0 -27 15t-9 52z" />
<glyph unicode="." horiz-adv-x="504" d="M147 104q0 69 23 92t84 23q59 0 81 -23t22 -90q0 -69 -22.5 -92t-83.5 -23q-59 0 -81.5 22.5t-22.5 90.5z" />
<glyph unicode="/" horiz-adv-x="772" d="M3 -245.5q-2 9.5 4 21.5l591 1620q4 13 10 20.5t15.5 12t24 6t35.5 1.5q24 0 39.5 -3.5t24.5 -9.5t11 -16t-3 -22l-591 -1620q-4 -13 -10.5 -20.5t-16 -11.5t-23.5 -5.5t-35 -1.5q-24 0 -40.5 3t-25 9.5t-10.5 16z" />
<glyph unicode="0" d="M70 629q0 145 23.5 265.5t76.5 207t139 133.5t211 47q120 0 201.5 -42.5t131 -125t70.5 -203t21 -276.5q0 -146 -23 -266t-76 -206.5t-139 -134t-212 -47.5q-119 0 -200.5 42.5t-131.5 125t-71 203.5t-21 277zM242 641q0 -142 14.5 -241t46.5 -161.5t81.5 -91 t119.5 -28.5q55 0 96.5 17.5t71 50.5t49 79t31.5 101.5t16 120.5t4 135q0 95 -6.5 170t-20 132.5t-34.5 99t-50 68.5t-66.5 39.5t-84.5 12.5q-83 0 -135 -39.5t-81.5 -107.5t-40.5 -160t-11 -197z" />
<glyph unicode="1" d="M170 1001q0 17 1.5 28.5t4.5 19.5t8 13.5t14 11.5l291 187q4 3 10 5t14.5 3.5t20.5 2t29 0.5q23 0 39 -1.5t25 -5t12 -9t3 -11.5v-1110h228q8 0 15 -4.5t11 -13t6.5 -21t2.5 -30.5q0 -19 -3 -31.5t-7.5 -20t-11 -11t-13.5 -3.5h-660q-7 0 -13 3.5t-11 11t-8 20.5t-3 31 t3 30.5t7 21t10.5 13t14.5 4.5h264v961l-245 -146q-19 -10 -30 -11.5t-17.5 4.5t-9 21t-2.5 37z" />
<glyph unicode="2" d="M111 73q0 20 1.5 34.5t6.5 26t12.5 22.5t18.5 24l246 259q85 90 136 161.5t79 130t36.5 106.5t8.5 90t-13.5 79.5t-39.5 66t-65 45t-90 16.5q-60 0 -107 -16.5t-82.5 -36t-59.5 -36.5t-36 -17q-7 0 -12 4t-8.5 13t-5.5 23.5t-2 35.5q0 15 1 25.5t3.5 18t6 14.5t15.5 17 t40.5 28t72 35t96 28.5t109.5 11.5q92 0 161 -26t114.5 -70.5t68 -104.5t22.5 -127q0 -61 -11 -121t-45.5 -129.5t-100 -155t-173.5 -196.5l-201 -209h550q8 0 15.5 -4.5t12.5 -13.5t7.5 -22t2.5 -31t-2.5 -31.5t-6.5 -22.5t-11.5 -13.5t-16.5 -4.5h-698q-14 0 -24 3.5 t-17.5 11t-11 22.5t-3.5 36z" />
<glyph unicode="3" d="M101 156q0 35 6.5 49t19.5 14q9 0 35 -15.5t66.5 -34t94.5 -34t120 -15.5q64 0 113 16.5t82.5 47t50 72t16.5 90.5q0 54 -21 96.5t-61.5 74t-99.5 48t-134 16.5h-120q-8 0 -15.5 3.5t-13 11.5t-8.5 20.5t-3 32.5q0 19 2.5 31t8 19.5t12.5 11t16 3.5h110q64 0 115.5 16.5 t87 48t54.5 74.5t19 97q0 39 -12.5 75t-38 62t-65 41.5t-91.5 15.5q-57 0 -104 -17.5t-84 -37t-61.5 -36.5t-34.5 -17q-7 0 -12 2.5t-8.5 10t-5 20.5t-1.5 35q0 15 1 26t4 19t6.5 15t13 16t38 27t70 35t95.5 28.5t116 11.5q88 0 154.5 -22.5t111 -63.5t66.5 -98t22 -126 q0 -60 -15.5 -111t-46 -91t-74.5 -67.5t-101 -38.5v-2q65 -7 119.5 -32.5t93.5 -65t61 -91.5t22 -112q0 -87 -30.5 -156.5t-87 -119.5t-139.5 -77t-188 -27q-63 0 -118.5 10.5t-98.5 24.5t-71 29.5t-35.5 22t-11.5 13.5t-6.5 16.5t-4 24t-1.5 34.5z" />
<glyph unicode="4" d="M47 364q0 19 1 33.5t4 27t7.5 23.5t11.5 24l455 767q5 8 14.5 14t24 10t36 5.5t50.5 1.5q32 0 56 -2.5t39 -6.5t22.5 -10.5t7.5 -15.5v-806h143q17 0 27 -17.5t10 -52.5q0 -32 -9.5 -50.5t-27.5 -18.5h-143v-266q0 -8 -3.5 -13t-13.5 -9t-25.5 -6t-40.5 -2q-23 0 -38.5 2 t-25 6t-13 9.5t-3.5 12.5v266h-521q-12 0 -20 3t-14 11t-8.5 22.5t-2.5 37.5zM200 429h413v693h-2z" />
<glyph unicode="5" d="M99 131q0 17 1.5 30t5 21t9 12t12.5 4q10 0 30.5 -12t55 -26t86 -27t121.5 -13q65 0 120 15.5t94.5 49t62 83.5t22.5 123q0 61 -19 107t-58.5 76.5t-100.5 46t-145 15.5q-60 0 -102.5 -6t-79.5 -6q-27 0 -39 12.5t-12 49.5v514q0 32 15 48t44 16h559q8 0 15.5 -4.5 t12 -13.5t7 -22.5t2.5 -32.5q0 -35 -9.5 -54.5t-27.5 -19.5h-471v-354q34 5 69.5 6t82.5 1q108 0 189 -26t135.5 -73.5t82 -115t27.5 -149.5q0 -102 -34 -181t-96.5 -133t-149 -82.5t-191.5 -28.5q-59 0 -111.5 8.5t-93.5 20.5t-67.5 24t-34 19t-10.5 12.5t-5 14t-3 21 t-1 30.5z" />
<glyph unicode="6" d="M104 585q0 81 9 164t31.5 160t61 145t96.5 118.5t139 79.5t189 29q36 0 73 -4.5t68.5 -11.5t53 -16t28 -14.5t10 -11.5t5.5 -13.5t3 -16.5t1 -23q0 -18 -0.5 -30.5t-4 -20.5t-8.5 -11.5t-14 -3.5q-11 0 -29.5 6.5t-45 15t-64 15t-87.5 6.5q-91 0 -156.5 -37t-107 -99.5 t-61.5 -145t-23 -172.5q25 15 57 29.5t70 26.5t80 19t89 7q103 0 173.5 -27.5t113.5 -77t62 -116.5t19 -145q0 -83 -25.5 -160.5t-78.5 -136.5t-134 -95t-191 -36q-79 0 -139.5 20t-105.5 56t-75 88.5t-48 120t-26 147.5t-8 172zM274 560q0 -126 16.5 -211t47 -136.5 t76.5 -73.5t107 -22q62 0 108.5 23.5t76.5 63t44.5 89t14.5 101.5q0 57 -11.5 103t-38 78t-70 50t-108.5 18q-36 0 -72 -6.5t-70 -18t-64.5 -26.5t-56.5 -32z" />
<glyph unicode="7" d="M97 1190q0 19 2.5 32.5t7 23t11.5 14t16 4.5h736q14 0 24 -3t15.5 -12t8.5 -23t3 -35q0 -18 -1.5 -31.5t-4 -27t-7 -25.5t-10.5 -26l-455 -1049q-5 -12 -12 -19t-18.5 -11.5t-29 -6t-42.5 -1.5q-33 0 -51.5 3t-27 9.5t-7.5 15.5t7 22l478 1072h-606q-19 0 -28 19.5 t-9 54.5z" />
<glyph unicode="8" d="M80 295q0 60 19.5 109.5t56 91.5t90.5 78.5t121 70.5q-59 30 -103.5 63.5t-76 73t-47.5 84.5t-16 98q0 66 24 124t72.5 101t123 68t174.5 25q96 0 165.5 -23t115 -62.5t67 -93t21.5 -115.5q0 -50 -16.5 -95.5t-47.5 -86.5t-76.5 -77t-103.5 -67q69 -34 123 -70t91 -77.5 t56 -88t19 -102.5q0 -82 -29.5 -146t-84.5 -108t-136 -66.5t-186 -22.5q-98 0 -175 20.5t-130.5 61t-82 99t-28.5 133.5zM250 311q0 -95 65 -147t194 -52q125 0 189 52.5t64 142.5q0 45 -16.5 81.5t-50.5 68t-84 61.5t-117 62q-62 -30 -108 -60.5t-76 -62.5t-45 -67.5 t-15 -78.5zM291 973q0 -38 13 -71t41 -62t70.5 -57t101.5 -58q99 51 151.5 112.5t52.5 135.5q0 41 -14.5 74t-41.5 56.5t-67.5 35.5t-92.5 12q-105 0 -159.5 -47.5t-54.5 -130.5z" />
<glyph unicode="9" d="M80 863q0 84 24.5 160t76 133.5t132 91.5t191.5 34q79 0 140 -20t106 -57.5t76 -90.5t50.5 -120.5t27.5 -146t8 -165.5q0 -82 -9.5 -166t-33 -162t-63 -145.5t-100 -118.5t-143 -80t-191.5 -29q-42 0 -81.5 5.5t-71 13.5t-53 16.5t-31.5 17.5t-14.5 24t-4.5 41 q0 21 1.5 34t4.5 19.5t8.5 9t13.5 2.5q11 0 30 -7.5t49 -16t70 -16t90 -7.5q95 0 162.5 36.5t110.5 98t64.5 143t23.5 170.5q-52 -30 -124 -53.5t-166 -23.5q-105 0 -177 29t-115.5 79t-62.5 118t-19 149zM250 876q0 -58 12 -105.5t39.5 -81t71.5 -51.5t108 -18 q73 0 141.5 22t118.5 58q0 125 -16.5 210.5t-48.5 138.5t-79 76t-109 23q-63 0 -108 -22.5t-74 -61.5t-42.5 -87.5t-13.5 -100.5z" />
<glyph unicode=":" horiz-adv-x="535" d="M183 104q0 32 4 54t16 34.5t31.5 18.5t50.5 6q30 0 49.5 -6t32 -18.5t17 -34.5t4.5 -54t-4.5 -54t-17 -35t-32 -18.5t-49.5 -5.5q-31 0 -50.5 5.5t-31.5 18.5t-16 34.5t-4 54.5zM183 781q0 33 4 55t16 35.5t31.5 19t50.5 5.5q30 0 49.5 -5.5t32 -19t17 -35.5t4.5 -55 q0 -31 -4.5 -52.5t-17 -34.5t-32 -18.5t-49.5 -5.5q-31 0 -50.5 5.5t-31.5 18.5t-16 34.5t-4 52.5z" />
<glyph unicode=";" horiz-adv-x="535" d="M70.5 -266q-0.5 5 3.5 14l128 267v125q0 26 6 41.5t17 23.5t28.5 11t42.5 3q23 0 40.5 -3t29 -11t17 -23.5t5.5 -41.5q0 -30 -3 -55.5t-9.5 -48t-17.5 -44.5t-28 -47l-133 -199q-5 -8 -11 -12.5t-15 -8t-21 -5.5t-30 -2q-17 0 -28 1.5t-16 5.5t-5.5 9zM183 781q0 33 4 55 t16 35.5t31.5 19t50.5 5.5q30 0 49.5 -5.5t32 -19t17 -35.5t4.5 -55q0 -31 -4.5 -52.5t-17 -34.5t-32 -18.5t-49.5 -5.5q-31 0 -50.5 5.5t-31.5 18.5t-16 34.5t-4 52.5z" />
<glyph unicode="&#x3c;" horiz-adv-x="996" d="M67 564q0 16 1.5 29.5t5 22.5t8 15.5t10.5 8.5l766 386q22 11 30.5 -0.5t8.5 -57.5q0 -28 -1 -45t-4.5 -27t-10 -15.5t-18.5 -11.5l-629 -307l625 -303q13 -7 20.5 -12.5t11.5 -15.5t5 -27.5t1 -45.5q0 -24 -1.5 -39t-6.5 -21.5t-12.5 -5.5t-18.5 7l-769 388 q-10 5 -16 23.5t-6 53.5z" />
<glyph unicode="=" horiz-adv-x="996" d="M92 373q0 36 9.5 52.5t26.5 16.5h738q18 0 27.5 -16.5t9.5 -52.5q0 -39 -11 -53.5t-26 -14.5h-738q-15 0 -25.5 14.5t-10.5 53.5zM92 753q0 35 9.5 51.5t26.5 16.5h738q18 0 27.5 -16.5t9.5 -51.5q0 -39 -11 -54t-26 -15h-738q-15 0 -25.5 15t-10.5 54z" />
<glyph unicode="&#x3e;" horiz-adv-x="996" d="M99 156q0 27 1 44t4 27t10 16t18 11l630 309l-626 302q-13 6 -20.5 11.5t-11 16t-4.5 28t-1 45.5q0 25 2 39.5t6 20.5t12 5t19 -7l769 -387q10 -5 16.5 -24t6.5 -52q0 -17 -2 -30t-5 -23t-8 -15.5t-11 -8.5l-766 -386q-11 -5 -19 -5.5t-12 6t-6 21t-2 36.5z" />
<glyph unicode="?" horiz-adv-x="926" d="M130 1202q0 23 3 35.5t12.5 22t37.5 24.5t67.5 27.5t87 21.5t98.5 9q104 0 179 -30t124 -80.5t72.5 -119t23.5 -144.5q0 -86 -24.5 -152.5t-68.5 -113.5t-105.5 -73t-136.5 -31l-7 -236q0 -15 -17 -22t-55 -7q-21 0 -35.5 1.5t-23 5t-12.5 9t-4 13.5l-6 271 q-1 22 3.5 36.5t13 23.5t22.5 12.5t31 3.5h22q63 0 108 20t73 53t40.5 78t12.5 94q0 56 -15.5 102.5t-47 80t-78.5 52t-112 18.5q-57 0 -99.5 -12t-73.5 -27t-51 -26.5t-30 -11.5q-7 0 -12 3t-9 11t-6 22.5t-2 35.5zM321 102q0 32 4.5 54t16.5 34t32 17.5t51 5.5 q29 0 49 -5.5t32 -17.5t16 -34t4 -54t-4 -53.5t-16 -34.5t-32 -18.5t-49 -5.5q-31 0 -51 5.5t-32 18.5t-16.5 34t-4.5 54z" />
<glyph unicode="@" horiz-adv-x="1788" d="M0 1264zM166 372q0 51 5.5 117t20.5 140.5t42.5 152t71 152t105.5 140.5t146.5 115t193 77.5t246.5 28.5q160 0 277 -38.5t193 -109t113 -171.5t37 -225q0 -66 -8 -135.5t-27 -135t-49 -123.5t-74 -102t-102 -69t-133 -25q-40 0 -74.5 9.5t-61 27t-44.5 45.5t-24 64 q-39 -39 -76 -67t-72 -45.5t-68.5 -25.5t-66.5 -8q-42 0 -74 8.5t-57 24.5t-42.5 39.5t-29.5 52.5t-16.5 64.5t-4.5 76.5q0 42 6.5 96t22.5 111.5t43 113t67.5 99t96.5 70t130 26.5q31 0 60 -7t55.5 -23t50.5 -39t50 -56l16 86q4 14 18 21t51 7q18 0 30 -2t18.5 -5.5t9 -8.5 t0.5 -12l-87 -449q-16 -85 8 -125.5t89 -40.5q40 0 72.5 20t56.5 54t41 79.5t27.5 96t15.5 103t5 101.5q0 85 -23 161.5t-78.5 135t-149 93t-234.5 34.5q-115 0 -204.5 -25.5t-158 -69t-117.5 -100t-82.5 -120.5t-54 -131t-31.5 -129t-14.5 -116.5t-3.5 -92.5 q0 -108 25 -198t86.5 -155.5t165 -101.5t261.5 -36q71 0 128.5 8t100 17.5t69 17.5t36.5 8q6 0 10 -3t6.5 -10.5t3.5 -19t1 -27.5q0 -14 -0.5 -22.5t-2.5 -16t-5.5 -13.5t-9 -11t-33.5 -14.5t-75.5 -19.5t-111 -16.5t-139.5 -6.5q-183 0 -309 43t-206 123t-115 192t-35 251z M665 439q0 -72 26 -111t87 -39q23 0 48 8.5t52 25.5t58 45t68 66l47 254q-37 62 -76 95t-89 33q-41 0 -74.5 -20t-58 -51.5t-41.5 -71.5t-27.5 -82t-15 -81.5t-4.5 -70.5z" />
<glyph unicode="A" horiz-adv-x="1157" d="M43 61l424 1173q4 11 10 18t18.5 11t31.5 5.5t48 1.5q31 0 51.5 -1.5t33.5 -5.5t20 -11.5t10 -18.5l424 -1173q8 -20 8 -34q0 -1 1 -2q0 -12 -8 -19t-26 -9t-48 -2t-48 1.5t-27.5 5t-14 9.5t-8.5 14l-108 308h-525l-104 -304q-3 -9 -8 -15t-14 -10.5t-26 -6.5t-45 -2 t-46 2q-17 3 -25 10q-7 7 -8 18q0 14 9 37zM352 466h439l-221 630h-1z" />
<glyph unicode="B" horiz-adv-x="1087" d="M168 68v1127q0 38 20 53.5t42 15.5h288q113 0 185 -21.5t120.5 -62.5t73 -100.5t24.5 -135.5q0 -45 -11 -86t-32 -75.5t-52.5 -62t-72.5 -44.5q52 -10 97 -36t78.5 -66t53 -94t19.5 -118q0 -60 -15 -110t-42.5 -90t-66 -70t-87 -50.5t-103.5 -31t-126 -10.5h-331 q-22 0 -42 15t-20 53zM334 139h244q58 0 101 13.5t75.5 40.5t51 67t18.5 93q0 57 -18 99.5t-52.5 72t-87 44.5t-131.5 15h-201v-445zM334 718h191q65 0 105.5 17t67 46t38.5 67.5t12 79.5q0 46 -12.5 83t-40 63t-71.5 39.5t-116 13.5h-174v-409z" />
<glyph unicode="C" horiz-adv-x="1066" d="M95 615q0 157 40.5 280.5t113.5 208.5t175 130t226 45q55 0 107 -10t95.5 -25.5t78 -36t47.5 -34t17 -20.5t6.5 -16t4 -21.5t1.5 -30.5q0 -20 -2 -33.5t-6 -22.5t-9.5 -13.5t-12.5 -4.5q-14 0 -38.5 19t-63 42t-93.5 42t-133 19q-84 0 -152.5 -34t-117.5 -99t-76 -159.5 t-27 -215.5q0 -120 26 -212.5t74.5 -154.5t118.5 -93.5t159 -31.5q75 0 131.5 18.5t96 41.5t65 41.5t39.5 18.5q7 0 12 -3t8 -11.5t4.5 -23t1.5 -36.5q0 -16 -1 -27.5t-3.5 -20.5t-6.5 -16t-13.5 -16.5t-41 -29.5t-78 -39t-106.5 -32.5t-131 -13.5q-123 0 -222 41 t-169 121.5t-107.5 198t-37.5 270.5z" />
<glyph unicode="D" horiz-adv-x="1230" d="M168 68v1127q0 38 20 53.5t42 15.5h287q164 0 277 -42.5t190 -122t116.5 -193t39.5 -256.5q0 -164 -42 -286.5t-122.5 -203t-198 -120.5t-279.5 -40h-268q-22 0 -42 15t-20 53zM336 141h173q121 0 204 30t138.5 92.5t83.5 157t28 223.5q0 103 -25.5 191t-79.5 152.5 t-137 100.5t-214 36h-171v-983z" />
<glyph unicode="E" horiz-adv-x="976" d="M168 68v1127q0 38 20 53.5t42 15.5h600q8 0 14.5 -4t10 -13t6 -22t2.5 -33q0 -18 -2.5 -31t-6 -21t-10 -12t-14.5 -4h-494v-396h424q8 0 14 -4.5t10.5 -12.5t6.5 -21.5t2 -32.5q0 -18 -2 -30.5t-6.5 -20t-10.5 -11t-14 -3.5h-424v-452h501q8 0 14 -4t11 -12.5t7 -21.5 t2 -33q0 -18 -2 -31t-7 -21.5t-11 -12.5t-14 -4h-607q-22 0 -42 15t-20 53z" />
<glyph unicode="F" horiz-adv-x="918" d="M168 25v1170q0 38 20 53.5t42 15.5h569q7 0 13 -4t11 -13t7 -23t2 -33t-2 -32t-7 -21.5t-11 -12.5t-13 -4h-463v-430h437q7 0 13.5 -3t11.5 -11t7 -21t2 -34q0 -19 -2 -32t-7 -21t-11.5 -12.5t-13.5 -4.5h-437v-527q0 -7 -4 -13t-13.5 -9.5t-25.5 -6t-41 -2.5 q-23 0 -40 2.5t-26.5 6t-13.5 10t-4 12.5z" />
<glyph unicode="G" horiz-adv-x="1261" d="M89 620q0 150 45.5 272.5t128 208.5t198 133t256.5 47q72 0 135.5 -12.5t113 -29.5t83 -37t46 -33t17.5 -29.5t5 -47.5q0 -19 -2 -33t-6 -23.5t-9.5 -13t-12.5 -3.5q-12 0 -39 18.5t-73 41t-110 41t-152 18.5q-104 0 -187.5 -38t-141 -105.5t-88 -160.5t-30.5 -201 q0 -121 33.5 -215t93 -158.5t142 -97.5t181.5 -33q59 0 119 14t111 43v368h-293q-17 0 -25 16.5t-8 51.5q0 19 2 32t6.5 21.5t10.5 12t14 3.5h402q11 0 21.5 -3.5t19 -11.5t13.5 -21.5t5 -31.5v-481q0 -25 -8.5 -44t-37 -33t-73.5 -30.5t-93 -28.5t-96.5 -18t-96.5 -6 q-146 0 -261.5 45.5t-195 129.5t-121.5 201.5t-42 261.5z" />
<glyph unicode="H" horiz-adv-x="1246" d="M168 25v1213q0 8 4 14t13.5 9.5t26.5 6t40 2.5q24 0 40.5 -2.5t26 -6t13.5 -9.5t4 -14v-506h575v506q0 8 4 14t13.5 9.5t25.5 6t41 2.5q23 0 39.5 -2.5t26 -6t13.5 -9.5t4 -14v-1213q0 -8 -4 -13.5t-13.5 -9t-25.5 -6t-40 -2.5q-25 0 -41 2.5t-25.5 6t-13.5 9.5t-4 13 v561h-575v-561q0 -8 -4 -13.5t-13.5 -9t-26 -6t-40.5 -2.5q-23 0 -40 2.5t-26.5 6t-13.5 9.5t-4 13z" />
<glyph unicode="I" horiz-adv-x="503" d="M168 25v1213q0 8 4.5 14t14.5 9.5t26 6t39 2.5q24 0 40.5 -2.5t26 -6t13.5 -9.5t4 -14v-1213q0 -8 -4 -13.5t-13.5 -9t-26 -6t-40.5 -2.5q-23 0 -40 2.5t-26.5 6t-13.5 9.5t-4 13z" />
<glyph unicode="J" horiz-adv-x="637" d="M7 104q0 21 1.5 35.5t5.5 23t9 12t13 3.5t20 -7.5t29.5 -16t39.5 -16t53 -7.5q33 0 56.5 8t39 30.5t23.5 62t8 103.5v904q0 7 3.5 13t13.5 10t26 6t41 2q23 0 39.5 -2t26 -6t14 -10t4.5 -13v-921q0 -75 -14 -137.5t-47 -106.5t-87 -68t-135 -24q-27 0 -54 4.5t-49.5 12 t-39 15.5t-21.5 14t-8.5 12t-6 14t-3.5 20.5t-1 29.5z" />
<glyph unicode="K" horiz-adv-x="1039" d="M168 25v1213q0 8 4 14t13.5 9.5t26.5 6t40 2.5q24 0 40.5 -2.5t26 -6t13.5 -9.5t4 -14v-561l447 561q6 9 14 15t19 9.5t27 5.5t42 2q25 0 40.5 -2.5t25 -6.5t13 -10t3.5 -13q0 -13 -6.5 -25.5t-23.5 -34.5l-419 -501l451 -600q17 -25 20 -34.5t3 -15.5q0 -8 -3.5 -14 t-13 -10t-26 -6.5t-43.5 -2.5q-34 0 -55.5 3t-32 11t-17.5 17l-465 632v-632q0 -7 -4 -13t-13.5 -9.5t-26 -6t-40.5 -2.5q-23 0 -40 2.5t-26.5 6t-13.5 10t-4 12.5z" />
<glyph unicode="L" horiz-adv-x="840" d="M168 68v1170q0 8 4 14t13.5 9.5t26.5 6t40 2.5q24 0 40.5 -2.5t26 -6t13.5 -9.5t4 -14v-1092h453q9 0 15.5 -4.5t10.5 -13t6 -22t2 -33.5t-2 -33t-6 -22t-10.5 -13.5t-15.5 -4.5h-559q-22 0 -42 15t-20 53z" />
<glyph unicode="M" horiz-adv-x="1709" d="M168 25v1163q0 41 21.5 58.5t47.5 17.5h102q31 0 54.5 -6t41 -18.5t29.5 -32t20 -46.5l367 -915h4l381 912q11 29 23.5 50t28 33t34 17.5t42.5 5.5h107q15 0 28 -4.5t22 -14t15 -23.5t6 -34v-1163q0 -8 -4 -13.5t-13.5 -9t-25 -6t-39.5 -2.5q-22 0 -38.5 2.5t-25.5 6 t-13 9.5t-4 13v1101h-2l-450 -1105q-3 -7 -8.5 -12t-15.5 -8.5t-24.5 -5t-33.5 -1.5q-21 0 -35.5 2t-24.5 5.5t-15 8.5t-7 11l-431 1105h-1v-1101q0 -8 -4 -13.5t-13.5 -9t-25.5 -6t-40 -2.5q-23 0 -39 2.5t-25 6t-12.5 9.5t-3.5 13z" />
<glyph unicode="N" horiz-adv-x="1291" d="M168 25v1166q0 39 21.5 56t46.5 17h80q28 0 47.5 -5t34.5 -16.5t29 -31.5t31 -50l307 -555q28 -51 54.5 -99t51 -95t48 -92.5t47.5 -90.5h1q-2 77 -2.5 160.5t-0.5 160.5v685q0 7 4 13t13 10.5t24.5 6.5t39.5 2q21 0 37 -2t24.5 -6.5t12.5 -10.5t4 -13v-1166 q0 -20 -6.5 -33.5t-16.5 -22t-23 -12.5t-25 -4h-54q-25 0 -44 5.5t-36.5 19.5t-34.5 38.5t-37 62.5l-399 719q-31 56 -62.5 117t-59.5 118h-2q2 -70 3 -143.5t1 -145.5v-763q0 -7 -4 -13t-13 -9.5t-24 -6t-39 -2.5q-23 0 -38.5 2.5t-24 6t-12.5 10t-4 12.5z" />
<glyph unicode="O" horiz-adv-x="1324" d="M97 625q0 149 36 271.5t108 207.5t180.5 131.5t253.5 46.5q140 0 243 -42t172 -122.5t103 -199.5t34 -272t-36.5 -276t-108 -209.5t-180 -133t-253.5 -46.5q-143 0 -246.5 42.5t-171.5 124t-101 201.5t-33 276zM274 637q0 -111 19 -205t62.5 -162t117.5 -105.5t185 -37.5 q110 0 185.5 41t121.5 111t65.5 161.5t19.5 194.5q0 107 -19 199.5t-63.5 160t-119 106t-183.5 38.5t-183.5 -41t-121 -109.5t-66.5 -160t-20 -191.5z" />
<glyph unicode="P" horiz-adv-x="1033" d="M168 25v1166q0 39 20.5 56t45.5 17h271q41 0 78.5 -3.5t89 -15t104.5 -42t90 -75.5t57 -104t20 -130q0 -95 -31 -171.5t-89 -130t-142.5 -83t-202.5 -29.5h-143v-455q0 -8 -4.5 -13.5t-13.5 -9t-25.5 -6t-40.5 -2.5t-40.5 2.5t-26 6t-13.5 9.5t-4 13zM336 618h151 q76 0 126.5 19.5t84.5 54.5t52 83t18 105q0 77 -29 129t-71.5 77t-88 32t-88.5 7h-155v-507z" />
<glyph unicode="Q" horiz-adv-x="1345" d="M97 625q0 150 36 272t108 207t180.5 131.5t253.5 46.5q136 0 239 -42t172.5 -122.5t105 -198.5t35.5 -272q0 -79 -9.5 -151t-29.5 -136.5t-50.5 -119t-71.5 -98.5q71 -59 125 -91.5t89 -49.5t54.5 -24t29.5 -16.5t14 -26.5t4 -45q0 -22 -2.5 -37.5t-7.5 -24t-11 -11.5 t-11 -3q-20 0 -63.5 16.5t-100 47t-121 74.5t-125.5 103q-48 -29 -121 -51t-170 -22q-143 0 -246.5 42t-171.5 123.5t-101 202t-33 276.5zM274 637q0 -111 19 -204.5t62.5 -162t117.5 -106t185 -37.5q110 0 185.5 41t121.5 111t65.5 162t19.5 195q0 107 -19 199t-63.5 159.5 t-119 106t-183.5 38.5t-183.5 -40.5t-121 -109.5t-66.5 -160t-20 -192z" />
<glyph unicode="R" horiz-adv-x="1085" d="M168 25v1170q0 38 20 53.5t42 15.5h269q48 0 79.5 -2.5t57.5 -5.5q73 -13 129 -40.5t94 -69.5t57.5 -96t19.5 -119q0 -63 -17.5 -113.5t-49.5 -89.5t-77 -67t-101 -48q31 -14 56.5 -34.5t47.5 -50t41.5 -67.5t39.5 -86l113 -278q14 -35 18 -49.5t4 -22.5t-3 -13.5 t-13 -9.5t-27.5 -6t-46.5 -2q-25 0 -41.5 2t-26 6.5t-15 12t-9.5 19.5l-116 298q-21 51 -43 93.5t-52 73t-71 47.5t-99 17h-112v-538q0 -8 -4.5 -13.5t-13.5 -9t-25.5 -6t-40.5 -2.5t-40.5 2.5t-26 6t-13.5 9.5t-4 13zM336 699h164q66 0 114.5 16t81 45t47.5 68t15 85 q0 74 -33.5 125.5t-111.5 73.5q-24 7 -55 10t-80 3h-142v-426z" />
<glyph unicode="S" horiz-adv-x="918" d="M69 157q0 21 2 35.5t6 23.5t10 12t14 3q14 0 38.5 -16.5t63.5 -36t94.5 -36.5t127.5 -17q55 0 100 14.5t78 41.5t50.5 66t17.5 89q0 54 -24.5 92t-64.5 66.5t-91.5 52.5t-105 49t-104.5 55.5t-91 71.5t-64.5 96t-24.5 132q0 79 28.5 141t80 104t122 64t152.5 22 q42 0 84.5 -7t80.5 -19.5t67 -27.5t38.5 -24.5t12.5 -14.5t4.5 -13.5t2.5 -20t1 -30.5q0 -18 -1.5 -31.5t-4 -22.5t-8 -13.5t-12.5 -4.5q-11 0 -34 13.5t-56 30.5t-78.5 31.5t-101.5 14.5q-53 0 -92 -14.5t-64.5 -38t-38.5 -55.5t-13 -68q0 -53 24.5 -91t65 -67.5t92.5 -54 t105.5 -49t105.5 -54.5t92.5 -70.5t65.5 -96t25 -130.5q0 -89 -33 -158t-91 -117.5t-136.5 -73t-169.5 -24.5q-63 0 -117.5 11t-97 26.5t-71 32t-40 28.5t-17 30t-5.5 48z" />
<glyph unicode="T" horiz-adv-x="974" d="M15 1191q0 19 2.5 33t6 23t10 13t14.5 4h879q8 0 14 -4t10.5 -13t6.5 -23t2 -33t-2 -32t-6.5 -21.5t-10.5 -12.5t-14 -4h-356v-1096q0 -8 -4 -13.5t-13.5 -9t-25.5 -6t-41 -2.5q-23 0 -39.5 2.5t-26.5 6t-14 9.5t-4 13v1096h-355q-8 0 -14.5 4t-10 12.5t-6 22t-2.5 31.5z " />
<glyph unicode="U" horiz-adv-x="1283" d="M166 454v784q0 8 4 14t13.5 9.5t25.5 6t41 2.5q23 0 40 -2.5t26 -6t13 -9.5t4 -14v-763q0 -88 21.5 -153.5t62 -109t97.5 -65.5t129 -22q73 0 130 21.5t96.5 64.5t60.5 106.5t21 148.5v772q0 8 4 14t14 9.5t26 6t40 2.5q23 0 39.5 -2.5t25.5 -6t13.5 -9.5t4.5 -14v-771 q0 -115 -33.5 -205.5t-96 -153t-152.5 -95t-204 -32.5q-104 0 -190.5 30.5t-148 89.5t-94.5 148t-33 205z" />
<glyph unicode="V" horiz-adv-x="1134" d="M33 1240q0 12 9 19t28.5 9t52.5 2q27 0 43.5 -1.5t25 -5.5t13 -10.5t8.5 -16.5l362 -1063h1l353 1061q3 11 6.5 18t13.5 11t27.5 5.5t46.5 1.5q30 0 48 -2q19 -3 25 -10q5 -6 5 -15q-1 -2 -1 -5q-2 -13 -9 -35l-412 -1174q-4 -11 -11 -17.5t-19 -10.5t-31 -5.5t-48 -1.5 q-21 0 -37 0.5t-28 2.5t-20 4.5t-14 6.5t-9.5 9t-6.5 13l-413 1174q-9 22 -9 36z" />
<glyph unicode="W" horiz-adv-x="1779" d="M60 1239q0 13 8 20t26.5 9t50.5 2q30 0 47.5 -1.5t27 -5.5t12.5 -11t5 -18l284 -1058h1l270 1056q3 11 7.5 18.5t14 11.5t27.5 6t48 2q27 0 43 -2t26 -6t14.5 -11.5t6.5 -18.5l291 -1056h1l279 1057q3 10 6 17.5t12 11.5t26 6t46 2t46 -2.5t25 -9.5t8 -18.5t-6 -36.5 l-335 -1166q-4 -14 -12 -22t-21.5 -12.5t-33.5 -6.5t-49 -2q-30 0 -51.5 2t-35 6.5t-20.5 12.5t-10 22l-265 954h-2l-244 -954q-3 -14 -10 -22t-19.5 -12.5t-32.5 -6.5t-51 -2q-32 0 -54 2t-35.5 6.5t-21 12.5t-10.5 22l-334 1167q-6 22 -6 35z" />
<glyph unicode="X" horiz-adv-x="1038" d="M50 26q2 12 14 35l345 581l-329 561q-12 21 -15 34.5t4.5 21t27 9.5t53.5 2q29 0 48 -1.5t29.5 -5t15.5 -10t11 -14.5l271 -472l270 472q5 8 10 14.5t14 10t25.5 5t45.5 1.5q30 0 49 -2.5t27.5 -9.5t6.5 -20t-14 -35l-328 -557l342 -585q15 -25 15 -39q0 -10 -6 -16 q-8 -8 -28.5 -10t-54.5 -2q-31 0 -48.5 1.5t-28 5.5t-15.5 9.5t-9 13.5l-281 503l-285 -503q-5 -9 -10.5 -14.5t-16 -9t-28 -5t-46.5 -1.5q-32 0 -51 2q-18 2 -26 10q-6 6 -5 15q0 2 1 5z" />
<glyph unicode="Y" horiz-adv-x="974" d="M32 1239q-1 3 -1 6q0 9 5 14q8 7 27 9t51 2q29 0 47.5 -2t29 -5.5t16 -10t10.5 -16.5l175 -363q24 -52 48.5 -108.5t49.5 -114.5h2q22 56 46 111t49 109l176 365q3 10 8 17t14.5 10.5t26 5.5t42.5 2q35 0 55 -2.5t27 -9.5q6 -5 6 -14v-6q-3 -12 -13 -34l-358 -713v-466 q0 -8 -4 -13.5t-13.5 -9t-26 -6t-40.5 -2.5t-40 2.5t-26.5 6t-14.5 9.5t-4 13v466l-357 713q-11 22 -13 35z" />
<glyph unicode="Z" horiz-adv-x="936" d="M58 65v37q0 13 1.5 23.5t6 22.5t13.5 27t22 36l583 912h-577q-10 0 -16.5 4t-11 12t-6.5 21.5t-2 30.5q0 20 2 33.5t6.5 22.5t11.5 13t16 4h704q26 0 41 -15.5t15 -46.5v-38q0 -16 -2 -28t-6.5 -24.5t-13 -27.5t-22.5 -34l-580 -908h617q17 0 26 -17t9 -55q0 -19 -2 -32 t-6.5 -21.5t-11 -12.5t-15.5 -4h-746q-25 0 -40.5 15.5t-15.5 49.5z" />
<glyph unicode="[" horiz-adv-x="613" d="M187 -244v1542q0 19 5 32t14 21t19.5 11.5t22.5 3.5h250q6 0 11.5 -3t9 -10.5t5.5 -19t2 -27.5q0 -31 -7 -45t-21 -14h-159v-1441h159q6 0 11.5 -3t9 -10.5t5.5 -18.5t2 -28q0 -32 -7 -45t-21 -13h-250q-12 0 -22.5 3t-19.5 11t-14 21t-5 33z" />
<glyph unicode="\" horiz-adv-x="772" d="M11 1406.5q0 9.5 7.5 14.5t24 6.5t42.5 1.5q25 0 41 -1t25.5 -4.5t14 -8.5t7.5 -13l592 -1620q6 -17 6 -26.5t-8 -14.5t-24 -7t-43 -2q-25 0 -40.5 1.5t-25 4t-14.5 8.5t-8 14l-590 1620q-7 17 -7 26.5z" />
<glyph unicode="]" horiz-adv-x="613" d="M88 -254q0 17 1.5 28t5.5 18.5t9 10.5t12 3h159v1441h-159q-14 0 -21 13.5t-7 45.5q0 17 1.5 28t5.5 18.5t9 10.5t12 3h249q12 0 23 -3.5t20 -11.5t14.5 -21.5t5.5 -31.5v-1542q0 -20 -5.5 -33t-14.5 -21t-20 -11t-23 -3h-249q-14 0 -21 13t-7 45z" />
<glyph unicode="^" horiz-adv-x="996" d="M104 580q0 11 8 29l278 633q3 9 10.5 15.5t20 10t30 5.5t40.5 2q25 0 43 -2t29.5 -5.5t19.5 -10t12 -15.5l284 -633q8 -19 9 -30t-7 -16.5t-25 -7t-45 -1.5q-25 0 -42.5 1.5t-28.5 5t-16 9.5t-9 14l-227 538l-3 -3l-214 -535q-3 -8 -8 -14t-16 -9.5t-27 -5t-41 -1.5 q-28 0 -44.5 1.5t-23.5 7.5t-7 17z" />
<glyph unicode="_" horiz-adv-x="996" d="M-7 -293q0 33 9 49.5t25 16.5h941q16 0 24 -15.5t8 -48.5q0 -34 -8 -49.5t-24 -15.5h-941q-17 0 -25.5 14.5t-8.5 48.5z" />
<glyph unicode="`" horiz-adv-x="582" d="M0 929zM129 1341.5q-1 8.5 6 14.5t24 9.5t44 3.5q23 0 39.5 -2t27 -6t18.5 -10.5t16 -17.5l140 -226q7 -11 9 -18.5t-3.5 -12.5t-17.5 -8t-34 -3q-20 0 -32 1.5t-21.5 5t-16.5 9.5t-14 16l-176 227q-8 9 -9 17.5z" />
<glyph unicode="a" horiz-adv-x="958" d="M90 249q0 74 30 129t87 91t139 54t184 18h121v68q0 51 -10.5 90t-34.5 65t-62 39t-94 13q-60 0 -107 -14t-82.5 -31t-59.5 -31t-36 -14q-8 0 -13.5 3.5t-10 11.5t-6.5 20t-2 27q0 24 3.5 38.5t16.5 27t45 29.5t74 31.5t92 23.5t101 9q95 0 161 -21.5t107 -63t60 -103 t19 -143.5v-593q0 -12 -8 -17.5t-21.5 -8.5t-40.5 -3q-25 0 -40 3t-22 9t-7 17v88q-58 -62 -128.5 -96t-149.5 -34q-69 0 -125.5 18.5t-96 52.5t-61.5 84t-22 113zM255 257q0 -68 43.5 -109t121.5 -41q63 0 117.5 32.5t113.5 98.5v187h-137q-66 0 -115 -11.5t-81.5 -33.5 t-47.5 -52.5t-15 -70.5z" />
<glyph unicode="b" horiz-adv-x="1050" d="M149 24v1305q0 8 3.5 14t13 9.5t25 5.5t38.5 2q24 0 40 -2t25 -5.5t13 -9.5t4 -14v-526q39 40 75.5 67t71.5 44.5t70 25t75 7.5q96 0 163.5 -38t110 -102t62 -149.5t19.5 -181.5q0 -114 -25 -205.5t-73 -156t-118.5 -99t-161.5 -34.5q-42 0 -77.5 8.5t-70 27t-68.5 47 t-72 68.5v-108q0 -8 -4 -13.5t-12.5 -9t-22 -5.5t-33.5 -2t-33.5 2t-22.5 5.5t-12 9.5t-3 13zM311 286q66 -81 126.5 -123.5t125.5 -42.5q61 0 104 29.5t70 77.5t39 108t12 122q0 67 -10 130.5t-35.5 112.5t-67.5 79t-105 30q-31 0 -61 -9t-61.5 -29.5t-65 -52.5t-71.5 -81 v-351z" />
<glyph unicode="c" horiz-adv-x="845" d="M88 453q0 130 31.5 223.5t87 153t130 88t161.5 28.5q42 0 81.5 -7.5t73 -20.5t59 -29.5t37.5 -28t16.5 -18.5t7 -16.5t3.5 -21t1 -29.5q0 -38 -8.5 -53t-21.5 -15q-15 0 -34 16t-48 35.5t-70.5 36t-98.5 16.5q-116 0 -178 -89.5t-62 -259.5q0 -85 16 -149t47.5 -107 t76.5 -64t104 -21q56 0 98 17.5t72.5 38.5t51.5 38t33 17q7 0 11.5 -3.5t8 -13t5 -23.5t1.5 -34q0 -17 -1 -29t-3.5 -20t-5.5 -14.5t-15.5 -19t-41.5 -30.5t-66 -32t-80 -23t-89 -9q-95 0 -168 31.5t-122 91.5t-75 147.5t-26 201.5z" />
<glyph unicode="d" horiz-adv-x="1050" d="M94 453q0 113 24.5 204.5t72 156t118.5 99t164 34.5q77 0 141 -33.5t126 -99.5v511q0 7 3.5 13.5t13.5 10t25 5.5t38 2q24 0 40 -2t25 -5.5t13 -10t4 -13.5v-1301q0 -8 -3 -13.5t-11.5 -9t-22 -5.5t-33.5 -2q-21 0 -34.5 2t-22 5.5t-12.5 9.5t-4 13v117 q-69 -75 -144 -117.5t-164 -42.5q-97 0 -165 38t-110.5 102t-62 150t-19.5 182zM261 471q0 -66 10 -130t35.5 -113t67.5 -79t105 -30q32 0 62 9t61.5 29.5t65.5 53t72 80.5v352q-65 81 -126 123.5t-128 42.5q-62 0 -104.5 -29.5t-69.5 -77.5t-39 -108.5t-12 -122.5z" />
<glyph unicode="e" horiz-adv-x="995" d="M91 460q0 113 29 203.5t84.5 153.5t133.5 96.5t175 33.5q104 0 176.5 -33t119 -89t68.5 -132t22 -162v-29q0 -38 -19 -54t-43 -16h-576q0 -73 14.5 -132t48.5 -101t89 -64.5t134 -22.5q62 0 111 10.5t84.5 23t58.5 23t35 10.5q7 0 12.5 -3.5t8 -10.5t4 -19t1.5 -30 q0 -13 -1 -22t-2.5 -16.5t-4.5 -13t-8.5 -11t-32 -18t-68.5 -24t-97 -21t-118 -9.5q-108 0 -189.5 30.5t-137.5 90t-84 149.5t-28 209zM261 550h476v12q0 118 -56 187q-59 72 -175 72q-60 0 -105 -22.5t-75 -59.5t-46.5 -86t-18.5 -103z" />
<glyph unicode="f" horiz-adv-x="610" d="M36 861q0 19 2 31.5t6 21t10 12t13 3.5h124v91q0 92 17.5 157.5t52.5 107.5t88 62t126 20q34 0 66 -6.5t49.5 -13.5t23.5 -13t10 -15t5.5 -22t1.5 -32t-2 -30t-4.5 -18t-6.5 -9.5t-10 -2.5q-7 0 -17 4.5t-24.5 10t-34.5 9.5t-47 4q-36 0 -61.5 -11.5t-41 -36.5t-22 -64.5 t-6.5 -96.5v-95h196q8 0 13 -3.5t9.5 -12t7 -21t2.5 -31.5q0 -35 -9 -50.5t-23 -15.5h-196v-771q0 -8 -4 -13t-13.5 -9t-25 -6t-39.5 -2q-23 0 -38.5 2t-25 6t-13.5 9.5t-4 12.5v771h-124q-16 0 -23.5 15.5t-7.5 50.5z" />
<glyph unicode="g" horiz-adv-x="941" d="M52 -120q0 32 7.5 62.5t24 57.5t40 52t55.5 50q-48 24 -71 61t-23 80q0 60 24.5 106.5t60.5 84.5q-30 36 -48 81.5t-18 109.5q0 75 25.5 134.5t70.5 100.5t108 63t137 22q40 0 75 -4t65 -12h266q17 0 25 -16.5t8 -49.5q0 -34 -9.5 -49t-23.5 -15h-126q34 -35 47.5 -77.5 t13.5 -88.5q0 -76 -24.5 -135t-70 -99.5t-108 -62t-138.5 -21.5q-54 0 -102 14.5t-74 35.5q-18 -18 -29 -40t-11 -52q0 -34 31.5 -56.5t84.5 -24.5l229 -9q65 -2 120 -18.5t95 -46t62.5 -73t22.5 -101.5q0 -61 -25.5 -115.5t-77.5 -96t-133 -65t-192 -23.5q-106 0 -181 18 t-122.5 49t-69 74.5t-21.5 94.5zM210 -104q0 -63 64.5 -96t179.5 -33q73 0 122.5 14t80 37.5t43.5 54t13 63.5q0 57 -46.5 87.5t-125.5 32.5l-228 7q-31 -24 -51 -46t-31.5 -42t-16 -39.5t-4.5 -39.5zM258 626q0 -87 49 -137t138 -50q48 0 83 15.5t58 42t34.5 62t11.5 73.5 q0 90 -49.5 140t-140.5 50q-47 0 -81.5 -15.5t-57.5 -43t-34 -63t-11 -74.5z" />
<glyph unicode="h" horiz-adv-x="1050" d="M149 24v1305q0 8 3.5 14t13 9.5t25 5.5t38.5 2q24 0 40 -2t25 -5.5t13 -9.5t4 -14v-526q69 73 139.5 108.5t141.5 35.5q88 0 148 -29.5t97 -79.5t53 -117t16 -161v-536q0 -8 -4 -13t-12.5 -9t-24 -6t-39.5 -2t-39.5 2t-24.5 6t-13 9.5t-4 12.5v515q0 75 -11.5 121t-34 79 t-58.5 51t-82 18q-61 0 -121.5 -43t-126.5 -126v-615q0 -8 -4 -13t-13 -9t-24.5 -6t-40.5 -2q-23 0 -38.5 2t-25 6t-13 9.5t-3.5 12.5z" />
<glyph unicode="i" horiz-adv-x="458" d="M130 1198q0 57 21.5 77.5t78.5 20.5t78 -20t21 -76q0 -57 -21.5 -77t-78.5 -20t-78 20t-21 75zM149 24v879q0 7 3.5 13t13 10t25 6t38.5 2q24 0 40 -2t25 -6t13 -10t4 -13v-879q0 -8 -4 -13t-13 -9t-24.5 -6t-40.5 -2q-23 0 -38.5 2t-25 6t-13 9.5t-3.5 12.5z" />
<glyph unicode="j" horiz-adv-x="478" d="M-42 -279q0 18 1.5 30.5t5 20t8 11t10.5 3.5t23 -2.5t40 -2.5q32 0 55 10t37.5 32t21.5 57t7 106v917q0 7 4 13t13 10t25 6t39 2t39 -2t25 -6t13 -10t4 -13v-918q0 -98 -14.5 -157.5t-46 -100.5t-80 -62t-118.5 -21q-31 0 -53 3.5t-33.5 8.5t-16 11.5t-6.5 14.5t-2.5 17 t-0.5 22zM149 1198q0 57 21 77.5t79 20.5t78.5 -20t20.5 -76q0 -57 -21.5 -77t-79.5 -20q-57 0 -77.5 20t-20.5 75z" />
<glyph unicode="k" horiz-adv-x="909" d="M149 24v1305q0 8 3.5 14t13 9.5t25 5.5t38.5 2q24 0 40 -2t25 -5.5t13 -9.5t4 -14v-795l332 365q8 10 16.5 16.5t20.5 11t29 6t40 1.5q24 0 41 -1.5t27 -5t14.5 -9t4.5 -14.5q0 -12 -6.5 -23.5t-20.5 -26.5l-319 -319l358 -464q13 -17 18 -27t5 -19q0 -8 -4 -13.5 t-13 -9.5t-25.5 -6t-42.5 -2t-43 1.5t-29 5t-19 10t-13 14.5l-371 487v-488q0 -8 -4 -13t-13 -9t-24.5 -6t-40.5 -2q-23 0 -38.5 2t-25 6t-13 9.5t-3.5 12.5z" />
<glyph unicode="l" horiz-adv-x="458" d="M149 24v1305q0 8 3.5 14t13 9.5t25 5.5t38.5 2q24 0 40 -2t25 -5.5t13 -9.5t4 -14v-1305q0 -8 -4 -13t-13 -9t-24.5 -6t-40.5 -2q-23 0 -38.5 2t-25 6t-13 9.5t-3.5 12.5z" />
<glyph unicode="m" horiz-adv-x="1597" d="M149 24v879q0 8 3 13.5t12 10t22.5 6t36.5 1.5q21 0 35 -1.5t22 -6t11.5 -10t3.5 -13.5v-116q74 83 144 121.5t141 38.5q55 0 98.5 -12.5t76.5 -35.5t56.5 -55t39.5 -71q44 48 83.5 81.5t76 54t71 29.5t69.5 9q85 0 143 -29.5t93.5 -79.5t50.5 -117t15 -141v-556 q0 -8 -4 -13t-12.5 -9t-24.5 -6t-39 -2q-24 0 -40 2t-25 6t-13 9.5t-4 12.5v535q0 56 -10 101.5t-31 78.5t-54.5 51t-78.5 18q-56 0 -112 -43t-123 -126v-615q0 -8 -4 -13t-13.5 -9t-25 -6t-38.5 -2q-22 0 -38.5 2t-25.5 6t-12.5 9.5t-3.5 12.5v535q0 56 -11 101.5 t-32.5 78.5t-54 51t-77.5 18q-56 0 -112.5 -43t-122.5 -126v-615q0 -8 -4 -13t-13 -9t-24.5 -6t-40.5 -2q-23 0 -38.5 2t-25 6t-13 9.5t-3.5 12.5z" />
<glyph unicode="n" horiz-adv-x="1050" d="M149 24v879q0 8 3 13.5t12 10t22.5 6t36.5 1.5q21 0 35 -1.5t22 -6t11.5 -10t3.5 -13.5v-116q74 83 148 121.5t149 38.5q88 0 148 -29.5t97 -79.5t53 -117t16 -160v-537q0 -8 -4 -13t-12.5 -9t-24 -6t-39.5 -2t-39.5 2t-24.5 6t-13 9.5t-4 12.5v515q0 75 -11.5 121 t-34 79t-58.5 51t-82 18q-61 0 -121.5 -43t-126.5 -126v-615q0 -8 -4 -13t-13 -9t-24.5 -6t-40.5 -2q-23 0 -38.5 2t-25 6t-13 9.5t-3.5 12.5z" />
<glyph unicode="o" horiz-adv-x="1054" d="M88 456q0 107 28 197.5t84 156t140 101.5t196 36q108 0 189 -32t134.5 -93.5t80.5 -149.5t27 -198q0 -107 -28.5 -197.5t-84.5 -156t-140.5 -102.5t-195.5 -37q-108 0 -189 32.5t-134.5 94t-80 149.5t-26.5 199zM257 467q0 -72 13 -135.5t44 -111t82.5 -75.5t128.5 -28 q70 0 122 25.5t85.5 71.5t49 109.5t15.5 139.5q0 71 -13 134.5t-43.5 111.5t-82.5 75.5t-129 27.5q-71 0 -122.5 -25t-84.5 -71.5t-49 -110t-16 -138.5z" />
<glyph unicode="p" horiz-adv-x="1050" d="M149 -324v1227q0 9 3 14.5t12 9.5t22.5 5.5t33.5 1.5q21 0 34 -1.5t21.5 -5.5t12 -9.5t3.5 -14.5v-118q40 41 77 71.5t74.5 50.5t77.5 30t84 10q96 0 163 -37t109.5 -101.5t62 -149.5t19.5 -181q0 -115 -25 -207t-73 -156t-119.5 -99t-163.5 -35q-39 0 -72 8t-65 24.5 t-63 42t-66 59.5v-439q0 -8 -4 -14t-13 -10t-24.5 -5.5t-40.5 -1.5q-23 0 -38.5 1.5t-25 5.5t-13 10t-3.5 14zM311 287q66 -81 125.5 -124t125.5 -43q61 0 104 29.5t70 78t39.5 109t12.5 122.5q0 67 -10 130t-35 112t-67 78.5t-105 29.5q-31 0 -61.5 -9.5t-61.5 -29.5 t-65 -52.5t-72 -80.5v-350z" />
<glyph unicode="q" horiz-adv-x="1050" d="M94 453q0 113 24.5 204.5t72.5 156t119 99t164 34.5q39 0 73 -8t67.5 -26t68.5 -47t76 -69v106q0 9 4 14.5t12.5 9.5t22.5 5.5t34 1.5t33.5 -1.5t22 -5.5t11.5 -9.5t3 -14.5v-1227q0 -8 -4 -14t-13 -10t-24.5 -5.5t-39.5 -1.5t-39 1.5t-25 5.5t-13.5 10t-3.5 14v450 q-40 -40 -76 -68t-71 -45t-71 -24.5t-74 -7.5q-96 0 -163 38t-109.5 102t-62 150t-19.5 182zM261 471q0 -67 10 -131t35.5 -112.5t67.5 -78.5t105 -30q32 0 62 9t61.5 29.5t65.5 53t72 80.5v352q-65 81 -126 123.5t-128 42.5q-62 0 -104.5 -29.5t-69.5 -77.5t-39 -108.5 t-12 -122.5z" />
<glyph unicode="r" horiz-adv-x="697" d="M149 24v879q0 8 3 13.5t12 10t22.5 6t36.5 1.5q21 0 35 -1.5t22 -6t11.5 -10t3.5 -13.5v-128q36 53 68 86.5t60 52.5t56 26t56 7q13 0 29 -1.5t33.5 -5t32 -8.5t20 -10t7.5 -9.5t3.5 -11t2 -20t0.5 -35.5q0 -21 -1 -36t-4 -23.5t-7.5 -12.5t-11.5 -4q-8 0 -19.5 4 t-25.5 8.5t-31.5 8.5t-38.5 4q-24 0 -47.5 -10t-49.5 -32.5t-54 -59.5t-62 -90v-579q0 -8 -4 -13t-13 -9t-24.5 -6t-40.5 -2q-23 0 -38.5 2t-25 6t-13 9.5t-3.5 12.5z" />
<glyph unicode="s" horiz-adv-x="782" d="M79 128q0 19 2 31.5t5 20.5t8.5 11t11.5 3q11 0 32 -13t52 -28.5t73 -29t96 -13.5q41 0 74.5 9t58 26t37.5 43.5t13 62.5q0 37 -19 62.5t-50.5 45t-70.5 34.5t-80.5 31.5t-81 37.5t-70.5 51.5t-50 72.5t-19 101q0 52 20 99t60 82.5t100 57t140 21.5q35 0 70 -5.5 t63.5 -14.5t48.5 -19.5t30.5 -18t13.5 -13.5t4.5 -13.5t3 -18t1.5 -26.5q0 -17 -1.5 -29t-5 -19.5t-8 -11t-10.5 -3.5q-9 0 -25.5 10.5t-43 23t-62 23t-81.5 10.5q-41 0 -72.5 -9t-51.5 -26t-30 -40.5t-10 -51.5q0 -38 19.5 -64t50.5 -45.5t71.5 -35t82 -32t82 -37t71.5 -50 t50 -70t19 -97.5q0 -67 -25 -120t-70.5 -89t-109 -55t-140.5 -19q-47 0 -89 7.5t-76 19t-57.5 23.5t-34 21.5t-15.5 27.5t-5 48z" />
<glyph unicode="t" horiz-adv-x="669" d="M32 861q0 19 2.5 31.5t6.5 21t10.5 12t13.5 3.5h123v209q0 7 3 12.5t12.5 10t25 6.5t39.5 2t39.5 -2t24.5 -6.5t13 -10t4 -12.5v-209h225q8 0 14 -3.5t10.5 -12t6 -21t1.5 -31.5q0 -35 -8.5 -50.5t-23.5 -15.5h-225v-490q0 -91 26.5 -137.5t96.5 -46.5q22 0 39.5 4.5 t31.5 9.5t23.5 9t17.5 4q5 0 9.5 -2t7 -9t4 -18.5t1.5 -29.5q0 -28 -3.5 -45t-11.5 -24.5t-23.5 -14.5t-35.5 -11.5t-42.5 -7.5t-45.5 -3q-68 0 -117 18.5t-80 55t-45 92.5t-14 132v514h-124q-15 0 -23.5 15.5t-8.5 50.5z" />
<glyph unicode="u" horiz-adv-x="1050" d="M145 370v533q0 8 3 13.5t13 10t25.5 6t39.5 1.5q23 0 38.5 -1.5t25 -6t13.5 -10t4 -13.5v-511q0 -77 11 -123.5t34 -79.5t58 -51t82 -18q61 0 121 43t127 126v614q0 8 3.5 13.5t13.5 10t25 6t39 1.5q23 0 39 -1.5t25 -6t13 -10t4 -13.5v-879q0 -8 -3 -13t-12 -9t-23 -6 t-35 -2q-22 0 -36.5 2t-22.5 6t-11 9.5t-3 12.5v117q-75 -83 -148.5 -121.5t-148.5 -38.5q-88 0 -148 29.5t-97 80t-53 117t-16 162.5z" />
<glyph unicode="v" horiz-adv-x="903" d="M33 905q0 8 4 14t13.5 9.5t24.5 4.5t37 1q28 0 45.5 -1.5t26.5 -5.5t13.5 -10t8.5 -15l248 -724l4 -12l3 12l245 724q2 9 7 15t14 10t25.5 5.5t42.5 1.5q22 0 37 -1t23 -5t11.5 -9.5t3.5 -13.5q0 -4 -0.5 -8t-1.5 -9t-2.5 -11t-3.5 -13l-300 -835q-4 -11 -10 -17.5 t-18.5 -10.5t-32.5 -5.5t-49 -1.5t-48.5 2t-32 6t-19 11t-10.5 16l-299 835q-4 12 -6.5 21t-3 13t-0.5 7z" />
<glyph unicode="w" horiz-adv-x="1429" d="M52 905q0 9 4 14.5t13 9t24.5 4.5t38.5 1q27 0 43.5 -1.5t25.5 -5t13 -10t7 -15.5l212 -724l2 -9l2 9l194 724q2 9 6.5 15.5t13 10t23.5 5t40 1.5q23 0 38.5 -1.5t24 -5t12.5 -9.5t6 -14l210 -726l2 -9l1 9l209 724q2 9 6.5 15.5t13.5 10t25 5t42 1.5q23 0 37 -1t22.5 -5 t12 -9t3.5 -14q0 -7 -2 -16.5t-7 -24.5l-259 -835q-3 -11 -9 -17.5t-17.5 -10.5t-31 -5.5t-48.5 -1.5q-30 0 -50.5 2t-33 6t-18.5 11t-8 16l-185 638l-2 9l-2 -9l-171 -638q-3 -11 -9 -17.5t-19 -10.5t-33 -5.5t-49 -1.5q-30 0 -49.5 2t-31.5 6t-18 11t-9 16l-256 835 q-5 15 -7 24.5t-2 16.5z" />
<glyph unicode="x" horiz-adv-x="866" d="M50 43l273 429l-259 413q-8 14 -8 23t9 15.5t28 8.5t51 2q28 0 45 -1.5t27 -4.5t14.5 -8t8.5 -12l200 -327l204 327q4 6 8.5 11t13 8.5t23.5 5t41 1.5q28 0 46.5 -2t27.5 -7.5t8 -15.5t-10 -24l-257 -408l271 -434q8 -14 8 -23t-9 -15t-28 -8.5t-50 -2.5q-29 0 -46 1.5 t-27.5 5t-15.5 9t-9 11.5l-211 349l-210 -349q-4 -7 -9.5 -12t-15.5 -8.5t-27 -5t-44 -1.5q-28 0 -46 2q-19 3 -27 9t-8 14q0 9 10 24z" />
<glyph unicode="y" horiz-adv-x="905" d="M33 903.5q0 11.5 8 18.5t25.5 9.5t46.5 2.5t46 -1.5t26.5 -5.5t14 -11.5t9.5 -19.5l251 -706h3l242 709q6 19 14.5 24.5t25 8t47.5 2.5q27 0 44.5 -2.5t26 -9.5t8.5 -18.5t-6 -29.5l-315 -874l-117 -323q-6 -16 -30 -24t-73 -8q-25 0 -41 2t-24 8t-9 16t5 23l121 306 q-9 4 -17 12.5t-11 18.5l-313 840q-8 21 -8 32.5z" />
<glyph unicode="z" horiz-adv-x="790" d="M87 60v33q0 14 2 24.5t6 21t10.5 23t16.5 27.5l388 604h-376q-16 0 -25 16t-9 52q0 18 2 31t6 21.5t10.5 12t15.5 3.5h504q11 0 19 -3t14 -10t9.5 -17.5t3.5 -27.5v-31q0 -14 -2 -25.5t-6 -23t-11 -24t-17 -28.5l-385 -603h412q8 0 14 -3.5t10.5 -11.5t7.5 -21t3 -32 t-3 -32t-7 -21t-10.5 -11.5t-14.5 -3.5h-541q-21 0 -34 13.5t-13 46.5z" />
<glyph unicode="{" horiz-adv-x="628" d="M84 552q0 16 1.5 26.5t5 18t9 10t14.5 4.5q72 8 108 70t36 183v157q0 103 9 165.5t34 104.5t66.5 63t106.5 21q19 0 31 -0.5t29 -4.5q7 0 13.5 -3.5t10.5 -10t6 -18t2 -26.5q0 -17 -2 -28.5t-6 -19t-10.5 -10.5t-14.5 -3l-40 -1q-23 0 -39.5 -8.5t-27 -32t-16 -65.5 t-5.5 -129v-143q0 -71 -7.5 -121.5t-27.5 -90.5t-53.5 -69t-84.5 -39q51 -10 84.5 -39t53.5 -69.5t27.5 -90t7.5 -122.5v-185q0 -86 5 -128t15.5 -66t26.5 -32.5t38 -8.5l41 -1q9 0 16 -3t11 -10.5t6 -18.5t2 -29q0 -16 -2 -27t-6 -17.5t-10 -10.5t-12 -4q-18 -4 -31 -4h-31 q-65 0 -107.5 21t-67 62.5t-33 104t-8.5 165.5v201q0 66 -8.5 107.5t-25.5 72t-44 49.5t-65 23q-9 2 -14.5 5.5t-9 10.5t-5.5 18t-2 26z" />
<glyph unicode="|" horiz-adv-x="920" d="M385 -325v1695q0 7 3.5 13t12 9.5t23 5.5t36.5 2t37 -2t23.5 -5.5t12 -9.5t3.5 -13v-1695q0 -8 -3.5 -14t-12 -10t-23.5 -5.5t-37 -1.5q-21 0 -36 1.5t-23.5 5.5t-12 10t-3.5 14z" />
<glyph unicode="}" horiz-adv-x="628" d="M114 -251q0 17 3 28t7.5 19t10.5 11t12 3l42 1q23 0 40 8.5t28 32t15.5 65.5t4.5 129v142q0 72 8.5 129t28 106t53 84t83.5 46q-50 10 -83.5 31t-53 54t-28 76t-8.5 115v186q0 87 -4.5 128.5t-15 65t-26.5 32.5t-39 9l-39 1q-11 0 -18 3t-12 10t-7 18.5t-2 29.5 q0 16 2.5 27t7 17.5t11 10t14.5 3.5q17 4 29.5 4.5t31.5 0.5q64 0 106 -21t66.5 -62.5t34 -104t9.5 -166.5v-201q0 -66 8 -99.5t25.5 -56t44 -35t64.5 -17.5q8 0 14 -4t10 -11t5.5 -17t1.5 -26t-1.5 -26.5t-5 -17.5t-9.5 -10.5t-14 -4.5q-41 -4 -68 -29t-44.5 -64t-24 -87 t-6.5 -119v-157q0 -103 -10 -165t-34.5 -104t-66.5 -63t-105 -21q-19 0 -31.5 1t-32.5 3q-7 0 -12.5 4t-9.5 10.5t-7 17.5t-3 27z" />
<glyph unicode="~" horiz-adv-x="996" d="M60 806v26q0 67 18.5 118.5t51.5 86t79.5 52t101.5 17.5q46 0 80.5 -10t61 -26.5t47 -37.5t38 -43.5t33.5 -42t33.5 -35t38 -24t47.5 -8.5q32 0 55.5 12.5t38 35.5t21.5 54.5t7 68.5q0 16 16 21t47 5q19 0 31.5 -1.5t20.5 -5.5t10.5 -9.5t1.5 -14.5v-32 q-2 -66 -23.5 -116t-56 -84t-79.5 -51t-92 -17t-81 10.5t-60 27.5t-46.5 38.5t-38.5 44t-34.5 42t-34 34.5t-38 24t-46.5 9q-33 0 -56.5 -14.5t-38 -38t-20.5 -53.5t-6 -64q0 -18 -17 -23.5t-48 -5.5q-20 0 -32 2t-19.5 5.5t-9.5 9.5t-2 13z" />
<glyph unicode="&#xa2;" horiz-adv-x="996" d="M181 618q0 113 24 198.5t68 145t104.5 94.5t133.5 47v143q0 7 3.5 13t11.5 9.5t21.5 5.5t33.5 2q21 0 35 -2t22 -5.5t11 -9.5t3 -13v-141q27 -3 55 -11t54 -19.5t49 -26.5t34.5 -26.5t16 -18.5t7.5 -15.5t4 -20.5t1 -29q0 -14 -1.5 -26t-5.5 -21.5t-10.5 -15.5t-15.5 -6 q-16 0 -34 16.5t-47 35.5t-70.5 36t-101.5 17q-50 0 -93 -18.5t-75.5 -60t-51.5 -107.5t-19 -162q0 -92 19 -157t53 -106t80.5 -59.5t101.5 -18.5t95 17t69 38t48.5 38.5t31.5 17.5q8 0 12 -5t7.5 -15.5t4.5 -24.5t1 -32q0 -31 -4.5 -47t-15 -28t-30.5 -26t-46 -27 t-56.5 -23.5t-66.5 -15.5v-143q0 -7 -3 -13t-11 -10t-21.5 -5.5t-34.5 -1.5t-34.5 1.5t-21.5 5.5t-11 10t-3 13v140q-164 21 -247.5 139.5t-83.5 329.5z" />
<glyph unicode="&#xa3;" d="M81 67q0 18 2.5 31t7.5 21.5t11.5 12.5t13.5 4h121v443h-121q-7 0 -12.5 3.5t-11 11.5t-8.5 20t-3 32q0 17 2.5 29.5t7.5 20.5t11.5 11.5t13.5 3.5h121v117q0 120 27 206t77.5 140.5t121.5 79.5t159 25q41 0 80.5 -7t73.5 -20t60.5 -29.5t40 -29t18.5 -20.5t7.5 -17.5 t3.5 -21.5t1 -30q0 -17 -1.5 -29.5t-5.5 -20.5t-9.5 -12.5t-12.5 -4.5q-14 0 -33 16.5t-48 36t-70.5 36.5t-99.5 17q-59 0 -101 -20t-69.5 -59.5t-41 -97t-13.5 -132.5v-123h320q8 0 14 -3.5t10.5 -11.5t7 -21t2.5 -29q0 -20 -3 -32t-8 -20t-10.5 -11.5t-12.5 -3.5h-320 v-443h492q7 0 13 -4t11 -12.5t7.5 -21.5t2.5 -31q0 -19 -3 -31.5t-8 -20t-11 -11.5t-12 -4h-778q-7 0 -12.5 4t-11 11.5t-8.5 20.5t-3 31z" />
<glyph unicode="&#xa5;" d="M53.5 1238q-2.5 13 5 20t27 9.5t53.5 2.5q26 0 43 -1.5t28 -5t16.5 -9.5t10.5 -15l147 -261q34 -62 65.5 -125.5t64.5 -126.5q32 63 63 126.5t66 125.5l145 261q4 9 9 15t14 9.5t26 5t46 1.5q30 0 48 -2.5t25 -9.5t3.5 -20t-15.5 -34l-353 -604v-53h269q14 0 22 -14 t8 -45q0 -34 -9 -47t-21 -13h-269v-155h269q14 0 22 -14t8 -44q0 -33 -9 -46.5t-21 -13.5h-269v-132q0 -8 -4 -13t-14 -8.5t-26.5 -5.5t-39.5 -2q-24 0 -40.5 2t-26 5.5t-13.5 9t-4 12.5v132h-270q-12 0 -20.5 13.5t-8.5 46.5q0 30 9 44t20 14h270v155h-270q-12 0 -20.5 13 t-8.5 47q0 30 9 44.5t20 14.5h270v53l-354 604q-13 21 -15.5 34z" />
<glyph unicode="&#xa8;" horiz-adv-x="785" d="M0 929zM129 1186q0 55 19 74t72 19q54 0 72.5 -19.5t18.5 -71.5q0 -54 -20 -73t-72 -19q-53 0 -71.5 19t-18.5 71zM475 1186q0 55 19 74t71 19q54 0 72.5 -19.5t18.5 -71.5q0 -54 -19.5 -73t-72.5 -19t-71 19t-18 71z" />
<glyph unicode="&#xa9;" horiz-adv-x="1668" d="M171 649q0 182 42.5 317t126 223.5t208 133t288.5 44.5q171 0 295 -44.5t206 -129.5t121.5 -209.5t39.5 -284.5q0 -186 -43.5 -321t-128.5 -223.5t-209 -131t-285 -42.5q-165 0 -289 42t-206.5 125.5t-124 208.5t-41.5 292zM302 659q0 -140 30 -245.5t95 -176.5 t167.5 -106.5t247.5 -35.5q151 0 251.5 45.5t161 125.5t86.5 188.5t26 233.5q0 135 -28 240t-92.5 177.5t-167.5 110.5t-253 38q-133 0 -231.5 -37.5t-164 -112t-97 -185.5t-31.5 -260zM487 666q0 114 28 197t77.5 136.5t116.5 79t145 25.5q38 0 73 -7t64.5 -19t54 -27.5 t36 -26t15 -16.5t5.5 -14t3 -18.5t1 -23.5t-1.5 -23.5t-4.5 -19t-8.5 -12.5t-13.5 -4q-17 0 -34 14t-41.5 31t-60.5 31t-89 14q-104 0 -160.5 -79t-56.5 -230q0 -79 14.5 -137t43.5 -96.5t71 -57t96 -18.5q50 0 86 15.5t62 34t43.5 33.5t31.5 15q5 0 9.5 -3t7 -11t3.5 -20.5 t1 -30.5q0 -15 -0.5 -25.5t-3 -18.5t-5.5 -14t-12.5 -15t-33 -24.5t-54.5 -28.5t-70 -21.5t-83 -8.5q-87 0 -153.5 27.5t-111.5 81.5t-68 132.5t-23 182.5z" />
<glyph unicode="&#xab;" horiz-adv-x="1024" d="M114 510.5q0 19.5 15 41.5l212 339q5 8 10 12.5t14 7.5t22 4t35 1q24 0 39 -3t21.5 -9t6.5 -13.5t-6 -18.5l-207 -364l208 -364q6 -10 6.5 -18.5t-5.5 -15t-21 -9t-40 -2.5q-21 0 -34.5 1t-22.5 3.5t-14 7.5t-10 13l-216 345q-13 22 -13 41.5zM474.5 510.5 q0.5 18.5 14.5 40.5l209 321q5 7 10.5 12.5t14 8.5t22.5 3h35q24 0 39.5 -2t23 -7.5t8 -13t-5.5 -17.5l-210 -346l214 -353q6 -10 5.5 -16.5t-7.5 -11.5t-22 -7.5t-40 -2.5q-22 0 -36 0.5t-22.5 3.5t-13.5 7t-11 13l-214 328q-14 21 -13.5 39.5z" />
<glyph unicode="&#xad;" horiz-adv-x="612" d="M67 493q0 37 9 52t27 15h408q8 0 14 -3t10.5 -11.5t7 -21t2.5 -31.5q0 -38 -9 -52.5t-25 -14.5h-408q-18 0 -27 15t-9 52z" />
<glyph unicode="&#xae;" d="M125 994q0 80 30 149.5t81.5 120.5t121.5 80.5t151 29.5q83 0 152.5 -28.5t120 -78.5t79 -119.5t28.5 -151.5q0 -80 -30 -150t-81.5 -121t-122 -81t-150.5 -30q-83 0 -153 29t-120 79t-78.5 119.5t-28.5 152.5zM213 998q0 -68 22 -125t61 -97.5t92.5 -62.5t116.5 -22 q67 0 122 24t93.5 64.5t59.5 94.5t21 116q0 69 -22 126t-61 97.5t-93 62t-116 21.5q-67 0 -121.5 -23.5t-93.5 -64.5t-60 -95t-21 -116zM353 814v351q0 21 10.5 33.5t32.5 12.5h112q39 0 68.5 -7t50.5 -21.5t32 -36.5t11 -52q0 -47 -25.5 -73t-68.5 -37q23 -8 44 -26.5 t35 -55.5l24 -62q7 -22 7 -28q0 -4 -1.5 -7.5t-7.5 -5t-17 -2.5t-29 -1q-17 0 -27 1t-16.5 3.5t-10 7t-5.5 11.5l-20 68q-12 36 -28 50t-48 14h-27v-137q0 -11 -8 -14.5t-39 -3.5q-30 0 -39.5 4t-9.5 14zM449 1025h43q41 0 56.5 16t15.5 41q0 11 -2.5 20.5t-11 17t-22 11.5 t-34.5 4h-45v-110z" />
<glyph unicode="&#xb4;" horiz-adv-x="583" d="M0 929zM129.5 1089q1.5 8 8.5 18l141 226q6 11 14 17.5t19 10.5t27.5 6t40.5 2q27 0 44 -3.5t24 -9.5t6 -14.5t-9 -17.5l-176 -227q-8 -10 -14.5 -16t-15 -9.5t-21.5 -5t-32 -1.5q-21 0 -34 3t-18.5 8t-4 13z" />
<glyph unicode="&#xb8;" horiz-adv-x="614" d="M129 -286q0 30 6.5 40.5t20.5 10.5h121q31 0 49 13t18 39q0 13 -6 32t-16 41l-50 110h142l33 -72q21 -44 30 -73t9 -54q0 -37 -13.5 -66.5t-39 -49.5t-60.5 -30.5t-79 -10.5q-33 0 -64 4t-53 9t-30 9t-11.5 10t-5 14.5t-1.5 23.5z" />
<glyph unicode="&#xbb;" horiz-adv-x="1024" d="M169 874q0 7 7.5 12t22.5 7.5t40 2.5q21 0 35.5 -0.5t23 -3.5t13.5 -7.5t10 -12.5l214 -328q14 -21 14 -40t-15 -40l-209 -321q-5 -8 -9.5 -13t-13.5 -7.5t-22.5 -3.5t-36.5 -1q-25 0 -40 2.5t-22.5 8t-7.5 12.5t7 17l210 347l-215 352q-6 10 -6 17zM532.5 889 q-0.5 8 6.5 14.5t21.5 9.5t39.5 3q21 0 34 -1t22 -4t14 -8t11 -12l215 -345q14 -22 13.5 -42t-14.5 -42l-212 -338q-5 -8 -10.5 -13t-14 -7.5t-22 -3.5t-34.5 -1q-24 0 -39 2.5t-22.5 8.5t-7 14t6.5 18l208 365l-209 364q-6 10 -6.5 18z" />
<glyph unicode="&#x2c6;" horiz-adv-x="790" d="M0 929zM130 1095q4 10 16 25l161 224q5 8 11.5 12t17 7t25.5 4.5t36 1.5t34.5 -1.5t23.5 -5t16.5 -7.5t10.5 -11l162 -224q11 -15 14.5 -25t-1 -16.5t-19 -10t-39.5 -3.5q-21 0 -33 1.5t-20 4.5t-13 9t-12 15l-126 176l-127 -176q-6 -10 -12 -15.5t-14.5 -8.5t-20.5 -4.5 t-31 -1.5q-26 0 -40 3.5t-19 10t-1 16.5z" />
<glyph unicode="&#x2da;" horiz-adv-x="641" d="M0 929zM129 1222q0 39 12.5 72t37.5 57t61.5 36.5t83.5 12.5q90 0 139.5 -46t49.5 -125q0 -40 -14 -73t-39 -57.5t-61.5 -37.5t-82.5 -13q-48 0 -83.5 12.5t-58.5 35.5t-34 55t-11 71zM232 1228q0 -43 20 -70t70 -27q43 0 65 26t22 65q0 40 -21 67.5t-69 27.5 q-43 0 -65 -24.5t-22 -64.5z" />
<glyph unicode="&#x2dc;" horiz-adv-x="900" d="M0 929zM126 1111q0 97 49 154.5t139 57.5q53 0 91 -20t69 -44t58 -44.5t58 -20.5q35 0 53 26t18 77q0 16 10.5 21t44.5 5q36 0 47.5 -7.5t11.5 -32.5q0 -104 -50.5 -158.5t-137.5 -54.5q-36 0 -64.5 9.5t-52 24t-43 31t-38.5 31.5t-37.5 24t-39.5 9q-39 0 -55 -28 t-16 -75q0 -7 -2 -12.5t-8 -8.5t-18.5 -4t-30.5 -1q-16 0 -26.5 1.5t-17 6t-9.5 13t-3 20.5z" />
<glyph unicode="&#x400;" horiz-adv-x="976" d="M67 1264zM168 68v1127q0 38 20 53.5t42 15.5h600q8 0 14.5 -4t10 -13t6 -22t2.5 -33q0 -18 -2.5 -31t-6 -21t-10 -12t-14.5 -4h-494v-396h424q8 0 14 -4.5t10.5 -12.5t6.5 -21.5t2 -32.5q0 -18 -2 -30.5t-6.5 -20t-10.5 -11t-14 -3.5h-424v-452h501q8 0 14 -4t11 -12.5 t7 -21.5t2 -33q0 -18 -2 -31t-7 -21.5t-11 -12.5t-14 -4h-607q-22 0 -42 15t-20 53zM196.5 1618.5q-2.5 8.5 4.5 15.5t24 11t46 4q24 0 41.5 -1.5t30 -5t23.5 -10.5t21 -20l184 -208q9 -11 11.5 -18.5t-2.5 -13t-18.5 -8t-35.5 -2.5q-21 0 -34.5 1.5t-24 5t-19 9t-18.5 15.5 l-220 207q-11 10 -13.5 18.5z" />
<glyph unicode="&#x401;" horiz-adv-x="976" d="M95 1264zM168 68v1127q0 38 20 53.5t42 15.5h600q8 0 14.5 -4t10 -13t6 -22t2.5 -33q0 -18 -2.5 -31t-6 -21t-10 -12t-14.5 -4h-494v-396h424q8 0 14 -4.5t10.5 -12.5t6.5 -21.5t2 -32.5q0 -18 -2 -30.5t-6.5 -20t-10.5 -11t-14 -3.5h-424v-452h501q8 0 14 -4t11 -12.5 t7 -21.5t2 -33q0 -18 -2 -31t-7 -21.5t-11 -12.5t-14 -4h-607q-22 0 -42 15t-20 53zM224 1491q0 55 20 75t75 20t74.5 -19.5t19.5 -73.5q0 -55 -20.5 -75.5t-74.5 -20.5q-55 0 -74.5 20.5t-19.5 73.5zM627 1491q0 55 20.5 75t74.5 20q56 0 75.5 -19.5t19.5 -73.5 q0 -55 -20 -75.5t-76 -20.5q-54 0 -74 20.5t-20 73.5z" />
<glyph unicode="&#x402;" horiz-adv-x="1249" d="M15 1189q0 20 2.5 34t6 23t10 13.5t14.5 4.5h771q9 0 15.5 -4.5t10.5 -13.5t6.5 -22.5t2.5 -33.5q0 -19 -2.5 -32t-6.5 -22t-10.5 -13t-15.5 -4h-323v-392h232q122 0 197 -26t127.5 -72t80.5 -111t28 -143q0 -87 -27.5 -157t-80 -119t-130.5 -75.5t-191 -26.5h-24 q-10 0 -16 4t-10.5 12t-6 21t-1.5 31q0 21 1.5 34.5t5 22.5t9 12.5t12.5 3.5h37q69 0 112 15t73 44.5t46 71t16 94.5q0 62 -22 105.5t-58 69.5t-82 38.5t-121 12.5h-207v-565q0 -8 -4.5 -13t-13.5 -9t-25.5 -6t-40.5 -2t-40.5 2t-26 6t-13.5 9.5t-4 12.5v1095h-280 q-8 0 -14.5 4t-10 12.5t-6 22t-2.5 31.5z" />
<glyph unicode="&#x403;" horiz-adv-x="859" d="M168 24v1171q0 34 18 51.5t44 17.5h583q17 0 25.5 -18t8.5 -56q0 -19 -2 -32t-6.5 -22t-11 -13t-14.5 -4h-477v-1095q0 -8 -4 -13t-13.5 -9t-26 -6t-40.5 -2q-23 0 -40 2t-26.5 6t-13.5 9.5t-4 12.5zM294 1264zM424 1386q2 8 11 18l184 208q11 13 21 20t23 10.5t30.5 5 t41.5 1.5q29 0 46 -4t24 -11t4.5 -16t-11.5 -18l-222 -207q-10 -10 -18 -15.5t-19 -9t-25 -5t-34 -1.5q-22 0 -35 2.5t-18 8t-3 13.5z" />
<glyph unicode="&#x404;" horiz-adv-x="1094" d="M96 629q0 148 36 269t106.5 206t172.5 131t235 46q64 0 119 -12t98.5 -28.5t73 -34t37.5 -25.5t12 -15t6 -16t3.5 -22t1.5 -28q0 -39 -6 -55t-17 -16t-34.5 17t-62.5 37.5t-95.5 37t-133.5 16.5q-91 0 -157 -33t-111 -89t-70.5 -131.5t-32.5 -160.5h596q8 0 14.5 -3.5 t10.5 -12.5t6 -21.5t2 -32.5q0 -18 -2 -31t-6 -21t-10.5 -12t-14.5 -4h-598q3 -101 25.5 -184.5t68.5 -144t119.5 -95t177.5 -34.5q72 0 126.5 17.5t93 38.5t61.5 38.5t33 17.5q5 0 9.5 -3t8 -9.5t5 -17.5t1.5 -31t-1 -35t-3 -25.5t-6 -19.5t-17 -20.5t-45.5 -28.5t-78 -32 t-100 -25t-110.5 -10q-138 0 -241 44t-171 127t-101.5 203t-33.5 273z" />
<glyph unicode="&#x405;" horiz-adv-x="918" d="M69 157q0 21 2 35.5t6 23.5t10 12t14 3q14 0 38.5 -16.5t63.5 -36t94.5 -36.5t127.5 -17q55 0 100 14.5t78 41.5t50.5 66t17.5 89q0 54 -24.5 92t-64.5 66.5t-91.5 52.5t-105 49t-104.5 55.5t-91 71.5t-64.5 96t-24.5 132q0 79 28.5 141t80 104t122 64t152.5 22 q42 0 84.5 -7t80.5 -19.5t67 -27.5t38.5 -24.5t12.5 -14.5t4.5 -13.5t2.5 -20t1 -30.5q0 -18 -1.5 -31.5t-4 -22.5t-8 -13.5t-12.5 -4.5q-11 0 -34 13.5t-56 30.5t-78.5 31.5t-101.5 14.5q-53 0 -92 -14.5t-64.5 -38t-38.5 -55.5t-13 -68q0 -53 24.5 -91t65 -67.5t92.5 -54 t105.5 -49t105.5 -54.5t92.5 -70.5t65.5 -96t25 -130.5q0 -89 -33 -158t-91 -117.5t-136.5 -73t-169.5 -24.5q-63 0 -117.5 11t-97 26.5t-71 32t-40 28.5t-17 30t-5.5 48z" />
<glyph unicode="&#x406;" horiz-adv-x="503" d="M168 25v1213q0 8 4.5 14t14.5 9.5t26 6t39 2.5q24 0 40.5 -2.5t26 -6t13.5 -9.5t4 -14v-1213q0 -8 -4 -13.5t-13.5 -9t-26 -6t-40.5 -2.5q-23 0 -40 2.5t-26.5 6t-13.5 9.5t-4 13z" />
<glyph unicode="&#x407;" horiz-adv-x="503" d="M-172 1264zM-43 1491q0 55 20 75t75 20t74.5 -19.5t19.5 -73.5q0 -55 -20.5 -75.5t-74.5 -20.5q-55 0 -74.5 20.5t-19.5 73.5zM168 25v1213q0 8 4.5 14t14.5 9.5t26 6t39 2.5q24 0 40.5 -2.5t26 -6t13.5 -9.5t4 -14v-1213q0 -8 -4 -13.5t-13.5 -9t-26 -6t-40.5 -2.5 q-23 0 -40 2.5t-26.5 6t-13.5 9.5t-4 13zM360 1491q0 55 20.5 75t74.5 20q56 0 75.5 -19.5t19.5 -73.5q0 -55 -20 -75.5t-76 -20.5q-54 0 -74 20.5t-20 73.5z" />
<glyph unicode="&#x408;" horiz-adv-x="637" d="M7 104q0 21 1.5 35.5t5.5 23t9 12t13 3.5t20 -7.5t29.5 -16t39.5 -16t53 -7.5q33 0 56.5 8t39 30.5t23.5 62t8 103.5v904q0 7 3.5 13t13.5 10t26 6t41 2q23 0 39.5 -2t26 -6t14 -10t4.5 -13v-921q0 -75 -14 -137.5t-47 -106.5t-87 -68t-135 -24q-27 0 -54 4.5t-49.5 12 t-39 15.5t-21.5 14t-8.5 12t-6 14t-3.5 20.5t-1 29.5z" />
<glyph unicode="&#x409;" horiz-adv-x="1744" d="M3 57q0 24 2.5 39.5t6.5 25.5t10 14t14 4q36 0 68 14.5t61 55t56 113.5t52.5 189.5t50 283.5t47.5 395q3 35 18.5 54t42.5 19h535q26 0 42 -17.5t16 -51.5v-429h181q155 0 240.5 -28.5t140 -79.5t80 -118.5t25.5 -145.5q0 -70 -23 -140.5t-76.5 -127.5t-142.5 -91.5 t-255 -34.5h-273q-12 0 -23 3.5t-20 11.5t-15.5 21.5t-6.5 31.5v1051h-327q-26 -226 -52.5 -397.5t-55.5 -298t-64.5 -210.5t-81 -135.5t-102.5 -72.5t-130 -21q-11 0 -18.5 4t-12.5 13t-7.5 22.5t-2.5 33.5zM1025 140h180q115 0 168.5 20.5t85.5 54.5t45.5 77.5t13.5 90.5 q0 57 -17 101.5t-52.5 76.5t-90 49t-166.5 17h-167v-487z" />
<glyph unicode="&#x40a;" horiz-adv-x="1752" d="M168 24v1215q0 7 4 13t13.5 10t26.5 6t40 2q24 0 40.5 -2t26 -6t13.5 -10t4 -13v-508h532v508q0 7 4 13t14 10t26 6t40 2q23 0 40 -2t26 -6t13 -10t4 -13v-473h178q159 0 244 -28.5t139.5 -79.5t79.5 -118.5t25 -144.5q0 -71 -22.5 -141.5t-76 -127.5t-142.5 -91.5 t-257 -34.5h-270q-11 0 -23 3.5t-21 11.5t-15 21.5t-6 31.5v519h-532v-563q0 -8 -4 -13t-13.5 -9t-26 -6t-40.5 -2q-23 0 -40 2t-26.5 6t-13.5 9.5t-4 12.5zM1035 140h178q117 0 170.5 20.5t85.5 54.5t45 77.5t13 86.5q0 61 -16 105.5t-51.5 76.5t-91 49t-166.5 17h-167 v-487z" />
<glyph unicode="&#x40b;" horiz-adv-x="1236" d="M15 1191q0 19 2.5 33t6 23t10 13t14.5 4h763q8 0 13.5 -4t10.5 -13t7 -23t2 -33t-2 -32t-7 -21.5t-11 -13t-13 -4.5h-315v-390h201q122 0 205 -25t137.5 -75t81 -123.5t26.5 -169.5v-313q0 -8 -3.5 -13t-13 -9t-25.5 -6t-41 -2t-40.5 2t-25.5 6t-13.5 9.5t-3.5 12.5v299 q0 65 -16 115t-51 84t-90 51t-149 17h-179v-566q0 -8 -4.5 -13t-13.5 -9t-25.5 -6t-40.5 -2t-40.5 2t-26 6t-13.5 9.5t-4 12.5v1096h-280q-8 0 -14.5 5t-10 14t-6 22t-2.5 30z" />
<glyph unicode="&#x40c;" horiz-adv-x="1085" d="M168 25v1214q0 7 4 13t13.5 9.5t26.5 6t40 2.5q24 0 40.5 -2.5t26 -6t13.5 -9.5t4 -13v-516h70q59 0 103 14t77.5 42.5t59.5 72t46 102.5l96 275q3 10 8 18t14.5 13t26.5 7.5t45 2.5q25 0 40.5 -2t25 -6t12.5 -10t3 -14q0 -11 -3.5 -24t-9.5 -30l-100 -263 q-21 -60 -44.5 -103t-50.5 -73.5t-59.5 -50.5t-72.5 -32v-2q46 -17 81.5 -38.5t66 -54t56 -78t49.5 -108.5l119 -301q10 -25 12 -35.5t2 -18.5q0 -9 -4 -14.5t-13.5 -9.5t-26 -6t-40.5 -2q-28 0 -45.5 2.5t-27.5 7.5t-15.5 12t-8.5 18l-116 309q-23 62 -51.5 106t-65 73 t-83.5 42.5t-106 13.5h-70v-553q0 -8 -4 -13.5t-13.5 -9t-26 -6t-40.5 -2.5q-23 0 -40 2.5t-26.5 6t-13.5 9.5t-4 13zM324 1264zM454 1386q2 8 11 18l184 208q11 13 21 20t23 10.5t30.5 5t41.5 1.5q29 0 46 -4t24 -11t4.5 -16t-11.5 -18l-222 -207q-10 -10 -18 -15.5t-19 -9 t-25 -5t-34 -1.5q-22 0 -35 2.5t-18 8t-3 13.5z" />
<glyph unicode="&#x40d;" horiz-adv-x="1283" d="M168 27v1212q0 7 4.5 13t14.5 10t26 6t39 2q24 0 40.5 -2t26 -6t13.5 -10t4 -13v-834q0 -26 -0.5 -56.5t-3.5 -58.5h2q16 24 37 59t44 69l546 823q5 7 11 12.5t15 9t21.5 5.5t32.5 2q22 0 36.5 -2t22.5 -6.5t11.5 -10t3.5 -14.5v-1213q0 -8 -4 -13t-13.5 -9t-25.5 -6 t-41 -2q-23 0 -39.5 2t-26 6t-13.5 9.5t-4 12.5v830q0 30 1 62.5t3 59.5h-2q-8 -14 -17 -29.5t-20 -33t-21.5 -34.5t-21.5 -33l-547 -823q-6 -8 -11.5 -13.5t-15 -9t-22 -5t-32.5 -1.5q-22 0 -36.5 2t-22.5 6.5t-11.5 10.5t-3.5 14zM215 1264zM344.5 1618.5 q-2.5 8.5 4.5 15.5t24 11t46 4q24 0 41.5 -1.5t30 -5t23.5 -10.5t21 -20l184 -208q9 -11 11.5 -18.5t-2.5 -13t-18.5 -8t-35.5 -2.5q-21 0 -34.5 1.5t-24 5t-19 9t-18.5 15.5l-220 207q-11 10 -13.5 18.5z" />
<glyph unicode="&#x40e;" horiz-adv-x="1054" d="M16 1238.5q-1 12.5 7 19.5t26.5 9.5t49.5 2.5q28 0 45 -2t28 -6.5t17 -12t11 -19.5l226 -460q38 -77 71.5 -149t65.5 -143h3q26 74 54 147.5t64 161.5l176 451q3 9 8.5 15t16 10t28.5 5.5t46 1.5q29 0 46.5 -3t25.5 -9t8 -16t-6 -23l-357 -867q-46 -113 -85 -185 t-80 -112t-89 -55t-110 -15q-21 0 -43.5 3t-42 8.5t-34.5 12.5t-22 12t-10.5 11.5t-6 16.5t-3.5 24.5t-1 34.5q0 37 7.5 54t22.5 17q8 0 18 -6t24.5 -14t35.5 -13.5t50 -5.5q24 0 45 5t40 23t39.5 49.5t45.5 86.5l-451 902q-9 20 -10 32.5zM106 1264zM235 1592 q0 10 3.5 16.5t12.5 10.5t24.5 6t36.5 2q23 0 37 -2.5t21 -7.5t9.5 -12.5t2.5 -18.5q0 -24 10 -47.5t30 -41.5t48.5 -29t65.5 -11q36 0 63.5 11t47.5 29t29.5 41.5t9.5 51.5q0 9 2.5 16t10 11.5t20.5 7t35 2.5q23 0 38.5 -2t25 -6t13.5 -10.5t4 -16.5q0 -50 -17 -96 t-53 -80.5t-92.5 -55.5t-137.5 -21q-74 0 -130.5 18t-94 51.5t-56.5 80t-19 103.5z" />
<glyph unicode="&#x40f;" horiz-adv-x="1239" d="M168 68v1171q0 7 4 13t13.5 10t26.5 6t40 2q24 0 40.5 -2t26 -6t13.5 -10t4 -13v-1094h568v1094q0 7 4 13t14.5 10t26 6t39.5 2q23 0 40 -2t26 -6t13 -10t4 -13v-1171q0 -34 -16.5 -51t-43.5 -17h-320v-308q0 -8 -2.5 -13t-11 -8t-22.5 -4.5t-36 -1.5q-21 0 -35 1.5 t-22 4.5t-11 8.5t-3 12.5v308h-320q-27 0 -43.5 17t-16.5 51z" />
<glyph unicode="&#x410;" horiz-adv-x="1157" d="M34.5 26q0.5 13 8.5 35l424 1173q4 11 10 18t18.5 11t31.5 5.5t48 1.5q31 0 51.5 -1.5t33.5 -5.5t20 -11.5t10 -18.5l424 -1173q8 -21 8.5 -34.5t-7.5 -20.5t-26 -9t-48 -2t-48 1.5t-27.5 5t-14 9.5t-8.5 14l-108 308h-525l-104 -304q-3 -9 -8 -15t-14 -10.5t-26 -6.5 t-45 -2t-46 2.5t-25.5 9.5t-7 20zM352 466h439l-221 630h-1z" />
<glyph unicode="&#x411;" horiz-adv-x="1075" d="M169 69v1126q0 38 19.5 53.5t41.5 15.5h656q9 0 15.5 -4t11 -13t6.5 -22t2 -33q0 -18 -2 -31.5t-6.5 -21.5t-10.5 -12.5t-15 -4.5h-551v-395h231q119 0 196.5 -24.5t130 -70.5t80 -111t27.5 -145q0 -73 -23 -141t-74 -120t-136 -83.5t-232 -31.5h-305q-23 0 -42.5 15 t-19.5 54zM336 137h216q78 0 127.5 15.5t81.5 45.5t49 71.5t17 94.5t-17 95t-49 71.5t-82 45.5t-132 16h-211v-455z" />
<glyph unicode="&#x412;" horiz-adv-x="1087" d="M168 68v1127q0 38 20 53.5t42 15.5h288q113 0 185 -21.5t120.5 -62.5t73 -100.5t24.5 -135.5q0 -45 -11 -86t-32 -75.5t-52.5 -62t-72.5 -44.5q52 -10 97 -36t78.5 -66t53 -94t19.5 -118q0 -60 -15 -110t-42.5 -90t-66 -70t-87 -50.5t-103.5 -31t-126 -10.5h-331 q-22 0 -42 15t-20 53zM334 139h244q58 0 101 13.5t75.5 40.5t51 67t18.5 93q0 57 -18 99.5t-52.5 72t-87 44.5t-131.5 15h-201v-445zM334 718h191q65 0 105.5 17t67 46t38.5 67.5t12 79.5q0 46 -12.5 83t-40 63t-71.5 39.5t-116 13.5h-174v-409z" />
<glyph unicode="&#x413;" horiz-adv-x="859" d="M168 24v1171q0 34 18 51.5t44 17.5h583q17 0 25.5 -18t8.5 -56q0 -19 -2 -32t-6.5 -22t-11 -13t-14.5 -4h-477v-1095q0 -8 -4 -13t-13.5 -9t-26 -6t-40.5 -2q-23 0 -40 2t-26.5 6t-13.5 9.5t-4 12.5z" />
<glyph unicode="&#x414;" horiz-adv-x="1288" d="M5 94q-2 25 7.5 37t30.5 12h73q27 35 50.5 71.5t45 86.5t42 121t40.5 176t40.5 250.5t43.5 345.5q6 35 20 52.5t40 17.5h583q26 0 42.5 -17.5t16.5 -51.5v-1052h126q21 0 29.5 -12.5t8.5 -37.5v-401q0 -8 -3 -12.5t-11 -7.5t-22 -5t-37 -2q-20 0 -33.5 2t-22 5t-11.5 8 t-3 12v308h-952v-308q0 -8 -3 -12.5t-11.5 -7.5t-22 -5t-34.5 -2q-22 0 -36 2t-22 5t-11.5 8t-3.5 12v402zM295 143h617v977h-375q-21 -181 -40.5 -315.5t-39 -234t-39 -168.5t-39.5 -117.5t-41 -81.5t-43 -60z" />
<glyph unicode="&#x415;" horiz-adv-x="976" d="M168 68v1127q0 38 20 53.5t42 15.5h600q8 0 14.5 -4t10 -13t6 -22t2.5 -33q0 -18 -2.5 -31t-6 -21t-10 -12t-14.5 -4h-494v-396h424q8 0 14 -4.5t10.5 -12.5t6.5 -21.5t2 -32.5q0 -18 -2 -30.5t-6.5 -20t-10.5 -11t-14 -3.5h-424v-452h501q8 0 14 -4t11 -12.5t7 -21.5 t2 -33q0 -18 -2 -31t-7 -21.5t-11 -12.5t-14 -4h-607q-22 0 -42 15t-20 53z" />
<glyph unicode="&#x416;" horiz-adv-x="1601" d="M83 26q0 3 0.5 8t2 12t4 15t6.5 19l98 286q22 66 47.5 113.5t54.5 81t66 55.5t84 36v1q-39 10 -70.5 28.5t-58 50.5t-49 77.5t-43.5 110.5l-89 264q-6 18 -9.5 31t-3.5 23q0 8 3.5 14t12.5 10t25 6t40 2q28 0 45 -2.5t26.5 -7.5t13.5 -13t8 -18l92 -298q17 -54 38 -93 t53 -65t76 -38t105 -12h58v516q0 7 3.5 13t12.5 9.5t25 6t40 2.5t40 -2.5t25.5 -6t13.5 -9.5t4 -13v-516h57q59 0 103.5 13.5t77 41t55 66.5t37.5 89l92 296q3 10 7 18t13.5 13t26.5 7.5t44 2.5q25 0 41 -2t25.5 -6t12.5 -10t3 -14q0 -11 -4 -24t-8 -30l-88 -258 q-21 -60 -42 -104t-46.5 -74.5t-58.5 -51.5t-76 -34v-2q49 -17 86 -40t66.5 -57.5t53.5 -82t46 -114.5l97 -286q4 -11 7 -19t4.5 -15t2.5 -12t1 -8q0 -9 -4.5 -14.5t-14 -9.5t-26 -6t-41.5 -2q-27 0 -44.5 2.5t-27.5 7.5t-14.5 12t-8.5 18l-105 319q-20 61 -46 102.5 t-61 69.5t-81.5 40.5t-104.5 12.5h-57v-553q0 -8 -4 -13.5t-13.5 -9t-25.5 -6t-40 -2.5q-23 0 -39.5 2.5t-25.5 6t-12.5 9.5t-3.5 13v553h-58q-63 0 -110.5 -15t-82.5 -44t-59.5 -71t-42.5 -95l-102 -319q-4 -11 -9 -18t-15 -12t-27 -7.5t-45 -2.5q-25 0 -41.5 2t-26 6 t-13.5 10t-4 14z" />
<glyph unicode="&#x417;" horiz-adv-x="947" d="M73 159q0 30 6 41t18 11t32.5 -12.5t55 -30t83.5 -30t118 -12.5q64 0 117.5 16t91 45.5t58.5 70.5t21 91q0 54 -19.5 97.5t-58 75t-96.5 49t-133 17.5h-148q-12 0 -19 3.5t-11.5 11t-6.5 21t-2 32.5t2 31.5t6.5 21t12 12.5t17.5 4h139q64 0 117.5 14.5t91.5 43t58.5 70 t20.5 94.5q0 43 -14.5 79t-43 61t-71 39t-100.5 14q-62 0 -111 -13.5t-84 -29.5t-59.5 -29.5t-36.5 -13.5q-7 0 -11 3t-7 10t-3.5 20t-0.5 31q0 13 0.5 25t3 22t6.5 18t12 16t37 23t72 28.5t97.5 22.5t116.5 9q94 0 164 -22.5t117 -63.5t70 -98.5t23 -127.5 q0 -64 -19 -115.5t-51.5 -89t-76.5 -61.5t-93 -33v-3q59 -7 109.5 -33.5t87.5 -68t58.5 -96t21.5 -116.5q0 -84 -30.5 -152.5t-90.5 -118t-148 -76t-202 -26.5q-63 0 -114 10t-88.5 23.5t-58.5 25.5t-29 19t-12.5 14.5t-6.5 19t-4 27.5t-2 39z" />
<glyph unicode="&#x418;" horiz-adv-x="1283" d="M168 27v1212q0 7 4.5 13t14.5 10t26 6t39 2q24 0 40.5 -2t26 -6t13.5 -10t4 -13v-834q0 -26 -0.5 -56.5t-3.5 -58.5h2q16 24 37 59t44 69l546 823q5 7 11 12.5t15 9t21.5 5.5t32.5 2q22 0 36.5 -2t22.5 -6.5t11.5 -10t3.5 -14.5v-1213q0 -8 -4 -13t-13.5 -9t-25.5 -6 t-41 -2q-23 0 -39.5 2t-26 6t-13.5 9.5t-4 12.5v830q0 30 1 62.5t3 59.5h-2q-8 -14 -17 -29.5t-20 -33t-21.5 -34.5t-21.5 -33l-547 -823q-6 -8 -11.5 -13.5t-15 -9t-22 -5t-32.5 -1.5q-22 0 -36.5 2t-22.5 6.5t-11.5 10.5t-3.5 14z" />
<glyph unicode="&#x419;" horiz-adv-x="1283" d="M168 27v1212q0 7 4.5 13t14.5 10t26 6t39 2q24 0 40.5 -2t26 -6t13.5 -10t4 -13v-834q0 -26 -0.5 -56.5t-3.5 -58.5h2q16 24 37 59t44 69l546 823q5 7 11 12.5t15 9t21.5 5.5t32.5 2q22 0 36.5 -2t22.5 -6.5t11.5 -10t3.5 -14.5v-1213q0 -8 -4 -13t-13.5 -9t-25.5 -6 t-41 -2q-23 0 -39.5 2t-26 6t-13.5 9.5t-4 12.5v830q0 30 1 62.5t3 59.5h-2q-8 -14 -17 -29.5t-20 -33t-21.5 -34.5t-21.5 -33l-547 -823q-6 -8 -11.5 -13.5t-15 -9t-22 -5t-32.5 -1.5q-22 0 -36.5 2t-22.5 6.5t-11.5 10.5t-3.5 14zM224 1264zM353 1592q0 10 3.5 16.5 t12.5 10.5t24.5 6t36.5 2q23 0 37 -2.5t21 -7.5t9.5 -12.5t2.5 -18.5q0 -24 10 -47.5t30 -41.5t48.5 -29t65.5 -11q36 0 63.5 11t47.5 29t29.5 41.5t9.5 51.5q0 9 2.5 16t10 11.5t20.5 7t35 2.5q23 0 38.5 -2t25 -6t13.5 -10.5t4 -16.5q0 -50 -17 -96t-53 -80.5t-92.5 -55.5 t-137.5 -21q-74 0 -130.5 18t-94 51.5t-56.5 80t-19 103.5z" />
<glyph unicode="&#x41a;" horiz-adv-x="1085" d="M168 25v1214q0 7 4 13t13.5 9.5t26.5 6t40 2.5q24 0 40.5 -2.5t26 -6t13.5 -9.5t4 -13v-516h70q59 0 103 14t77.5 42.5t59.5 72t46 102.5l96 275q3 10 8 18t14.5 13t26.5 7.5t45 2.5q25 0 40.5 -2t25 -6t12.5 -10t3 -14q0 -11 -3.5 -24t-9.5 -30l-100 -263 q-21 -60 -44.5 -103t-50.5 -73.5t-59.5 -50.5t-72.5 -32v-2q46 -17 81.5 -38.5t66 -54t56 -78t49.5 -108.5l119 -301q10 -25 12 -35.5t2 -18.5q0 -9 -4 -14.5t-13.5 -9.5t-26 -6t-40.5 -2q-28 0 -45.5 2.5t-27.5 7.5t-15.5 12t-8.5 18l-116 309q-23 62 -51.5 106t-65 73 t-83.5 42.5t-106 13.5h-70v-553q0 -8 -4 -13.5t-13.5 -9t-26 -6t-40.5 -2.5q-23 0 -40 2.5t-26.5 6t-13.5 9.5t-4 13z" />
<glyph unicode="&#x41b;" horiz-adv-x="1221" d="M3 57q0 24 2.5 39.5t6.5 25.5t10 14t14 4q36 0 68 14.5t61 55t56 113.5t52.5 189.5t50 282.5t47.5 393q5 41 19.5 58.5t43.5 17.5h561q27 0 43 -17.5t16 -51.5v-1171q0 -8 -4 -13t-14 -9t-26 -6t-40 -2t-40.5 2t-26 6t-13.5 9.5t-4 12.5v1095h-356q-26 -226 -52.5 -397.5 t-55.5 -298t-64.5 -210.5t-81 -135.5t-102.5 -72.5t-130 -21q-10 0 -17.5 4t-13 13t-8 22.5t-2.5 33.5z" />
<glyph unicode="&#x41c;" horiz-adv-x="1709" d="M168 25v1163q0 41 21.5 58.5t47.5 17.5h102q31 0 54.5 -6t41 -18.5t29.5 -32t20 -46.5l367 -915h4l381 912q11 29 23.5 50t28 33t34 17.5t42.5 5.5h107q15 0 28 -4.5t22 -14t15 -23.5t6 -34v-1163q0 -8 -4 -13.5t-13.5 -9t-25 -6t-39.5 -2.5q-22 0 -38.5 2.5t-25.5 6 t-13 9.5t-4 13v1101h-2l-450 -1105q-3 -7 -8.5 -12t-15.5 -8.5t-24.5 -5t-33.5 -1.5q-21 0 -35.5 2t-24.5 5.5t-15 8.5t-7 11l-431 1105h-1v-1101q0 -8 -4 -13.5t-13.5 -9t-25.5 -6t-40 -2.5q-23 0 -39 2.5t-25 6t-12.5 9.5t-3.5 13z" />
<glyph unicode="&#x41d;" horiz-adv-x="1246" d="M168 25v1213q0 8 4 14t13.5 9.5t26.5 6t40 2.5q24 0 40.5 -2.5t26 -6t13.5 -9.5t4 -14v-506h575v506q0 8 4 14t13.5 9.5t25.5 6t41 2.5q23 0 39.5 -2.5t26 -6t13.5 -9.5t4 -14v-1213q0 -8 -4 -13.5t-13.5 -9t-25.5 -6t-40 -2.5q-25 0 -41 2.5t-25.5 6t-13.5 9.5t-4 13 v561h-575v-561q0 -8 -4 -13.5t-13.5 -9t-26 -6t-40.5 -2.5q-23 0 -40 2.5t-26.5 6t-13.5 9.5t-4 13z" />
<glyph unicode="&#x41e;" horiz-adv-x="1324" d="M97 625q0 149 36 271.5t108 207.5t180.5 131.5t253.5 46.5q140 0 243 -42t172 -122.5t103 -199.5t34 -272t-36.5 -276t-108 -209.5t-180 -133t-253.5 -46.5q-143 0 -246.5 42.5t-171.5 124t-101 201.5t-33 276zM274 637q0 -111 19 -205t62.5 -162t117.5 -105.5t185 -37.5 q110 0 185.5 41t121.5 111t65.5 161.5t19.5 194.5q0 107 -19 199.5t-63.5 160t-119 106t-183.5 38.5t-183.5 -41t-121 -109.5t-66.5 -160t-20 -191.5z" />
<glyph unicode="&#x41f;" horiz-adv-x="1243" d="M168 24v1171q0 34 17 51.5t44 17.5h788q27 0 42.5 -17.5t15.5 -51.5v-1171q0 -8 -4 -13t-13.5 -9t-25.5 -6t-41 -2q-23 0 -39.5 2t-26 6t-14 9.5t-4.5 12.5v1094h-571v-1094q0 -8 -4.5 -13t-13.5 -9t-25.5 -6t-40.5 -2t-40.5 2t-26 6t-13.5 9.5t-4 12.5z" />
<glyph unicode="&#x420;" horiz-adv-x="1033" d="M168 25v1166q0 39 20.5 56t45.5 17h271q41 0 78.5 -3.5t89 -15t104.5 -42t90 -75.5t57 -104t20 -130q0 -95 -31 -171.5t-89 -130t-142.5 -83t-202.5 -29.5h-143v-455q0 -8 -4.5 -13.5t-13.5 -9t-25.5 -6t-40.5 -2.5t-40.5 2.5t-26 6t-13.5 9.5t-4 13zM336 618h151 q76 0 126.5 19.5t84.5 54.5t52 83t18 105q0 77 -29 129t-71.5 77t-88 32t-88.5 7h-155v-507z" />
<glyph unicode="&#x421;" horiz-adv-x="1066" d="M95 615q0 157 40.5 280.5t113.5 208.5t175 130t226 45q55 0 107 -10t95.5 -25.5t78 -36t47.5 -34t17 -20.5t6.5 -16t4 -21.5t1.5 -30.5q0 -20 -2 -33.5t-6 -22.5t-9.5 -13.5t-12.5 -4.5q-14 0 -38.5 19t-63 42t-93.5 42t-133 19q-84 0 -152.5 -34t-117.5 -99t-76 -159.5 t-27 -215.5q0 -120 26 -212.5t74.5 -154.5t118.5 -93.5t159 -31.5q75 0 131.5 18.5t96 41.5t65 41.5t39.5 18.5q7 0 12 -3t8 -11.5t4.5 -23t1.5 -36.5q0 -16 -1 -27.5t-3.5 -20.5t-6.5 -16t-13.5 -16.5t-41 -29.5t-78 -39t-106.5 -32.5t-131 -13.5q-123 0 -222 41 t-169 121.5t-107.5 198t-37.5 270.5z" />
<glyph unicode="&#x422;" horiz-adv-x="974" d="M15 1191q0 19 2.5 33t6 23t10 13t14.5 4h879q8 0 14 -4t10.5 -13t6.5 -23t2 -33t-2 -32t-6.5 -21.5t-10.5 -12.5t-14 -4h-356v-1096q0 -8 -4 -13.5t-13.5 -9t-25.5 -6t-41 -2.5q-23 0 -39.5 2.5t-26.5 6t-14 9.5t-4 13v1096h-355q-8 0 -14.5 4t-10 12.5t-6 22t-2.5 31.5z " />
<glyph unicode="&#x423;" horiz-adv-x="1054" d="M16 1238.5q-1 12.5 7 19.5t26.5 9.5t49.5 2.5q28 0 45 -2t28 -6.5t17 -12t11 -19.5l226 -460q38 -77 71.5 -149t65.5 -143h3q26 74 54 147.5t64 161.5l176 451q3 9 8.5 15t16 10t28.5 5.5t46 1.5q29 0 46.5 -3t25.5 -9t8 -16t-6 -23l-357 -867q-46 -113 -85 -185 t-80 -112t-89 -55t-110 -15q-21 0 -43.5 3t-42 8.5t-34.5 12.5t-22 12t-10.5 11.5t-6 16.5t-3.5 24.5t-1 34.5q0 37 7.5 54t22.5 17q8 0 18 -6t24.5 -14t35.5 -13.5t50 -5.5q24 0 45 5t40 23t39.5 49.5t45.5 86.5l-451 902q-9 20 -10 32.5z" />
<glyph unicode="&#x424;" horiz-adv-x="1394" d="M0 1264zM89 658q0 102 32.5 187t98 147.5t163.5 101t231 46.5v152q0 6 4.5 11t15 8.5t26 5.5t37.5 2t39 -2t26 -5.5t13.5 -8.5t4.5 -11v-152q135 -5 233.5 -38t163 -92t96.5 -145t32 -196q0 -105 -33 -191t-99 -149t-164.5 -101t-228.5 -44v-161q0 -7 -4.5 -12.5 t-13.5 -9t-25.5 -5.5t-39.5 -2t-38.5 1.5t-26 5t-14.5 9.5t-4 13v161q-135 4 -234 36.5t-163.5 92t-96 146.5t-31.5 199zM262 668q0 -76 18 -137.5t59.5 -106.5t109.5 -72t166 -33v686q-97 -6 -164 -34.5t-109 -73t-61 -104t-19 -125.5zM779 319q97 5 164 34t109.5 74.5 t61.5 105t19 126.5q0 75 -18.5 136t-59.5 105.5t-109 71.5t-167 33v-686z" />
<glyph unicode="&#x425;" horiz-adv-x="1038" d="M49.5 26.5q2.5 12.5 14.5 34.5l345 581l-329 561q-12 21 -15 34.5t4.5 21t27 9.5t53.5 2q29 0 48 -1.5t29.5 -5t15.5 -10t11 -14.5l271 -472l270 472q5 8 10 14.5t14 10t25.5 5t45.5 1.5q30 0 49 -2.5t27.5 -9.5t6.5 -20t-14 -35l-328 -557l342 -585q13 -21 15 -34 t-6.5 -20.5t-28.5 -10t-54 -2.5q-31 0 -48.5 1.5t-28 5.5t-15.5 9.5t-9 13.5l-281 503l-285 -503q-5 -9 -10.5 -14.5t-16 -9t-28 -5t-46.5 -1.5q-32 0 -50.5 2.5t-26 10t-5 20z" />
<glyph unicode="&#x426;" horiz-adv-x="1277" d="M168 68v1171q0 7 4 13t13.5 10t26.5 6t40 2q24 0 40.5 -2t26 -6t13.5 -10t4 -13v-1094h566v1094q0 7 4 13t14.5 10t26.5 6t40 2q23 0 39.5 -2t26 -6t13.5 -10t4 -13v-1094h128q20 0 28 -11.5t8 -36.5v-405q0 -8 -3 -12.5t-11 -7.5t-21.5 -5t-37.5 -2q-20 0 -33.5 2t-22 5 t-12 8t-3.5 12v308h-862q-27 0 -43.5 17t-16.5 51z" />
<glyph unicode="&#x427;" horiz-adv-x="1111" d="M113 880v359q0 7 4 13t13.5 9.5t25.5 6t39 2.5q24 0 40 -2.5t26.5 -6t14.5 -9.5t4 -13v-347q0 -59 13 -106t45 -80t87.5 -50.5t142.5 -17.5q54 0 105.5 4t101.5 8v589q0 7 4.5 13t15 9.5t27 6t38.5 2.5q24 0 40 -2.5t25.5 -6t13 -9.5t3.5 -13v-1215q0 -7 -3.5 -12.5 t-13 -9t-25 -6t-40.5 -2.5q-22 0 -38.5 2.5t-27 6t-15 9.5t-4.5 12v485q-57 -6 -110.5 -10.5t-108.5 -4.5q-94 0 -175 15t-140.5 57.5t-93.5 118t-34 195.5z" />
<glyph unicode="&#x428;" horiz-adv-x="1736" d="M168 68v1172q0 7 4.5 13t13.5 9.5t25.5 5.5t39.5 2q24 0 40 -2t25.5 -5.5t13.5 -9.5t4 -13v-1097h451v1097q0 7 4.5 13t13.5 9.5t25.5 5.5t39.5 2t39 -2t25.5 -5.5t14 -9.5t4.5 -13v-1097h451v1097q0 7 4 13t14 9.5t26 5.5t39 2t39.5 -2t26 -5.5t13.5 -9.5t4 -13v-1172 q0 -34 -15.5 -51t-42.5 -17h-1281q-27 0 -44 17t-17 51z" />
<glyph unicode="&#x429;" horiz-adv-x="1779" d="M168 68v1172q0 7 4.5 13t13.5 9.5t25.5 5.5t39.5 2q24 0 40 -2t25.5 -5.5t13.5 -9.5t4 -13v-1097h451v1097q0 7 4.5 13t13.5 9.5t25.5 5.5t39.5 2t39 -2t25.5 -5.5t14 -9.5t4.5 -13v-1097h451v1097q0 7 4 13t14 9.5t26 5.5t39 2t39.5 -2t26 -5.5t13.5 -9.5t4 -13v-1097 h129q21 0 29.5 -11t8.5 -36v-404q0 -8 -3 -13t-11 -8t-22 -4.5t-37 -1.5q-21 0 -34.5 2t-21.5 5t-11.5 8t-3.5 12v308h-1362q-26 0 -43.5 17t-17.5 51z" />
<glyph unicode="&#x42a;" horiz-adv-x="1229" d="M15 1192q0 40 8.5 56t24.5 16h398q25 0 45.5 -17t20.5 -56v-425h181q139 0 221.5 -23.5t140.5 -70t90.5 -116.5t32.5 -161q0 -77 -24 -146.5t-78.5 -125t-144 -89.5t-251.5 -34h-271q-12 0 -23 3.5t-20.5 11.5t-15.5 21.5t-6 31.5v1053h-296q-8 0 -14.5 3.5t-10 12.5 t-6 22t-2.5 33zM512 140h179q116 0 172.5 23.5t86 59t42 77.5t12.5 79q0 60 -17.5 105t-53.5 77t-90 49t-163 17h-168v-487z" />
<glyph unicode="&#x42b;" horiz-adv-x="1523" d="M168 68v1171q0 7 4.5 13t14.5 10t26 6t39 2q24 0 40.5 -2t26 -6t13.5 -10t4 -13v-477h175q136 0 217.5 -23t139 -69.5t90.5 -115.5t33 -160q0 -78 -25 -147t-78.5 -124t-143 -89t-247.5 -34h-264q-12 0 -23.5 3.5t-20 11.5t-15 21.5t-6.5 31.5zM336 138h172 q113 0 169 23.5t86 59t42 78t12 79.5q0 59 -17.5 103.5t-53 76.5t-89.5 49t-161 17h-160v-486zM1188 24v1215q0 7 4 13t14.5 10t26.5 6t38 2q23 0 40 -2t27 -6t13.5 -10t3.5 -13v-1215q0 -8 -3.5 -13t-13.5 -9t-26.5 -6t-40.5 -2t-39.5 2t-26 6t-14 9.5t-3.5 12.5z" />
<glyph unicode="&#x42c;" horiz-adv-x="1062" d="M168 68v1171q0 7 4.5 13t14.5 10t26 6t39 2q24 0 40.5 -2t26 -6t13.5 -10t4 -13v-473h190q139 0 221.5 -23.5t140.5 -70t90.5 -116t32.5 -161.5q0 -77 -24 -146.5t-78.5 -125t-144 -89.5t-251.5 -34h-280q-12 0 -23.5 3.5t-20 11.5t-15 21.5t-6.5 31.5zM336 140h187 q116 0 173 23.5t86.5 59t41.5 77.5t12 79q0 60 -17 105t-53 77t-90.5 49t-163.5 17h-176v-487z" />
<glyph unicode="&#x42d;" horiz-adv-x="1095" d="M91 180q0 29 6 44.5t21 15.5q11 0 33.5 -17.5t61.5 -39t98.5 -39t143.5 -17.5q85 0 151.5 29.5t113 87t71 142.5t26.5 199h-603q-8 0 -14 4t-10 12t-6 21.5t-2 30.5q0 20 2 33t6 21.5t10 13t14 4.5h601q-7 96 -34 172.5t-75 129.5t-116.5 81.5t-154.5 28.5 q-68 0 -121 -16.5t-91.5 -36t-62.5 -36t-34 -16.5q-6 0 -10.5 3t-8 10.5t-5 19.5t-1.5 32q0 19 1 32.5t3.5 23t6 17t11 14.5t36.5 24t73 33t101 28t122 12q130 0 232 -43.5t171.5 -125.5t105.5 -201.5t36 -270.5q0 -157 -34.5 -280t-104 -206.5t-171.5 -127.5t-238 -44 q-51 0 -102.5 8.5t-98 22.5t-82 32.5t-50 31.5t-18 20t-6 17.5t-3.5 26t-1 39.5z" />
<glyph unicode="&#x42e;" horiz-adv-x="1757" d="M168 24v1215q0 7 4.5 13t14.5 10t26 6t39 2q24 0 40.5 -2t26 -6t13.5 -10t4 -13v-511h237q11 125 49.5 227.5t106 174.5t165.5 112t228 40q133 0 233.5 -42.5t168.5 -124t102.5 -201t34.5 -272.5q0 -154 -34.5 -277t-104.5 -208t-174.5 -130.5t-243.5 -45.5 q-133 0 -232.5 43t-165 122.5t-99.5 190.5t-37 248h-234v-561q0 -8 -4 -13t-13.5 -9t-26 -6t-40.5 -2q-23 0 -40 2t-26.5 6t-13.5 9.5t-4 12.5zM741 635q0 -65 7 -128.5t24 -120t44.5 -104t69 -82t97.5 -54t130 -19.5q105 0 176.5 40t114.5 109t61 160t18 194 q0 107 -18.5 200t-62 162t-114 108t-175.5 39q-108 0 -180 -41.5t-114.5 -111t-60 -160.5t-17.5 -191z" />
<glyph unicode="&#x42f;" horiz-adv-x="1110" d="M81 25q0 10 3 23.5t15 42.5l103 268q19 49 39.5 88t44 69t50.5 51t60 34q-59 15 -105.5 40.5t-78.5 64t-49 88.5t-17 110q0 78 26 144t80 114t135.5 75t230.5 27h262q23 0 42.5 -15.5t19.5 -53.5v-1171q0 -8 -3.5 -13t-13.5 -9t-26 -6t-41 -2q-24 0 -40 2t-25.5 6 t-14 9.5t-4.5 12.5v528h-126q-76 0 -116.5 -15.5t-70 -45.5t-50.5 -72t-41 -94l-108 -291q-5 -12 -10.5 -19.5t-16 -12t-27 -6.5t-41.5 -2q-28 0 -45 2.5t-26 6.5t-12 9.5t-3 12.5zM321 910q0 -46 15.5 -86t47.5 -70t83.5 -47.5t141.5 -17.5h165v436h-160q-100 0 -150.5 -16 t-82 -45t-46 -68.5t-14.5 -85.5z" />
<glyph unicode="&#x430;" horiz-adv-x="958" d="M90 249q0 74 30 129t87 91t139 54t184 18h121v68q0 51 -10.5 90t-34.5 65t-62 39t-94 13q-60 0 -107 -14t-82.5 -31t-59.5 -31t-36 -14q-8 0 -13.5 3.5t-10 11.5t-6.5 20t-2 27q0 24 3.5 38.5t16.5 27t45 29.5t74 31.5t92 23.5t101 9q95 0 161 -21.5t107 -63t60 -103 t19 -143.5v-593q0 -12 -8 -17.5t-21.5 -8.5t-40.5 -3q-25 0 -40 3t-22 9t-7 17v88q-58 -62 -128.5 -96t-149.5 -34q-69 0 -125.5 18.5t-96 52.5t-61.5 84t-22 113zM255 257q0 -68 43.5 -109t121.5 -41q63 0 117.5 32.5t113.5 98.5v187h-137q-66 0 -115 -11.5t-81.5 -33.5 t-47.5 -52.5t-15 -70.5z" />
<glyph unicode="&#x431;" horiz-adv-x="1065" d="M0 929zM108 542q0 120 11.5 221t32 181.5t49 137.5t58 90t58.5 53t64 37t79.5 30t100.5 22l313 52q17 3 27.5 2.5t16.5 -7.5t8 -24t2 -46q0 -20 -2 -33.5t-7 -22t-14.5 -13.5t-25.5 -8l-292 -49q-44 -7 -77 -15.5t-59 -19.5t-45.5 -24t-39 -33.5t-36 -51t-27.5 -69 t-18.5 -84t-13.5 -97.5q32 34 68 62t76 47.5t84.5 30t94.5 10.5q95 0 165.5 -32t117 -90.5t69.5 -140t23 -180.5q0 -110 -30.5 -201t-88 -157t-140 -102.5t-186.5 -36.5q-107 0 -185.5 35t-130 104.5t-76 174.5t-24.5 247zM277 544q0 -105 13.5 -185.5t43.5 -134t80 -81 t122 -27.5q63 0 113 25t84 70t51.5 109.5t17.5 143.5q0 64 -12.5 123t-39 103t-72 71t-112.5 27q-41 0 -76.5 -10t-69.5 -31t-68.5 -52t-73.5 -73q-1 -16 -1 -36.5v-41.5z" />
<glyph unicode="&#x432;" horiz-adv-x="958" d="M149 87v757q0 40 18.5 61.5t55.5 25.5q25 3 54 5t59 3t62.5 2t65.5 1q95 0 164 -15.5t115 -45.5t68 -74t22 -101q0 -74 -39.5 -127t-116.5 -75q97 -21 145.5 -79.5t48.5 -147.5q0 -69 -26.5 -123t-78 -91t-128.5 -56t-180 -19q-32 0 -62.5 0.5t-58.5 2t-56 3.5t-55 5 q-39 5 -58 26t-19 62zM306 120q19 -3 38.5 -4.5t40.5 -3t42 -2.5t39 -1q63 0 108 11.5t75 33t43.5 52t13.5 68.5q0 39 -13.5 69t-43.5 49.5t-76.5 29.5t-109.5 10h-157v-312zM306 540h164q101 0 154 38t53 108q0 32 -12 57.5t-38.5 43t-69 26t-103.5 8.5q-46 0 -84 -2.5 t-64 -5.5v-273z" />
<glyph unicode="&#x433;" horiz-adv-x="691" d="M149 24v847q0 29 13.5 43.5t36.5 14.5h443q8 0 13 -4.5t9.5 -14t7 -22.5t2.5 -32q0 -20 -2.5 -33t-7 -22t-10 -13t-12.5 -4h-331v-760q0 -8 -4 -13t-13 -9t-24.5 -6t-40.5 -2q-23 0 -38.5 2t-25 6t-13 9.5t-3.5 12.5z" />
<glyph unicode="&#x434;" horiz-adv-x="1116" d="M22 97q0 24 8 32t31 8h62q36 44 67.5 100.5t58 142t49 205.5t41.5 287q2 14 5.5 25t9.5 17.5t15 10.5t21 4h488q23 0 36.5 -14.5t13.5 -43.5v-734h122q21 0 29.5 -8t8.5 -32v-392q0 -7 -3 -11.5t-11.5 -7t-22 -4.5t-31.5 -2q-20 0 -32.5 2t-21 4.5t-12 7t-3.5 11.5v295 h-792v-295q0 -7 -3 -11.5t-11 -7t-21 -4.5t-31 -2q-21 0 -34 2t-21.5 4.5t-12 7t-3.5 11.5v392zM289 137h477v659h-279q-21 -159 -42.5 -268.5t-46.5 -184.5t-52.5 -122.5t-56.5 -83.5z" />
<glyph unicode="&#x435;" horiz-adv-x="995" d="M91 460q0 113 29 203.5t84.5 153.5t133.5 96.5t175 33.5q104 0 176.5 -33t119 -89t68.5 -132t22 -162v-29q0 -38 -19 -54t-43 -16h-576q0 -73 14.5 -132t48.5 -101t89 -64.5t134 -22.5q62 0 111 10.5t84.5 23t58.5 23t35 10.5q7 0 12.5 -3.5t8 -10.5t4 -19t1.5 -30 q0 -13 -1 -22t-2.5 -16.5t-4.5 -13t-8.5 -11t-32 -18t-68.5 -24t-97 -21t-118 -9.5q-108 0 -189.5 30.5t-137.5 90t-84 149.5t-28 209zM261 550h476q3 127 -56 199t-175 72q-60 0 -105 -22.5t-75 -59.5t-46.5 -86t-18.5 -103z" />
<glyph unicode="&#x436;" horiz-adv-x="1377" d="M61 18q0 6 2 15t9 24l97 221q19 44 40 77.5t45 58t52 41.5t61 27v2q-23 8 -46 20.5t-45.5 34.5t-44 55t-42.5 82l-81 194q-5 13 -7.5 22.5t-2.5 18.5q0 5 3 9.5t11.5 7.5t23.5 4.5t39 1.5q26 0 43.5 -1.5t28.5 -5.5t16.5 -10t7.5 -14l77 -203q17 -42 34.5 -72t41 -49 t52.5 -27.5t67 -8.5h65v369q0 5 5 9.5t15 7t25.5 4t35.5 1.5q21 0 36 -1.5t25 -4t15 -7t5 -9.5v-369h65q38 0 67.5 9t53 28t43 48.5t35.5 71.5l82 203q4 8 8.5 14t13.5 10t25.5 5.5t42.5 1.5q23 0 38.5 -1.5t23.5 -4.5t11.5 -7.5t3.5 -9.5q0 -9 -3 -18.5t-8 -22.5l-84 -194 q-21 -49 -42.5 -81.5t-44 -54t-44.5 -34.5t-44 -20v-2q33 -12 61 -28.5t51.5 -41t44 -58.5t40.5 -78l96 -221q3 -7 5 -13t3 -11.5t2 -8.5t1 -6q0 -6 -3.5 -10.5t-13 -7.5t-24.5 -4.5t-39 -1.5q-27 0 -44 2t-27.5 5.5t-15 9t-7.5 11.5l-94 227q-19 44 -39 75.5t-44.5 51.5 t-56 29t-74.5 9h-65v-397q0 -5 -5 -9.5t-15 -7.5t-25 -4.5t-36 -1.5t-36 1.5t-25 4.5t-15 7.5t-5 9.5v397h-65q-43 0 -75 -9t-57.5 -29t-45.5 -51.5t-39 -75.5l-94 -227q-2 -7 -7 -12t-14.5 -8.5t-26.5 -5.5t-43 -2q-22 0 -38 1.5t-25.5 4.5t-13 7.5t-3.5 10.5z" />
<glyph unicode="&#x437;" horiz-adv-x="845" d="M73 138q0 16 2 26.5t5 17t7 10t11 3.5q11 0 29.5 -13t51 -29t80 -30t116.5 -14q49 0 88 10.5t66.5 30.5t42.5 50t15 71q0 34 -14.5 61t-46 46t-80.5 30t-118 11h-98q-10 0 -15.5 3.5t-10 10.5t-6 19.5t-1.5 28.5t2 28t6 18.5t10 10t14 3.5h95q62 0 106.5 10t74 29 t43.5 46.5t14 63.5q0 32 -13.5 56.5t-36.5 41t-56 24.5t-71 8q-60 0 -106.5 -13.5t-80 -29.5t-55 -29.5t-30.5 -13.5q-5 0 -9 2.5t-7.5 9t-5 17.5t-1.5 27q0 28 4.5 45t16 28.5t41 27t69 28t86 20.5t94.5 8q71 0 131 -15t102.5 -46t66 -76t23.5 -106q0 -36 -12 -68.5 t-34 -60t-54 -49t-71 -33.5l-2 -1q38 -4 75 -22t66.5 -46.5t47.5 -68t18 -87.5q0 -66 -26.5 -119t-76 -90.5t-120.5 -57.5t-162 -20q-51 0 -95.5 7.5t-81 19t-61.5 24.5t-35 21.5t-15 16t-7 16.5t-3.5 21.5t-1.5 30.5z" />
<glyph unicode="&#x438;" horiz-adv-x="1081" d="M149 23v881q0 7 3.5 13t13 10t25 5.5t38.5 1.5q47 0 64.5 -7.5t17.5 -22.5v-508q0 -38 -2 -76t-5 -75q22 37 45 73t49 70l378 516q6 8 12.5 14t15.5 9.5t22 5t33 1.5q21 0 35 -1.5t22.5 -5.5t12 -10t3.5 -14v-880q0 -7 -4 -12.5t-13 -9t-24.5 -5.5t-38.5 -2t-39 2 t-26 5.5t-13.5 9.5t-3.5 12v506q0 38 1.5 77.5t4.5 78.5q-22 -39 -49 -77t-54 -75l-373 -510q-7 -8 -12.5 -13.5t-13.5 -9t-21 -5t-31 -1.5q-21 0 -35 2t-22.5 5.5t-12 9.5t-3.5 12z" />
<glyph unicode="&#x439;" horiz-adv-x="1081" d="M117 929zM149 23v881q0 7 3.5 13t13 10t25 5.5t38.5 1.5q47 0 64.5 -7.5t17.5 -22.5v-508q0 -38 -2 -76t-5 -75q22 37 45 73t49 70l378 516q6 8 12.5 14t15.5 9.5t22 5t33 1.5q21 0 35 -1.5t22.5 -5.5t12 -10t3.5 -14v-880q0 -7 -4 -12.5t-13 -9t-24.5 -5.5t-38.5 -2 t-39 2t-26 5.5t-13.5 9.5t-3.5 12v506q0 38 1.5 77.5t4.5 78.5q-22 -39 -49 -77t-54 -75l-373 -510q-7 -8 -12.5 -13.5t-13.5 -9t-21 -5t-31 -1.5q-21 0 -35 2t-22.5 5.5t-12 9.5t-3.5 12zM246 1318q0 10 3.5 17t12.5 11t24.5 6t36.5 2q23 0 37 -2.5t21 -7.5t10 -13 q2 -9 2 -19q0 -31 10 -57t30 -46t48.5 -30.5t65.5 -10.5q36 0 63.5 10.5t47.5 30.5t29.5 47t9.5 58q0 10 2.5 17.5t10 12.5t20.5 7.5t35 2.5q23 0 38.5 -2t25 -6t13.5 -11t4 -17q0 -56 -17 -104.5t-53 -85t-92.5 -57.5t-137.5 -21q-74 0 -130.5 18.5t-94 53t-56.5 84.5 t-19 112z" />
<glyph unicode="&#x43a;" horiz-adv-x="927" d="M149 19v892q0 5 4.5 9.5t14.5 7.5t25.5 4.5t35.5 1.5q21 0 36.5 -1.5t25.5 -4.5t15 -7.5t5 -9.5v-368h68q37 0 68 8.5t56 27.5t45 49t37 73l82 202q2 8 7 14t14.5 10t25.5 5.5t43 1.5q23 0 38.5 -1.5t23.5 -4.5t11 -7.5t3 -9.5q0 -9 -2.5 -18.5t-7.5 -22.5l-84 -193 q-20 -49 -42.5 -82t-46 -55t-48 -34.5t-46.5 -19.5v-2q34 -12 62.5 -28.5t53.5 -40.5t46.5 -58t40.5 -78l96 -222q4 -7 6 -13t3 -11.5t1.5 -8.5t0.5 -6q0 -6 -3.5 -10.5t-12.5 -7.5t-24 -4.5t-39 -1.5q-27 0 -44 2t-28 5.5t-16 9t-7 11.5l-93 228q-18 44 -38 75.5t-46.5 51 t-59.5 28.5t-76 9h-68v-395q0 -5 -5 -10t-15 -8t-25.5 -5t-36.5 -2t-36 2t-25 5t-14.5 8t-4.5 10z" />
<glyph unicode="&#x43b;" horiz-adv-x="1020" d="M21 56q0 23 1.5 37.5t5 23.5t9 12t13.5 3q32 0 61.5 15t54.5 49.5t47.5 91t41 138.5t35.5 192t31 252q2 29 14.5 43.5t34.5 14.5h451q23 0 36.5 -14.5t13.5 -43.5v-846q0 -8 -4 -13t-12.5 -9t-24.5 -6t-39 -2q-24 0 -40 2t-25 6t-13 9.5t-4 12.5v768h-242 q-16 -155 -38 -276t-49 -211t-61.5 -151.5t-75 -99t-88 -54.5t-100.5 -17q-9 0 -15.5 3t-10.5 11t-6 22t-2 37z" />
<glyph unicode="&#x43c;" horiz-adv-x="1352" d="M95 15q-2 7 0 18l96 832q5 31 22 47.5t52 16.5h77q28 0 48 -4.5t34 -15.5t24 -29t19 -45l130 -374q11 -34 22.5 -69t21.5 -68.5t19.5 -65.5t17.5 -62h2q9 30 18 64t20 68.5l22 69t22 65.5l130 372q8 24 17 42.5t22.5 29.5t32.5 16.5t47 5.5h76q35 0 53 -15t21 -47 l98 -834q1 -21 -14 -30t-59 -9q-24 0 -40 1t-25 4t-12.5 8.5t-4.5 13.5l-63 513q-3 27 -6 58.5t-6 63.5t-5.5 64.5t-4.5 60.5l-1 23q-9 -28 -19 -59.5t-21 -64t-21.5 -64.5t-18.5 -60l-185 -521q-4 -12 -9.5 -19.5t-14.5 -12.5t-23.5 -7t-34.5 -2q-21 0 -34.5 2t-23 6.5 t-15 12t-9.5 19.5l-178 522q-10 27 -20 58.5t-20.5 64t-20 64.5t-16.5 61l-1 -23q-3 -28 -6 -60.5t-6.5 -64.5t-6.5 -63t-5 -59l-61 -504q-1 -12 -4.5 -19t-13 -10.5t-25.5 -5t-41 -1.5q-24 0 -38.5 2t-21.5 7t-9 12z" />
<glyph unicode="&#x43d;" horiz-adv-x="1069" d="M149 24v879q0 8 3.5 13.5t13 10t25 6t38.5 1.5q24 0 40 -1.5t25 -6t13 -10t4 -13.5v-357h448v357q0 8 4 13.5t12.5 10t24 6t40.5 1.5q23 0 39 -1.5t24.5 -6t12.5 -10t4 -13.5v-879q0 -8 -4 -13t-12.5 -9t-24.5 -6t-39 -2q-24 0 -40 2t-24.5 6t-12.5 9.5t-4 12.5v386h-448 v-386q0 -8 -4 -13t-13 -9t-24.5 -6t-40.5 -2q-23 0 -38.5 2t-25 6t-13 9.5t-3.5 12.5z" />
<glyph unicode="&#x43e;" horiz-adv-x="1054" d="M88 456q0 107 28 197.5t84 156t140 101.5t196 36q108 0 189 -32t134.5 -93.5t80.5 -149.5t27 -198q0 -107 -28.5 -197.5t-84.5 -156t-140.5 -102.5t-195.5 -37q-108 0 -189 32.5t-134.5 94t-80 149.5t-26.5 199zM257 467q0 -72 13 -135.5t44 -111t82.5 -75.5t128.5 -28 q70 0 122 25.5t85.5 71.5t49 109.5t15.5 139.5q0 71 -13 134.5t-43.5 111.5t-82.5 75.5t-129 27.5q-71 0 -122.5 -25t-84.5 -71.5t-49 -110t-16 -138.5z" />
<glyph unicode="&#x43f;" horiz-adv-x="1041" d="M149 24v847q0 29 13.5 43.5t36.5 14.5h644q23 0 36 -14.5t13 -43.5v-847q0 -8 -4 -13t-13 -9t-24.5 -6t-38.5 -2q-24 0 -40 2t-25.5 6t-13.5 9.5t-4 12.5v768h-418v-768q0 -8 -4 -13t-13.5 -9t-25 -6t-39.5 -2q-23 0 -38.5 2t-25 6t-13 9.5t-3.5 12.5z" />
<glyph unicode="&#x440;" horiz-adv-x="1050" d="M149 -324v1227q0 9 3 14.5t12 9.5t22.5 5.5t33.5 1.5q21 0 34 -1.5t21.5 -5.5t12 -9.5t3.5 -14.5v-118q40 41 77 71.5t74.5 50.5t77.5 30t84 10q96 0 163 -37t109.5 -101.5t62 -149.5t19.5 -181q0 -115 -25 -207t-73 -156t-119.5 -99t-163.5 -35q-39 0 -72 8t-65 24.5 t-63 42t-66 59.5v-439q0 -8 -4 -14t-13 -10t-24.5 -5.5t-40.5 -1.5q-23 0 -38.5 1.5t-25 5.5t-13 10t-3.5 14zM311 287q66 -81 125.5 -124t125.5 -43q61 0 104 29.5t70 78t39.5 109t12.5 122.5q0 67 -10 130t-35 112t-67 78.5t-105 29.5q-31 0 -61.5 -9.5t-61.5 -29.5 t-65 -52.5t-72 -80.5v-350z" />
<glyph unicode="&#x441;" horiz-adv-x="845" d="M88 453q0 130 31.5 223.5t87 153t130 88t161.5 28.5q42 0 81.5 -7.5t73 -20.5t59 -29.5t37.5 -28t16.5 -18.5t7 -16.5t3.5 -21t1 -29.5q0 -38 -8.5 -53t-21.5 -15q-15 0 -34 16t-48 35.5t-70.5 36t-98.5 16.5q-116 0 -178 -89.5t-62 -259.5q0 -85 16 -149t47.5 -107 t76.5 -64t104 -21q56 0 98 17.5t72.5 38.5t51.5 38t33 17q7 0 11.5 -3.5t8 -13t5 -23.5t1.5 -34q0 -17 -1 -29t-3.5 -20t-5.5 -14.5t-15.5 -19t-41.5 -30.5t-66 -32t-80 -23t-89 -9q-95 0 -168 31.5t-122 91.5t-75 147.5t-26 201.5z" />
<glyph unicode="&#x442;" horiz-adv-x="774" d="M10 856q0 18 2.5 31.5t6.5 23t10 14t14 4.5h688q8 0 14.5 -4.5t10.5 -14t6.5 -23.5t2.5 -32q0 -20 -2 -33t-6.5 -22t-10.5 -13.5t-15 -4.5h-263v-758q0 -8 -4 -13t-13 -9t-24.5 -6t-39.5 -2q-23 0 -39 2t-25.5 6t-12.5 9.5t-3 12.5v758h-264q-8 0 -14.5 4.5t-10 13.5 t-6 23t-2.5 33z" />
<glyph unicode="&#x443;" horiz-adv-x="905" d="M33 903.5q0 11.5 8 18.5t25.5 9.5t46.5 2.5t46 -1.5t26.5 -5.5t14 -11.5t9.5 -19.5l251 -706h3l242 709q6 19 14.5 24.5t25 8t47.5 2.5q27 0 44.5 -2.5t26 -9.5t8.5 -18.5t-6 -29.5l-315 -874l-117 -323q-6 -16 -30 -24t-73 -8q-25 0 -41 2t-24 8t-9 16t5 23l121 306 q-9 4 -17 12.5t-11 18.5l-313 840q-8 21 -8 32.5z" />
<glyph unicode="&#x444;" horiz-adv-x="1248" d="M79 457q0 104 30.5 190.5t89.5 151t146 103t198 45.5v371q0 7 4 13t13 10t25 6t39 2t39 -2t24.5 -6t12.5 -10t4 -13v-371q116 -6 203 -41t145 -96t87.5 -147t29.5 -191q0 -104 -30.5 -191t-89.5 -151.5t-146 -103.5t-199 -45v-305q0 -8 -4 -14t-12.5 -10t-24.5 -5.5 t-39 -1.5t-39 1.5t-25 5.5t-13 10t-4 14v305q-114 5 -201 40t-145.5 96t-88 147t-29.5 193zM246 467q0 -77 16 -139t52 -106.5t92.5 -71.5t136.5 -34v696q-145 -8 -221 -94.5t-76 -250.5zM704 116q146 9 222 96t76 249q0 159 -70 248t-228 103v-696z" />
<glyph unicode="&#x445;" horiz-adv-x="866" d="M40.5 20q0.5 9 9.5 23l273 429l-259 413q-8 14 -8 23t9 15.5t28 8.5t51 2q28 0 45 -1.5t27 -4.5t14.5 -8t8.5 -12l200 -327l204 327q4 6 8.5 11t13 8.5t23.5 5t41 1.5q28 0 46.5 -2t27.5 -7.5t8 -15.5t-10 -24l-257 -408l271 -434q8 -14 8 -23t-9 -15t-28 -8.5t-50 -2.5 q-29 0 -46 1.5t-27.5 5t-15.5 9t-9 11.5l-211 349l-210 -349q-4 -7 -9.5 -12t-15.5 -8.5t-27 -5t-44 -1.5q-28 0 -46 2.5t-26.5 8.5t-8 15z" />
<glyph unicode="&#x446;" horiz-adv-x="1083" d="M149 57v846q0 8 3.5 13.5t13 10t25 6t38.5 1.5q24 0 40 -1.5t25 -6t13 -10t4 -13.5v-764h420v764q0 8 4 13.5t13.5 10t25.5 5.5q14 2 38 2t40 -1.5t25 -6t13 -10t4 -13.5v-764h122q23 0 31 -9t8 -31v-398q-1 -11 -17.5 -16t-50.5 -5q-36 0 -52.5 5.5t-16.5 15.5v299h-719 q-23 0 -36.5 14t-13.5 43z" />
<glyph unicode="&#x447;" horiz-adv-x="937" d="M64 653v250q0 8 3.5 13.5t13.5 10t25 6t39 1.5t39.5 -1.5t24.5 -6t13.5 -10t4.5 -13.5v-224q0 -79 11.5 -118.5t34 -62t55 -32t76.5 -9.5q58 0 113 14.5t110 42.5v389q0 8 3.5 13.5t12.5 10t25.5 6t39.5 1.5t39 -1.5t24.5 -6t12.5 -10t4 -13.5v-879q0 -8 -4 -13t-12.5 -9 t-24.5 -6t-39 -2t-39.5 2t-25.5 6t-12.5 9.5t-3.5 12.5v354q-55 -24 -116 -38.5t-132 -14.5q-91 0 -151.5 23.5t-96.5 64.5t-51.5 97.5t-15.5 142.5z" />
<glyph unicode="&#x448;" horiz-adv-x="1457" d="M149 57v846q0 8 3.5 13.5t13.5 10t25.5 6t38.5 1.5t39 -1.5t25 -6t13 -10t4 -13.5v-764h338v764q0 8 3.5 13.5t12.5 10t23.5 6t39.5 1.5q22 0 37.5 -1.5t24.5 -6t13 -10t4 -13.5v-764h339v764q0 8 3.5 13.5t13 10t24.5 6t39 1.5t39.5 -1.5t25 -6t13.5 -10t4 -13.5v-846 q0 -28 -14 -42.5t-36 -14.5h-1059q-23 0 -36.5 14t-13.5 43z" />
<glyph unicode="&#x449;" horiz-adv-x="1498" d="M149 57v846q0 8 3.5 13.5t13.5 10t25.5 6t38.5 1.5t39 -1.5t25 -6t13 -10t4 -13.5v-764h338v764q0 8 3.5 13.5t12.5 10t24 6t39 1.5q23 0 38 -1.5t24 -6t13 -10t4 -13.5v-764h339v764q0 8 3.5 13.5t13 10t24.5 6t39 1.5t39.5 -1.5t25 -6t13.5 -10t4 -13.5v-764h119 q22 0 32 -9t8 -31v-398q0 -6 -3.5 -9.5t-12 -6t-20.5 -4t-30 -1.5q-19 0 -32.5 1.5t-21.5 4t-11.5 6t-3.5 8.5v300h-1132q-24 0 -37.5 14t-13.5 43z" />
<glyph unicode="&#x44a;" horiz-adv-x="1072" d="M10 857q0 38 8.5 55t24.5 17h363q21 0 33.5 -12.5t12.5 -38.5v-284q36 3 75 4.5t84 1.5q106 0 182 -21t124.5 -60.5t71.5 -93.5t23 -121t-24.5 -126t-76.5 -102t-133 -68t-195 -25q-26 0 -53.5 0.5t-54.5 2t-53 3.5t-51 5q-41 5 -61 26.5t-20 65.5v697h-247q-8 0 -14 4 t-10 13.5t-6.5 23t-2.5 33.5zM452 124q34 -4 70.5 -7t84.5 -3q121 0 178 47.5t57 131.5q0 40 -13 72.5t-41 55.5t-74.5 35.5t-113.5 12.5q-41 0 -79 -2t-69 -5v-338z" />
<glyph unicode="&#x44b;" horiz-adv-x="1332" d="M149 86v817q0 8 3.5 13.5t13 10t24.5 6t38 1.5q47 0 65 -7.5t18 -23.5v-309q36 3 72.5 4.5t79.5 1.5q104 0 178.5 -21t122.5 -60.5t70.5 -93.5t22.5 -121t-23.5 -126t-75 -102t-131.5 -68t-192 -25q-26 0 -53 0.5t-52 2t-50 3.5t-51 5q-41 5 -60.5 26.5t-19.5 65.5z M311 124q34 -4 67 -7t81 -3q119 0 174.5 47.5t55.5 131.5q0 40 -12 72.5t-40 55.5t-73.5 35.5t-112.5 12.5q-40 0 -74 -2t-66 -5v-338zM1021 24v879q0 8 3.5 13.5t13 10t25 6t39.5 1.5t39.5 -1.5t24.5 -6t13 -10t4 -13.5v-879q0 -8 -4 -13t-13 -9t-24.5 -6t-39.5 -2 q-23 0 -39 2t-25.5 6t-13 9.5t-3.5 12.5z" />
<glyph unicode="&#x44c;" horiz-adv-x="939" d="M149 86v817q0 8 3.5 13.5t13 10t25 6t38.5 1.5t39 -1.5t25.5 -6t13.5 -10t4 -13.5v-309q36 3 78 4.5t86 1.5q106 0 182.5 -21t125.5 -60.5t72.5 -93.5t23.5 -121t-25 -126t-77.5 -102t-134.5 -68t-197 -25q-26 0 -54.5 0.5t-55.5 2t-53.5 3.5t-52.5 5q-41 5 -60.5 26.5 t-19.5 65.5zM311 124q34 -4 73 -7t87 -3q121 0 179.5 47.5t58.5 131.5q0 40 -12.5 72.5t-42 55.5t-76.5 35.5t-115 12.5q-41 0 -80.5 -2t-71.5 -5v-338z" />
<glyph unicode="&#x44d;" horiz-adv-x="885" d="M75 146q0 37 7.5 50t19.5 13q11 0 28.5 -15.5t49 -33.5t79 -34t116.5 -16q116 0 184 76t75 230h-443q-14 0 -21.5 14t-7.5 47q0 32 8 46t21 14h442q-6 64 -25.5 116t-53.5 88.5t-81.5 56.5t-108.5 20q-58 0 -101 -16t-74.5 -35t-50.5 -35t-29 -16q-6 0 -10 3.5t-7.5 10 t-5 19.5t-1.5 31q0 17 1.5 28t3.5 19t5 13.5t10.5 12.5t31.5 23.5t60.5 32t85.5 27t107 11.5q90 0 165 -30.5t129 -89.5t84 -145.5t30 -196.5q0 -120 -27.5 -213.5t-80 -158t-132 -98.5t-181.5 -34q-53 0 -99 8.5t-81.5 21t-60.5 28.5t-35 25t-14.5 15t-7 15t-3.5 21t-1 31z " />
<glyph unicode="&#x44e;" horiz-adv-x="1443" d="M149 24v879q0 8 3.5 13.5t13 10t25 6t38.5 1.5q24 0 40 -1.5t25 -6t13 -10t4 -13.5v-361h199q9 90 39.5 164t84 128t129.5 83.5t175 29.5q105 0 183.5 -33t130.5 -94.5t77.5 -149t25.5 -194.5t-28.5 -198t-83.5 -156.5t-135.5 -103t-182.5 -37.5q-105 0 -181.5 29 t-128 84.5t-78 136.5t-31.5 183h-195v-390q0 -8 -4 -13t-13 -9t-24.5 -6t-40.5 -2q-23 0 -38.5 2t-25 6t-13 9.5t-3.5 12.5zM670 468q0 -74 11.5 -138t40.5 -111.5t78 -74.5t125 -27q63 0 112 22.5t82 66t50.5 109t17.5 150.5q0 69 -12 132t-41 111t-78 76t-124 28 q-67 0 -117 -26t-82.5 -72t-47.5 -109.5t-15 -136.5z" />
<glyph unicode="&#x44f;" horiz-adv-x="948" d="M55 20q0 7 5 22t22 53l70 165q27 62 67.5 107.5t92.5 67.5q-95 18 -151.5 75.5t-56.5 153.5q0 63 26.5 114.5t78 87t126 54.5t171.5 19q23 0 54 -0.5t63.5 -2.5t63.5 -4.5t53 -4.5q29 -3 44 -21.5t15 -46.5v-835q0 -8 -3.5 -13.5t-12.5 -9t-24.5 -5.5t-40.5 -2 q-23 0 -39 2t-25 5.5t-12.5 9.5t-3.5 13v371h-93q-61 0 -94.5 -10t-60.5 -33t-48.5 -58.5t-40.5 -87.5l-72 -172q-5 -13 -10.5 -20.5t-17 -12t-28.5 -6t-42 -1.5q-19 0 -33 1t-24 3.5t-14.5 8t-4.5 13.5zM266 662q0 -35 13 -63t40 -47t69 -29t117 -10h133v297q-35 5 -72.5 6 t-68.5 1q-66 0 -110.5 -11t-71.5 -32t-38 -49.5t-11 -62.5z" />
<glyph unicode="&#x450;" horiz-adv-x="995" d="M91 460q0 113 29 203.5t84.5 153.5t133.5 96.5t175 33.5q104 0 176.5 -33t119 -89t68.5 -132t22 -162v-29q0 -38 -19 -54t-43 -16h-576q0 -73 14.5 -132t48.5 -101t89 -64.5t134 -22.5q62 0 111 10.5t84.5 23t58.5 23t35 10.5q7 0 12.5 -3.5t8 -10.5t4 -19t1.5 -30 q0 -13 -1 -22t-2.5 -16.5t-4.5 -13t-8.5 -11t-32 -18t-68.5 -24t-97 -21t-118 -9.5q-108 0 -189.5 30.5t-137.5 90t-84 149.5t-28 209zM133 929zM261 550h476q3 127 -56 199t-175 72q-60 0 -105 -22.5t-75 -59.5t-46.5 -86t-18.5 -103zM262 1341.5q-1 8.5 6 14.5t24 9.5 t44 3.5q23 0 39.5 -2t27 -6t18.5 -10.5t16 -17.5l140 -226q7 -11 9 -18.5t-3.5 -12.5t-17.5 -8t-34 -3q-20 0 -32 1.5t-21.5 5t-16.5 9.5t-14 16l-176 227q-8 9 -9 17.5z" />
<glyph unicode="&#x451;" horiz-adv-x="995" d="M91 460q0 113 29 203.5t84.5 153.5t133.5 96.5t175 33.5q104 0 176.5 -33t119 -89t68.5 -132t22 -162v-29q0 -38 -19 -54t-43 -16h-576q0 -73 14.5 -132t48.5 -101t89 -64.5t134 -22.5q62 0 111 10.5t84.5 23t58.5 23t35 10.5q7 0 12.5 -3.5t8 -10.5t4 -19t1.5 -30 q0 -13 -1 -22t-2.5 -16.5t-4.5 -13t-8.5 -11t-32 -18t-68.5 -24t-97 -21t-118 -9.5q-108 0 -189.5 30.5t-137.5 90t-84 149.5t-28 209zM114 929zM243 1186q0 55 19 74t72 19q54 0 72.5 -19.5t18.5 -71.5q0 -54 -20 -73t-72 -19q-53 0 -71.5 19t-18.5 71zM261 550h476 q3 127 -56 199t-175 72q-60 0 -105 -22.5t-75 -59.5t-46.5 -86t-18.5 -103zM589 1186q0 55 19 74t71 19q54 0 72.5 -19.5t18.5 -71.5q0 -54 -19.5 -73t-72.5 -19t-71 19t-18 71z" />
<glyph unicode="&#x452;" horiz-adv-x="1081" d="M-7 1141q0 17 2.5 29t7 19.5t10.5 11t13 3.5h138v126q0 8 3.5 14t12.5 9.5t25 5.5t39 2q24 0 40 -2t24.5 -5.5t12.5 -9.5t4 -14v-126h234q8 0 13.5 -3.5t10 -11t6.5 -20t2 -28.5q0 -33 -8.5 -48.5t-23.5 -15.5h-234v-292q60 65 128 104.5t151 39.5q80 0 142.5 -34 t106 -102.5t66.5 -175.5t23 -253q0 -142 -12.5 -250.5t-37 -188.5t-59 -134.5t-79.5 -86.5t-99.5 -46t-117.5 -14q-9 0 -15 2.5t-10 10.5t-5.5 20.5t-1.5 34.5t1.5 37t4.5 23t8 11t13 3q39 0 73 8t60.5 29.5t48 60.5t36 101.5t21.5 151.5t7 211q0 116 -13 199.5t-39.5 137.5 t-64.5 79t-88 25q-63 0 -122 -42t-126 -124v-599q0 -8 -4 -13t-12.5 -9t-24 -6t-40.5 -2q-23 0 -39 2t-25 6t-12.5 9.5t-3.5 12.5v1053h-138q-16 0 -24.5 15t-8.5 49z" />
<glyph unicode="&#x453;" horiz-adv-x="691" d="M149 24v847q0 29 13.5 43.5t36.5 14.5h443q8 0 13 -4.5t9.5 -14t7 -22.5t2.5 -32q0 -20 -2.5 -33t-7 -22t-10 -13t-12.5 -4h-331v-760q0 -8 -4 -13t-13 -9t-24.5 -6t-40.5 -2q-23 0 -38.5 2t-25 6t-13 9.5t-3.5 12.5zM164 929zM293.5 1089q1.5 8 8.5 18l141 226 q6 11 14 17.5t19 10.5t27.5 6t40.5 2q27 0 44 -3.5t24 -9.5t6 -14.5t-9 -17.5l-176 -227q-8 -10 -14.5 -16t-15 -9.5t-21.5 -5t-32 -1.5q-21 0 -34 3t-18.5 8t-4 13z" />
<glyph unicode="&#x454;" horiz-adv-x="887" d="M91 459q0 108 27.5 198t81.5 154.5t135.5 100t190.5 35.5q44 0 84.5 -8.5t75 -22t60.5 -29.5t35.5 -25.5t13.5 -16.5t6.5 -16t4 -22t1.5 -30q0 -18 -2 -30.5t-5.5 -19.5t-8 -10.5t-9.5 -3.5q-13 0 -31.5 16t-48.5 36t-73 36.5t-106 16.5q-66 0 -114.5 -22t-80.5 -59.5 t-49.5 -88.5t-21.5 -111h441q14 0 21.5 -14.5t7.5 -45.5q0 -32 -7.5 -46.5t-21.5 -14.5h-441q3 -71 19.5 -128t49 -96.5t81.5 -60.5t115 -21q65 0 111 16t77 34t50.5 33t32.5 15q11 0 16 -13t5 -43q0 -19 -1 -31.5t-2.5 -21.5t-4.5 -15.5t-12 -14.5t-34.5 -24.5t-63 -30.5 t-86 -23.5t-105.5 -9.5q-104 0 -181.5 32.5t-129 94t-77.5 150.5t-26 201z" />
<glyph unicode="&#x455;" horiz-adv-x="782" d="M79 128q0 19 2 31.5t5 20.5t8.5 11t11.5 3q11 0 32 -13t52 -28.5t73 -29t96 -13.5q41 0 74.5 9t58 26t37.5 43.5t13 62.5q0 37 -19 62.5t-50.5 45t-70.5 34.5t-80.5 31.5t-81 37.5t-70.5 51.5t-50 72.5t-19 101q0 52 20 99t60 82.5t100 57t140 21.5q35 0 70 -5.5 t63.5 -14.5t48.5 -19.5t30.5 -18t13.5 -13.5t4.5 -13.5t3 -18t1.5 -26.5q0 -17 -1.5 -29t-5 -19.5t-8 -11t-10.5 -3.5q-9 0 -25.5 10.5t-43 23t-62 23t-81.5 10.5q-41 0 -72.5 -9t-51.5 -26t-30 -40.5t-10 -51.5q0 -38 19.5 -64t50.5 -45.5t71.5 -35t82 -32t82 -37t71.5 -50 t50 -70t19 -97.5q0 -67 -25 -120t-70.5 -89t-109 -55t-140.5 -19q-47 0 -89 7.5t-76 19t-57.5 23.5t-34 21.5t-15.5 27.5t-5 48z" />
<glyph unicode="&#x456;" horiz-adv-x="458" d="M130 1198q0 57 21.5 77.5t78.5 20.5t78 -20t21 -76q0 -57 -21.5 -77t-78.5 -20t-78 20t-21 75zM149 24v879q0 7 3.5 13t13 10t25 6t38.5 2q24 0 40 -2t25 -6t13 -10t4 -13v-879q0 -8 -4 -13t-13 -9t-24.5 -6t-40.5 -2q-23 0 -38.5 2t-25 6t-13 9.5t-3.5 12.5z" />
<glyph unicode="&#x457;" horiz-adv-x="458" d="M-139 929zM-10 1186q0 54 19 73.5t70 19.5t70 -19.5t19 -71.5q0 -53 -19.5 -72.5t-70.5 -19.5t-69.5 19t-18.5 71zM149 24v879q0 8 3.5 13.5t13 10t25 6t38.5 1.5q24 0 40 -1.5t25 -6t13 -10t4 -13.5v-879q0 -8 -4 -13t-13 -9t-24.5 -6t-40.5 -2q-23 0 -38.5 2t-25 6 t-13 9.5t-3.5 12.5zM294 1186q0 54 19 73.5t69 19.5q52 0 70.5 -19.5t18.5 -71.5q0 -53 -19.5 -72.5t-69.5 -19.5q-51 0 -69.5 19t-18.5 71z" />
<glyph unicode="&#x458;" horiz-adv-x="478" d="M-42 -279q0 18 1.5 30.5t5 20t8 11t10.5 3.5t23 -2.5t40 -2.5q32 0 55 10t37.5 32t21.5 57t7 106v917q0 7 4 13t13 10t25 6t39 2t39 -2t25 -6t13 -10t4 -13v-918q0 -98 -14.5 -157.5t-46 -100.5t-80 -62t-118.5 -21q-31 0 -53 3.5t-33.5 8.5t-16 11.5t-6.5 14.5t-2.5 17 t-0.5 22zM149 1198q0 57 21 77.5t79 20.5t78.5 -20t20.5 -76q0 -57 -21.5 -77t-79.5 -20q-57 0 -77.5 20t-20.5 75z" />
<glyph unicode="&#x459;" horiz-adv-x="1501" d="M19 55q0 24 1.5 38.5t5 23.5t9 12t11.5 3q26 0 51.5 8.5t51 35.5t49.5 77.5t45 132t39.5 200.5t32.5 285q2 29 14.5 43.5t35.5 14.5h441q22 0 35.5 -14.5t13.5 -43.5v-277q36 3 78.5 4.5t86.5 1.5q106 0 182 -21t125.5 -60.5t72.5 -93.5t23 -121t-24.5 -126t-77.5 -102 t-135 -68t-196 -25q-26 0 -54.5 0.5t-56 2t-54 3.5t-51.5 5q-42 5 -61.5 26.5t-19.5 65.5v707h-231q-16 -172 -39 -299t-52.5 -216.5t-65 -147t-76.5 -90t-85.5 -45.5t-92.5 -13q-8 0 -14.5 3t-10.5 11t-5.5 22t-1.5 37zM855 124q34 -4 73 -7t87 -3q122 0 180.5 47.5 t58.5 131.5q0 40 -13 72.5t-42.5 55.5t-76.5 35.5t-115 12.5q-40 0 -80 -2t-72 -5v-338z" />
<glyph unicode="&#x45a;" horiz-adv-x="1539" d="M149 24v879q0 8 3.5 13.5t13 10t25 6t38.5 1.5q24 0 40 -1.5t25 -6t13 -10t4 -13.5v-358h412v358q0 8 3.5 13.5t13 10t25 6t38.5 1.5t39 -1.5t25.5 -6t13.5 -10t4 -13.5v-310q36 4 77.5 5.5t86.5 1.5q106 0 183 -21t125.5 -60.5t71.5 -93.5t23 -121t-25 -126t-77 -102 t-134 -68t-196 -25q-26 0 -54.5 0.5t-56 2t-54.5 3.5t-51 5q-41 5 -61 26.5t-20 65.5v325h-412v-387q0 -8 -4 -13t-13 -9t-24.5 -6t-40.5 -2q-23 0 -38.5 2t-25 6t-13 9.5t-3.5 12.5zM885 124q33 -4 72 -7t88 -3q121 0 179.5 47.5t58.5 131.5q0 40 -13 73t-42.5 56t-76.5 36 t-114 13q-41 0 -81 -2.5t-71 -4.5v-340z" />
<glyph unicode="&#x45b;" horiz-adv-x="1065" d="M-7 1141q0 18 2.5 30t7 19.5t10.5 10.5t13 3h138v126q0 8 3.5 14t12.5 9.5t25 5.5t39 2q24 0 40 -2t24.5 -5.5t12.5 -9.5t4 -14v-126h234q8 0 13.5 -3t10 -10.5t6.5 -20t2 -29.5t-2 -29t-6.5 -20t-10.5 -11.5t-13 -3.5h-234v-286q70 75 140.5 110t140.5 35 q88 0 148 -29.5t97.5 -80t53.5 -116.5t16 -161v-525q0 -8 -4 -13t-12.5 -9t-24.5 -6t-39 -2q-25 0 -40.5 2t-24.5 6t-12.5 9.5t-3.5 12.5v503q0 76 -11.5 122t-34.5 79.5t-58.5 51t-82.5 17.5q-61 0 -120.5 -43t-127.5 -126v-604q0 -8 -4 -13t-12.5 -9t-24 -6t-40.5 -2 q-23 0 -39 2t-25 6t-12.5 9.5t-3.5 12.5v1053h-138q-8 0 -13.5 3.5t-10 11.5t-7 20t-2.5 29z" />
<glyph unicode="&#x45c;" horiz-adv-x="927" d="M149 19v892q0 5 4.5 9.5t14.5 7.5t25.5 4.5t35.5 1.5q21 0 36.5 -1.5t25.5 -4.5t15 -7.5t5 -9.5v-368h68q37 0 68 8.5t56 27.5t45 49t37 73l82 202q2 8 7 14t14.5 10t25.5 5.5t43 1.5q23 0 38.5 -1.5t23.5 -4.5t11 -7.5t3 -9.5q0 -9 -2.5 -18.5t-7.5 -22.5l-84 -193 q-20 -49 -42.5 -82t-46 -55t-48 -34.5t-46.5 -19.5v-2q34 -12 62.5 -28.5t53.5 -40.5t46.5 -58t40.5 -78l96 -222q4 -7 6 -13t3 -11.5t1.5 -8.5t0.5 -6q0 -6 -3.5 -10.5t-12.5 -7.5t-24 -4.5t-39 -1.5q-27 0 -44 2t-28 5.5t-16 9t-7 11.5l-93 228q-18 44 -38 75.5t-46.5 51 t-59.5 28.5t-76 9h-68v-395q0 -5 -5 -10t-15 -8t-25.5 -5t-36.5 -2t-36 2t-25 5t-14.5 8t-4.5 10zM270 929zM399.5 1089q1.5 8 8.5 18l141 226q6 11 14 17.5t19 10.5t27.5 6t40.5 2q27 0 44 -3.5t24 -9.5t6 -14.5t-9 -17.5l-176 -227q-8 -10 -14.5 -16t-15 -9.5t-21.5 -5 t-32 -1.5q-21 0 -34 3t-18.5 8t-4 13z" />
<glyph unicode="&#x45d;" horiz-adv-x="1081" d="M133 929zM149 23v881q0 7 3.5 13t13 10t25 5.5t38.5 1.5q47 0 64.5 -7.5t17.5 -22.5v-508q0 -38 -2 -76t-5 -75q22 37 45 73t49 70l378 516q6 8 12.5 14t15.5 9.5t22 5t33 1.5q21 0 35 -1.5t22.5 -5.5t12 -10t3.5 -14v-880q0 -7 -4 -12.5t-13 -9t-24.5 -5.5t-38.5 -2 t-39 2t-26 5.5t-13.5 9.5t-3.5 12v506q0 38 1.5 77.5t4.5 78.5q-22 -39 -49 -77t-54 -75l-373 -510q-7 -8 -12.5 -13.5t-13.5 -9t-21 -5t-31 -1.5q-21 0 -35 2t-22.5 5.5t-12 9.5t-3.5 12zM262 1341.5q-1 8.5 6 14.5t24 9.5t44 3.5q23 0 39.5 -2t27 -6t18.5 -10.5t16 -17.5 l140 -226q7 -11 9 -18.5t-3.5 -12.5t-17.5 -8t-34 -3q-20 0 -32 1.5t-21.5 5t-16.5 9.5t-14 16l-176 227q-8 9 -9 17.5z" />
<glyph unicode="&#x45e;" horiz-adv-x="905" d="M23 929zM33 903.5q0 11.5 8 18.5t25.5 9.5t46.5 2.5t46 -1.5t26.5 -5.5t14 -11.5t9.5 -19.5l251 -706h3l242 709q6 19 14.5 24.5t25 8t47.5 2.5q27 0 44.5 -2.5t26 -9.5t8.5 -18.5t-6 -29.5l-315 -874l-117 -323q-6 -16 -30 -24t-73 -8q-25 0 -41 2t-24 8t-9 16t5 23 l121 306q-9 4 -17 12.5t-11 18.5l-313 840q-8 21 -8 32.5zM152 1318q0 10 3.5 17t12.5 11t24.5 6t36.5 2q23 0 37 -2.5t21 -7.5t10 -13q2 -9 2 -19q0 -31 10 -57t30 -46t48.5 -30.5t65.5 -10.5q36 0 63.5 10.5t47.5 30.5t29.5 47t9.5 58q0 10 2.5 17.5t10 12.5t20.5 7.5 t35 2.5q23 0 38.5 -2t25 -6t13.5 -11t4 -17q0 -56 -17 -104.5t-53 -85t-92.5 -57.5t-137.5 -21q-74 0 -130.5 18.5t-94 53t-56.5 84.5t-19 112z" />
<glyph unicode="&#x45f;" horiz-adv-x="1049" d="M149 57v846q0 8 3.5 13.5t13 10t25 6t38.5 1.5t39 -1.5t25.5 -6t13.5 -10t4 -13.5v-764h428v764q0 8 3.5 13.5t13.5 10t25.5 6t39.5 1.5q23 0 38.5 -1.5t25 -6t13 -10t3.5 -13.5v-846q0 -28 -13 -42.5t-36 -14.5h-259v-299q0 -5 -4 -9t-12.5 -6.5t-21 -4t-30.5 -1.5 t-30.5 1.5t-20.5 4t-12.5 6t-4.5 9.5v299h-258q-23 0 -36.5 14t-13.5 43z" />
<glyph unicode="&#x460;" horiz-adv-x="1855" d="M95 645q0 146 30 263t87.5 199.5t139.5 127t186 44.5q62 0 108.5 -7.5t79 -19t50.5 -24t21 -22.5q2 -8 3 -27.5t1 -52.5q0 -59 -23 -59q-10 0 -27 10.5t-43.5 22.5t-64.5 22.5t-89 10.5q-63 0 -114.5 -34t-88 -97.5t-56 -155t-19.5 -206.5q0 -139 22.5 -235.5 t65.5 -156.5t105 -87.5t141 -27.5q78 0 138 33t96 86v335q0 16 19 23.5t65 7.5q49 0 66.5 -7.5t17.5 -23.5v-335q35 -53 95 -86t138 -33q79 0 141 27.5t105 87.5t65.5 156.5t22.5 235.5q0 115 -19.5 206.5t-55.5 155t-87.5 97.5t-114.5 34q-52 0 -89.5 -10.5t-64.5 -22.5 t-44 -22.5t-27 -10.5q-22 0 -22 59q0 33 1 52.5t3 27.5q3 10 21 22.5t50 24t79 19t108 7.5q104 0 186.5 -44.5t139.5 -127t87.5 -200t30.5 -262.5q0 -329 -130.5 -495t-376.5 -166q-53 0 -101.5 12t-90 32t-76 45t-58.5 51q-24 -26 -59 -51t-76.5 -45t-90 -32t-100.5 -12 q-246 0 -376.5 165.5t-130.5 495.5z" />
<glyph unicode="&#x461;" horiz-adv-x="1353" d="M33 904q0 19 17 24.5t64 5.5q27 0 44.5 -1.5t27 -5.5t14 -10t6.5 -15l232 -702q2 -6 3 -12.5t3 -12.5q2 -7 4 -15l13 30l155 333l-117 341q-4 11 -7 23t-3 17q0 19 17 24.5t64 5.5q27 0 44.5 -1.5t27 -5.5t14 -10t6.5 -15l225 -682l17 -60l5 13q50 94 91 192.5t70 194 t44.5 183.5t15.5 159q0 18 17.5 25t68.5 7q45 0 65 -6t20 -26q0 -62 -15.5 -143.5t-44.5 -175.5t-69.5 -194.5t-91.5 -200.5q-41 -79 -66 -122.5t-34 -51.5q-14 -14 -32.5 -17t-54.5 -3q-29 0 -48.5 2t-30.5 6t-17 11t-9 16l-107 309q-22 -50 -47.5 -104.5t-47.5 -101.5 t-39 -79.5t-23 -38.5q-14 -14 -32.5 -17t-54.5 -3q-29 0 -48.5 2t-30.5 6t-17 11t-9 16l-289 835q-4 11 -7 23t-3 17z" />
<glyph unicode="&#x462;" horiz-adv-x="1253" d="M0 1264zM15 1043q0 19 2.5 32.5t6 22t10 12.5t14.5 4h280v189q0 8 4.5 13t14.5 9.5t26 6t39 1.5t40 -1.5t26 -6t13.5 -9.5t4.5 -13v-189h333q9 0 15.5 -4t10 -12.5t6 -22t2.5 -32.5t-2.5 -32t-6 -22t-10 -12.5t-15.5 -3.5h-333v-246h187q150 0 231 -25.5t135.5 -72 t81.5 -112t27 -143.5q0 -89 -31 -158.5t-89.5 -117.5t-142 -73t-226.5 -25h-276q-11 0 -23 3.5t-21 11.5t-15 21.5t-6 31.5v905h-280q-8 0 -14.5 4.5t-10 14t-6 22t-2.5 29.5zM496 135h178q106 0 158.5 16.5t85 46t48.5 70.5t16 92q0 111 -69 173t-246 62h-171v-460z" />
<glyph unicode="&#x463;" horiz-adv-x="1038" d="M23 861q0 18 2.5 30.5t6.5 21t10 12.5t14 4h173v209q0 7 3.5 12.5t13.5 10t25.5 6.5t39.5 2q23 0 38.5 -2t24.5 -6.5t13 -10t4 -12.5v-209h254q8 0 14 -4t10 -12.5t6 -21t2 -30.5t-2 -30t-6.5 -19t-10.5 -10.5t-13 -3.5h-254v-227q44 3 88.5 4t81.5 1q95 0 168.5 -17.5 t123.5 -52.5t76.5 -87.5t26.5 -121.5q0 -70 -26 -128.5t-78.5 -100t-132 -63.5t-186.5 -22q-25 0 -58 1t-66 3t-65 5t-56 7q-17 2 -28 7.5t-18 15t-10 25t-3 36.5v714h-174q-7 0 -13.5 3.5t-10.5 11t-6 20t-2 29.5zM391 116q38 -3 77 -5.5t75 -2.5q121 0 184 45.5t63 131.5 q0 84 -61.5 125t-190.5 41q-38 0 -78.5 -1t-68.5 -3v-331z" />
<glyph unicode="&#x464;" horiz-adv-x="1563" d="M168 24v1215q0 15 19 23t65 8q49 0 66.5 -8t17.5 -23v-511h232q12 127 53 229.5t110.5 174.5t165.5 110.5t217 38.5q62 0 118.5 -12t100.5 -28.5t72.5 -33.5t36.5 -26q16 -14 20 -31.5t4 -49.5q0 -39 -6 -55t-18 -16q-11 0 -34 16.5t-62 37.5t-96 37.5t-133 16.5 q-90 0 -156.5 -33t-112 -89t-70.5 -131.5t-32 -160.5h596q17 0 25 -16t8 -54q0 -36 -8.5 -52t-24.5 -16h-598q3 -100 25.5 -184t69 -145t119 -95t177.5 -34q72 0 126 17.5t93 38.5t61.5 38.5t33.5 17.5t17.5 -12t6.5 -49q0 -40 -4.5 -63.5t-23.5 -37.5q-14 -12 -46 -28 t-77 -30.5t-99.5 -25.5t-111.5 -11q-133 0 -233 40.5t-167.5 118t-104 189.5t-41.5 255h-229v-561q0 -15 -17.5 -22.5t-66.5 -7.5t-66.5 8t-17.5 22z" />
<glyph unicode="&#x465;" horiz-adv-x="1300" d="M149 24v879q0 8 3.5 13.5t13 10t25 6t38.5 1.5q24 0 40 -1.5t25 -6t13 -10t4 -13.5v-361h197q7 61 23 115q27 90 81.5 154.5t136 100t190.5 35.5q44 0 84.5 -8.5t75 -22t61 -29.5t35.5 -25.5t13 -16.5t6.5 -16t4 -22t1.5 -30q0 -18 -2 -30.5t-5.5 -19.5t-8 -10.5 t-9.5 -3.5q-13 0 -31 16t-48.5 36t-73.5 36.5t-105 16.5q-66 0 -115 -22t-81 -59.5t-49.5 -88.5t-21.5 -111h441q14 0 21.5 -14.5t7.5 -45.5q0 -32 -7.5 -46.5t-21.5 -14.5h-441q3 -71 19.5 -128t49 -96.5t81.5 -60.5t116 -21q65 0 110.5 16t76.5 34t50.5 33t32.5 15 q11 0 16.5 -13t5.5 -43q0 -19 -1 -31.5t-3 -21.5t-5 -15.5t-12 -14.5t-34.5 -24.5t-63 -30.5t-85.5 -23.5t-106 -9.5q-104 0 -181.5 32.5t-129 94t-78.5 150.5q-21 70 -24 156h-194v-390q0 -8 -4 -13t-13 -9t-24.5 -6t-40.5 -2q-23 0 -38.5 2t-25 6t-13 9.5t-3.5 12.5z" />
<glyph unicode="&#x466;" horiz-adv-x="1260" d="M36.5 25q1.5 12 9.5 36l475 1173q3 11 9.5 18t19 11t31.5 5.5t47 1.5q21 0 37.5 -0.5t28.5 -2.5t20 -4.5t14 -6.5t9.5 -10t5.5 -13l474 -1173q8 -21 8.5 -34.5t-8 -20.5t-27.5 -9t-52 -2q-31 0 -48.5 1.5t-26 5t-11.5 10t-6 14.5l-221 556h-118v-557q0 -8 -4 -13 t-12.5 -9t-24.5 -6t-40 -2q-23 0 -39 2t-25 6t-12.5 9.5t-3.5 12.5v557h-123l-215 -554q-3 -10 -7 -16t-13 -10t-25.5 -5.5t-45.5 -1.5q-30 0 -47.5 2.5t-26 9.5t-7 19zM480 728h288l-145 365h-1z" />
<glyph unicode="&#x467;" horiz-adv-x="1049" d="M26 25q0 6 2.5 15.5t6.5 20.5l391 846l-1 -1q5 21 26 27t70 6q57 0 79 -6t26 -28l-1 2l389 -846q8 -21 9 -34t-6.5 -20t-25.5 -9t-50 -2q-28 0 -43.5 1.5t-23.5 5t-11 9t-6 12.5v-1l-169 374h-91v-371q0 -14 -16 -22t-60 -8q-46 0 -61 8.5t-15 21.5v371h-95l-164 -372 q-4 -8 -8 -13.5t-12.5 -9t-23 -5t-39.5 -1.5q-42 0 -59.5 5t-17.5 24zM404 522h228l-114 255z" />
<glyph unicode="&#x468;" horiz-adv-x="1663" d="M168 24v1215q0 15 19 23t65 8q49 0 66.5 -8t17.5 -23v-511h382l205 506q3 11 9.5 18t19 11t31.5 5.5t47 1.5q21 0 37.5 -0.5t28.5 -2.5t20 -4.5t14.5 -6.5t10 -10t5.5 -13l473 -1173q8 -21 8.5 -34.5t-8 -20.5t-27.5 -9t-52 -2q-31 0 -48 1.5t-26 5t-12 10t-6 14.5 l-220 556h-119v-557q0 -8 -3.5 -13t-12.5 -9t-24.5 -6t-40.5 -2q-23 0 -38.5 2t-25 6t-13 9.5t-3.5 12.5v557h-123l-215 -554q-3 -10 -6.5 -16t-13 -10t-26 -5.5t-44.5 -1.5q-30 0 -48 2.5t-26 9.5t-7 19t9 36l212 524h-324v-561q0 -15 -17.5 -22.5t-66.5 -7.5t-66.5 8 t-17.5 22zM883 728h287l-145 365h-1z" />
<glyph unicode="&#x469;" horiz-adv-x="1420" d="M149 24v879q0 8 3.5 13.5t13 10t25 6t38.5 1.5q24 0 40 -1.5t25 -6t13 -10t4 -13.5v-361h317l169 365l-1 -1q5 21 26 27t71 6q57 0 78.5 -6t25.5 -28l-1 2l389 -846q8 -21 9.5 -34t-6.5 -20t-26 -9t-50 -2q-28 0 -43.5 1.5t-23.5 5t-11 9t-5 12.5v-1l-169 374h-92v-371 q0 -14 -15.5 -22t-60.5 -8q-46 0 -61 8.5t-15 21.5v371h-95l-164 -372q-4 -8 -8 -13.5t-12.5 -9t-23 -5t-39.5 -1.5q-42 0 -59.5 5t-17.5 24q0 6 2.5 15.5t6.5 20.5l163 353h-258v-390q0 -8 -4 -13t-13 -9t-24.5 -6t-40.5 -2q-23 0 -38.5 2t-25 6t-13 9.5t-3.5 12.5z M775 522h228l-114 255z" />
<glyph unicode="&#x46a;" horiz-adv-x="1445" d="M83 26q0 6 2.5 19.5t10.5 34.5l98 286q35 104 67.5 166.5t72 98.5t91.5 53t124 29l-363 485q-19 24 -19 38q0 16 21.5 22t66.5 6h933q48 0 70 -6t22 -22q0 -15 -17 -38l-367 -487q71 -8 123.5 -26t92.5 -56.5t73 -101.5t66 -161l97 -286q15 -43 14 -54q0 -17 -17.5 -24.5 t-68.5 -7.5q-28 0 -44.5 2.5t-27 7.5t-15 12t-7.5 18l-105 319q-20 60 -41.5 104t-51.5 73.5t-71 43.5t-100 14h-5v-563q0 -16 -18 -23.5t-66 -7.5q-49 0 -67 8t-18 23v563h-7q-63 0 -106.5 -16.5t-73 -47.5t-49 -74.5t-37.5 -96.5l-102 -319q-3 -11 -8 -18t-15.5 -12 t-28 -7.5t-44.5 -2.5q-50 0 -67.5 8t-17.5 24zM429 1121l179 -242q34 -47 63 -93t56 -104h2q22 56 50.5 101.5t63.5 92.5l182 245h-596z" />
<glyph unicode="&#x46b;" horiz-adv-x="1125" d="M26 28q0 5 2.5 15.5t9.5 26.5l81 208q26 66 53.5 111.5t61 74t74 44.5t92.5 25l-277 332q-17 21 -17 33q0 30 82 31h747q87 0 86 -31q0 -14 -16 -33l-280 -332q55 -7 95.5 -21.5t73 -43.5t59 -74.5t53.5 -115.5l79 -207q14 -30 14 -43q0 -17 -17 -24.5t-63 -7.5 q-25 0 -39 2t-21.5 6.5t-11 10.5t-6.5 15l-86 231q-16 41 -34 71.5t-43 51t-58 31t-77 11.5v-399q0 -16 -17 -23.5t-63 -7.5t-63 8t-17 23v399q-49 0 -84 -12t-60 -33.5t-41.5 -51.5t-28.5 -67l-84 -232q-4 -9 -7.5 -15t-11.5 -10.5t-22 -6.5t-39 -2q-46 0 -62.5 8t-16.5 24 zM341 806l135 -160q31 -38 55 -74t36 -67q18 36 39.5 71.5t47.5 67.5l138 162h-451z" />
<glyph unicode="&#x46c;" horiz-adv-x="1811" d="M168 24v1215q0 15 19 23t65 8q49 0 66.5 -8t17.5 -23v-511h568l-352 470q-19 24 -19 38q0 16 21.5 22t66.5 6h933q48 0 70 -6t22 -22q0 -15 -17 -38l-366 -487q71 -8 123 -26t92.5 -56.5t73 -101.5t65.5 -161l97 -286q15 -43 15 -54q0 -17 -18 -24.5t-68 -7.5 q-28 0 -45 2.5t-27 7.5t-15 12t-8 18l-105 319q-20 60 -41.5 104t-51.5 73.5t-71 43.5t-99 14h-6v-563q0 -16 -17.5 -23.5t-66.5 -7.5t-67 8t-18 23v563h-7q-63 0 -106 -16.5t-73 -47.5t-49.5 -74.5t-37.5 -96.5l-102 -319q-3 -11 -8 -18t-15 -12t-27.5 -7.5t-45.5 -2.5 q-50 0 -67.5 8t-17.5 24q0 6 2.5 19.5t10.5 34.5l99 286q25 76 49 129t50 90h-324v-561q0 -15 -17.5 -22.5t-66.5 -7.5t-66.5 8t-17.5 22zM795 1121l180 -242q34 -47 62.5 -93t55.5 -104h2q22 56 50.5 101.5t63.5 92.5l183 245h-597z" />
<glyph unicode="&#x46d;" horiz-adv-x="1510" d="M149 24v879q0 8 3.5 13.5t13 10t25 6t38.5 1.5q24 0 40 -1.5t25 -6t13 -10t4 -13.5v-361h467l-269 323q-17 21 -17 33q0 30 81 31h747q87 0 87 -31q0 -14 -16 -33l-281 -332q55 -7 96 -21.5t73.5 -43.5t59 -74.5t53.5 -115.5l79 -207q14 -30 13 -43q0 -17 -16.5 -24.5 t-63.5 -7.5q-25 0 -38.5 2t-21 6.5t-11 10.5t-6.5 15l-86 231q-16 41 -34.5 71.5t-43 51t-58 31t-77.5 11.5v-399q0 -16 -16.5 -23.5t-62.5 -7.5t-63 8t-17 23v399q-49 0 -84 -12t-60 -33.5t-41.5 -51.5t-29.5 -67l-84 -232q-4 -9 -7 -15t-11 -10.5t-22 -6.5t-39 -2 q-46 0 -62.5 8t-16.5 24q0 5 2.5 15.5t9.5 26.5l81 208q17 43 34.5 76.5t35.5 59.5h-264v-390q0 -8 -4 -13t-13 -9t-24.5 -6t-40.5 -2q-23 0 -38.5 2t-25 6t-13 9.5t-3.5 12.5zM727 806l134 -160q31 -38 55 -74t37 -67q18 36 39.5 71.5t47.5 67.5l138 162h-451z" />
<glyph unicode="&#x46e;" horiz-adv-x="947" d="M32 -67q0 47 14.5 84.5t45.5 64.5t81 43.5t121 19.5q76 4 145 12t121 30.5t83 65.5t31 115q0 107 -77.5 163.5t-229.5 56.5h-148q-22 0 -30.5 14.5t-8.5 53.5q0 37 8.5 53t29.5 16h139q64 0 117.5 14.5t91.5 43t58.5 70t20.5 94.5q0 87 -57.5 140t-171.5 53 q-62 0 -110.5 -14t-84.5 -30t-59.5 -29t-36.5 -13q-14 0 -18 13t-4 51q0 26 3.5 46.5t18.5 34.5q7 7 27.5 18.5t52 22.5t71.5 21t87 16l-146 204q-22 28 -14 41.5t59 13.5q21 0 33 -1.5t19.5 -5t13 -8.5t11.5 -14l127 -177l72 120q15 23 27 40.5t25.5 28.5t30.5 16.5t39 5.5 q28 0 44.5 -5.5t28.5 -14.5q11 -8 14.5 -20t3.5 -33t-1 -35t-7 -14q-11 0 -22 5t-31 5q-14 0 -29 -14t-29 -34l-69 -110q131 -25 195 -104t64 -197q0 -64 -19 -115.5t-51.5 -89t-76.5 -61.5t-93 -33v-3q59 -7 109.5 -30.5t87.5 -61t58.5 -88.5t21.5 -114 q0 -104 -38.5 -174.5t-111 -114.5t-178.5 -64t-241 -24q-49 -2 -70.5 -24t-21.5 -59q0 -42 31.5 -61.5t104.5 -19.5q57 0 103.5 1.5t89 3.5t83 3.5t83.5 1.5q44 0 75.5 -3t52.5 -8t34 -12t21 -15q17 -18 22 -40.5t5 -50.5q0 -69 -32 -69q-13 0 -22.5 8t-27.5 18t-51 18 t-92 8q-42 0 -78.5 -1t-74.5 -2.5t-83.5 -2.5t-105.5 -1q-90 0 -149 19t-93 51t-48 76.5t-14 96.5z" />
<glyph unicode="&#x46f;" horiz-adv-x="826" d="M21 -96q0 45 13.5 81t50 61.5t101.5 41.5t169 21t158 43t54 119q0 67 -60.5 107.5t-197.5 40.5h-98q-19 0 -26 14t-7 48q0 32 7.5 46t24.5 14h95q123 0 180.5 38t57.5 111q0 32 -13 56.5t-37 41t-57 24.5t-71 8q-55 0 -97.5 -11.5t-74 -26t-51.5 -26.5t-29 -12 q-11 0 -17 11.5t-6 44.5q0 21 2 35.5t8 25t18.5 19.5t32.5 20q29 17 67 27.5t83 14.5l-127 156q-9 11 -14.5 18t-4.5 14q0 11 15.5 16.5t49.5 5.5t46.5 -6t23.5 -19l97 -117l52 76q13 18 24 31t23 21.5t26.5 13t34.5 4.5q19 0 36.5 -4.5t28.5 -11.5q12 -7 16 -18t4 -29 q0 -20 -3 -32.5t-14 -12.5q-12 0 -22 4t-21 4q-10 -1 -20.5 -10t-20.5 -23l-59 -83q106 -17 169 -76t63 -160q0 -35 -11.5 -68t-33.5 -60.5t-54 -49t-72 -33.5l-2 -1q38 -4 75.5 -21.5t66.5 -46.5t47 -69t18 -87q0 -133 -85.5 -206t-264.5 -80q-67 -2 -109 -9t-64.5 -17.5 t-30 -23.5t-7.5 -28q0 -23 9.5 -37t31 -21.5t56.5 -9.5t84 -2q65 0 125 5.5t122 5.5q63 0 92 -11t40 -27q12 -18 16 -40.5t4 -50.5q0 -69 -24 -70q-9 0 -16 8.5t-20 18.5t-36.5 18t-66.5 8q-61 0 -117 -4t-120 -4q-61 0 -114.5 6.5t-95.5 23.5q-41 17 -65 37.5t-38 44.5 t-18.5 49.5t-4.5 51.5z" />
<glyph unicode="&#x470;" horiz-adv-x="1500" d="M141 740v499q0 7 4 13t13.5 10t25.5 6t41 2q24 0 40 -2t26 -6t14 -10t4 -13v-484q0 -81 21.5 -146t64.5 -110.5t108.5 -70.5t153.5 -27v838q0 7 4.5 13t15 10t26.5 6t38 2q24 0 40.5 -2t26 -6t13.5 -10t4 -13v-838q88 1 153.5 27t109 71.5t65.5 109.5t22 142v488 q0 7 4 13t13.5 10t25 6t41.5 2q23 0 39 -2t25.5 -6t14 -10t4.5 -13v-481q0 -115 -36 -206.5t-103 -156t-162.5 -99.5t-215.5 -38v-234q0 -8 -4 -13.5t-13.5 -9t-25.5 -5.5t-41 -2q-24 0 -40 2t-25.5 5.5t-14 9.5t-4.5 13v234q-122 3 -217.5 35t-162 93t-101.5 150t-35 204z " />
<glyph unicode="&#x471;" horiz-adv-x="1415" d="M146 426q0 80 5 157.5t5 156.5q0 40 -2.5 81t-7.5 80q-2 8 2 14.5t13 11t25 6t39 1.5q24 0 39 -2t24.5 -6t14 -10t5.5 -14q5 -39 7 -78.5t2 -78.5q0 -76 -4.5 -150.5t-4.5 -151.5q0 -82 17.5 -141.5t54 -99t94.5 -60t139 -24.5v1210q0 8 4 14.5t13.5 10t24.5 5.5t39 2 q23 0 39 -2t25 -5.5t13 -9.5t4 -14v-1211q83 5 144 28t101 66t58.5 108.5t18.5 156.5q0 69 -7 140.5t-15.5 133t-15 104t-6.5 53.5q0 6 4 11t12.5 8.5t23.5 5t40 1.5q22 0 38 -1.5t25 -5.5t13.5 -10t6.5 -14q11 -73 18.5 -134t12.5 -112.5t7.5 -94t2.5 -77.5 q0 -119 -30.5 -209t-90.5 -152.5t-150.5 -97.5t-210.5 -43v-307q0 -8 -4 -14t-13 -10t-24.5 -5.5t-39.5 -1.5t-39 1.5t-24.5 5.5t-13.5 10t-4 14v305q-124 5 -212.5 35.5t-145 85.5t-83 136t-26.5 188z" />
<glyph unicode="&#x472;" horiz-adv-x="1324" d="M97 625q0 151 36.5 273t109.5 207t181 131t251 46q137 0 240.5 -41t172.5 -121.5t104 -199.5t35 -273t-36.5 -277t-108.5 -209.5t-180.5 -133t-252.5 -46.5q-142 0 -245.5 41.5t-171.5 123.5t-101.5 202t-33.5 277zM274 570q5 -100 27 -182.5t67 -141t116 -91.5t174 -33 q104 0 176.5 34t119.5 95t70 142.5t26 176.5h-776zM274 705h775q-5 95 -28 175t-68.5 138.5t-116 92t-171.5 33.5t-173.5 -34t-119.5 -93t-70.5 -139t-27.5 -173z" />
<glyph unicode="&#x473;" horiz-adv-x="1047" d="M88 459q0 107 28 196.5t83.5 154.5t138.5 101t194 36q106 0 187 -33t134 -94.5t80 -150t27 -197.5q0 -108 -28 -198t-83.5 -155t-139 -101.5t-194.5 -36.5q-109 0 -189.5 34.5t-133 96.5t-78.5 151t-26 196zM254 409q2 -67 19 -122.5t49.5 -95.5t83 -61.5t117.5 -21.5 q62 0 112 19.5t84.5 58t53.5 94.5t21 129h-540zM254 527h540q-3 60 -18.5 112.5t-47.5 92.5t-82 64t-122 24q-68 0 -118 -23.5t-83 -63.5t-49.5 -93t-19.5 -113z" />
<glyph unicode="&#x474;" horiz-adv-x="1179" d="M34 1238.5q-1 13.5 7 20.5t26.5 9t52.5 2q30 0 47.5 -1.5t26.5 -5.5t13.5 -10.5t8.5 -17.5l358 -1062h2l181 647q40 141 74 230.5t71 140t80.5 69.5t101.5 19q25 0 43.5 -4t28 -9t13 -10.5t4.5 -12t2 -17t1 -27.5q0 -41 -5.5 -62.5t-19.5 -21.5q-10 0 -20.5 1t-20.5 1 q-25 0 -46 -11.5t-41.5 -45t-43.5 -93.5t-53 -156l-243 -782q-3 -11 -10 -17.5t-19.5 -10.5t-32.5 -5.5t-48 -1.5q-32 0 -53.5 1.5t-33.5 5.5t-19.5 11.5t-11.5 17.5l-412 1174q-8 21 -9 34.5z" />
<glyph unicode="&#x475;" horiz-adv-x="955" d="M33 905q0 8 4 14t13.5 9.5t25 4.5t38.5 1q28 0 44.5 -1.5t25.5 -5.5t13.5 -10t8.5 -15l247 -724l5 -24l5 24l154 544q15 57 33.5 99t45 69.5t62 41t84.5 13.5q26 0 48 -4.5t29.5 -12.5t11 -22.5t3.5 -46.5q0 -21 -2 -34t-5.5 -19.5t-8.5 -9.5t-10 -3q-9 0 -17.5 0.5 t-19.5 0.5q-18 0 -31.5 -3.5t-25.5 -16t-24.5 -38t-25.5 -69.5l-199 -638q-4 -11 -10 -17.5t-19 -10.5t-32.5 -5.5t-48.5 -1.5t-49.5 2t-33.5 6t-19.5 11t-10.5 16l-299 834q-5 16 -7.5 25.5t-2.5 16.5z" />
<glyph unicode="&#x476;" horiz-adv-x="1179" d="M27 1264zM34 1238.5q-1 13.5 7 20.5t26.5 9t52.5 2q30 0 47.5 -1.5t26.5 -5.5t13.5 -10.5t8.5 -17.5l358 -1062h2l181 647q40 141 74 230.5t71 140t80.5 69.5t101.5 19q25 0 43.5 -4t28 -9t13 -10.5t4.5 -12t2 -17t1 -27.5q0 -41 -5.5 -62.5t-19.5 -21.5q-10 0 -20.5 1 t-20.5 1q-25 0 -46 -11.5t-41.5 -45t-43.5 -93.5t-53 -156l-243 -782q-3 -11 -10 -17.5t-19.5 -10.5t-32.5 -5.5t-48 -1.5q-32 0 -53.5 1.5t-33.5 5.5t-19.5 11.5t-11.5 17.5l-412 1174q-8 21 -9 34.5zM123 1627q0 7 8.5 13t28 9t52.5 3q26 0 44.5 -1.5t31 -4.5t21 -8.5 t13.5 -12.5l175 -231q5 -7 4 -13.5t-8.5 -10.5t-20 -6t-31.5 -2q-20 0 -33 0.5t-22 2.5t-16 6.5t-14 12.5l-224 227q-9 9 -9 16zM495.5 1626q-2.5 9 6 14.5t30.5 8.5t59 3q24 0 41.5 -1.5t29 -4.5t19.5 -8.5t14 -13.5l165 -228q10 -15 -2 -24.5t-43 -9.5q-19 0 -32.5 0.5 t-23.5 2.5t-17.5 6.5t-14.5 11.5l-218 223q-11 11 -13.5 20z" />
<glyph unicode="&#x477;" horiz-adv-x="955" d="M-59 936zM33 905q0 8 4 14t13.5 9.5t25 4.5t38.5 1q28 0 44.5 -1.5t25.5 -5.5t13.5 -10t8.5 -15l247 -724l5 -24l5 24l154 544q15 57 33.5 99t45 69.5t62 41t84.5 13.5q26 0 48 -4.5t29.5 -12.5t11 -22.5t3.5 -46.5q0 -21 -2 -34t-5.5 -19.5t-8.5 -9.5t-10 -3 q-9 0 -17.5 0.5t-19.5 0.5q-18 0 -31.5 -3.5t-25.5 -16t-24.5 -38t-25.5 -69.5l-199 -638q-4 -11 -10 -17.5t-19 -10.5t-32.5 -5.5t-48.5 -1.5t-49.5 2t-33.5 6t-19.5 11t-10.5 16l-299 834q-5 16 -7.5 25.5t-2.5 16.5zM74 1324q-2 9 5.5 15.5t24.5 9.5t44 3q25 0 42 -1.5 t27.5 -4.5t17 -7.5t11.5 -12.5l177 -256q10 -15 -3 -21.5t-46 -6.5q-17 0 -28.5 1t-20.5 3t-16 6t-13 10l-209 242q-11 11 -13 20zM408 1324.5q-2 8.5 5.5 15t26.5 9.5t49 3q22 0 37.5 -1.5t26 -5t17.5 -9t12 -13.5l167 -252q4 -8 4 -13.5t-6 -9t-17.5 -5t-29.5 -1.5 q-17 0 -28.5 1t-20 3.5t-14.5 6.5q-6 3 -10 9l-206 241q-11 13 -13 21.5z" />
<glyph unicode="&#x478;" horiz-adv-x="2089" d="M97 625q0 149 33 271.5t100 207.5t166.5 131.5t233.5 46.5q129 0 224 -42t158.5 -122.5t95 -199.5t31.5 -272t-33.5 -276t-100 -209.5t-166.5 -133t-233 -46.5q-132 0 -227.5 42.5t-158 124t-93 201.5t-30.5 276zM274 637q0 -111 17 -205t55.5 -162t104 -105.5 t163.5 -37.5q99 0 165.5 41t107.5 111t58 161.5t17 194.5q0 107 -17 199.5t-56 160t-105 106t-163 38.5q-98 0 -163 -41t-106.5 -109.5t-59.5 -160t-18 -191.5zM1218 903.5q0 11.5 7.5 18.5t25.5 9.5t47 2.5t45.5 -1.5t26.5 -5.5t14.5 -11.5t9.5 -19.5l251 -706h2l243 709 q6 19 14 24.5t24.5 8t48.5 2.5q27 0 44.5 -2.5t26 -9.5t8.5 -18.5t-6 -29.5l-316 -874l-117 -323q-6 -16 -30 -24t-72 -8q-25 0 -41 2t-24.5 8t-9.5 16t5 23l121 306q-9 4 -16.5 12.5t-10.5 18.5l-313 840q-8 21 -8 32.5z" />
<glyph unicode="&#x479;" horiz-adv-x="1817" d="M88 456q0 107 26 197.5t78.5 156t130.5 101.5t183 36q102 0 177 -32t125 -93.5t75 -149.5t25 -198q0 -107 -26.5 -197.5t-78.5 -156t-131 -102.5t-183 -37q-102 0 -177 32.5t-125 94t-74.5 149.5t-24.5 199zM257 467q0 -72 11.5 -135.5t39 -111t74 -75.5t114.5 -28 q62 0 108.5 25.5t76 71.5t43.5 109.5t14 139.5q0 71 -11.5 134.5t-38.5 111.5t-73.5 75.5t-114.5 27.5q-63 0 -109 -25t-76 -71.5t-44 -110t-14 -138.5zM945 903.5q0 11.5 8 18.5t25.5 9.5t46.5 2.5t46 -1.5t26.5 -5.5t14 -11.5t9.5 -19.5l251 -706h3l242 709 q6 19 14.5 24.5t25 8t47.5 2.5q27 0 45 -2.5t26 -9.5t8 -18.5t-6 -29.5l-315 -874l-117 -323q-6 -16 -30 -24t-73 -8q-25 0 -40.5 2t-24 8t-9.5 16t5 23l121 306q-9 4 -16.5 12.5t-10.5 18.5l-314 840q-8 21 -8 32.5z" />
<glyph unicode="&#x47a;" horiz-adv-x="1324" d="M58 625q0 132 29.5 242.5t89.5 193.5t150.5 137t210.5 73q6 32 24 50q30 30 107 31q75 0 104 -30q16 -17 23 -48q237 -32 353.5 -193.5t116.5 -434.5q0 -134 -29.5 -244.5t-88 -194t-146.5 -138t-205 -75.5q-8 -40 -25 -56q-30 -30 -107 -31q-74 0 -103 30q-18 18 -25 51 q-123 15 -213.5 63.5t-149.5 129t-87.5 192t-28.5 252.5zM235 637q0 -98 15.5 -181.5t51 -149t94.5 -109t147 -60.5q7 21 19 33q30 30 107 30q75 0 104 -29q11 -11 17 -28q83 21 140 68t92.5 112.5t51 145t15.5 166.5q0 92 -15 173t-50 145t-92 108t-140 64q-8 -25 -20 -37 q-29 -29 -107 -29q-74 0 -103 29q-14 14 -21 37q-84 -21 -142.5 -67t-94.5 -111t-52.5 -144.5t-16.5 -165.5z" />
<glyph unicode="&#x47b;" horiz-adv-x="1152" d="M88 456q0 93 22.5 173t68 142.5t114.5 104.5t163 60q7 31 23 46q27 27 95 28q67 0 94 -27q14 -16 20 -43q97 -14 167.5 -51t117 -97t69 -140t22.5 -178q0 -94 -23 -175t-70.5 -144t-119 -105.5t-166.5 -58.5q-7 -27 -21 -42q-27 -27 -97 -27q-66 0 -92 26q-15 15 -21 41 q-94 14 -163 52t-114 97.5t-67 139.5t-22 178zM257 467q0 -60 9.5 -113.5t32.5 -98t62 -77t98 -47.5q5 16 17 27q27 27 95 28q67 0 94 -27q10 -11 17 -29q57 15 96.5 45t65.5 73t38.5 97.5t12.5 117.5q0 60 -10 115t-34.5 99.5t-65.5 76.5t-102 47q-6 -18 -16 -28 q-27 -27 -97 -27q-66 0 -92 26q-9 8 -16 25q-55 -16 -93.5 -46.5t-63.5 -73.5t-36.5 -96.5t-11.5 -113.5z" />
<glyph unicode="&#x47c;" horiz-adv-x="1855" d="M95 645q0 146 30 263t87.5 199.5t139.5 127t186 44.5q62 0 108.5 -7.5t79 -19t50.5 -24t21 -22.5q2 -8 3 -27.5t1 -52.5q0 -59 -23 -59q-10 0 -27 10.5t-43.5 22.5t-64.5 22.5t-89 10.5q-63 0 -114.5 -34t-88 -97.5t-56 -155t-19.5 -206.5q0 -139 22.5 -235.5 t65.5 -156.5t105 -87.5t141 -27.5q78 0 138 33t96 86q5 7 10.5 13.5t15 11.5t23.5 8t35 3t35.5 -3.5t23.5 -8.5t14.5 -11t10.5 -13q35 -53 95 -86t138 -33q79 0 141 27.5t105 87.5t65.5 156.5t22.5 235.5q0 115 -19.5 206.5t-55.5 155t-87.5 97.5t-114.5 34 q-52 0 -89.5 -10.5t-64.5 -22.5t-44 -22.5t-27 -10.5q-22 0 -22 59q0 33 1 52.5t3 27.5q3 10 21 22.5t50 24t79 19t108 7.5q104 0 186.5 -44.5t139.5 -127t87.5 -200t30.5 -262.5q0 -329 -130.5 -495t-376.5 -166q-53 0 -101.5 12t-90 32t-76 45t-58.5 51q-24 -26 -59 -51 t-76.5 -45t-90 -32t-100.5 -12q-246 0 -376.5 165.5t-130.5 495.5zM633 1660q0 41 14.5 76.5t41.5 61t66 40.5t89 15q55 0 109.5 -20.5t112.5 -44.5t121 -44t134 -20q20 0 28.5 -7.5t8.5 -41.5q0 -18 -1.5 -29t-5.5 -17t-12 -8t-21 -2q-81 0 -149.5 20t-126.5 44.5 t-106 44.5t-88 20q-44 0 -72 -30t-28 -73q0 -16 -10 -21t-50 -5q-31 0 -43 7.5t-12 33.5zM846 1344q0 8 3 13.5t10 11.5l34 29q9 9 16 16.5t12 15.5t7.5 19t2.5 26q-16 0 -30.5 2t-26 10.5t-18 24.5t-6.5 45q0 25 5 40.5t17 24.5t29.5 12t42.5 3q24 0 42 -3t29 -13t16.5 -27 t5.5 -44q0 -17 -1 -36.5t-5 -39.5t-11.5 -39.5t-20.5 -36.5l-17 -20q-13 -16 -22.5 -25.5t-20 -15.5t-23.5 -8t-31 -2q-25 0 -32 4t-7 13z" />
<glyph unicode="&#x47d;" horiz-adv-x="1564" d="M87 476q0 108 25.5 195t73.5 148t118 93.5t158 32.5q52 0 92.5 -6t68 -15.5t43 -20t18.5 -18.5q2 -6 3 -20.5t1 -40.5q0 -52 -30 -52q-7 0 -13.5 3.5t-17.5 8.5q-21 11 -58 23t-95 12q-50 0 -90.5 -24t-69 -68t-43.5 -108.5t-15 -145.5q0 -99 18 -166.5t51.5 -109 t83 -59.5t112.5 -18q62 0 109 22.5t75 59.5q5 6 10.5 11.5t13.5 9.5t20.5 6t32.5 2t32.5 -2t21 -6.5t13.5 -10t9 -10.5q28 -37 75.5 -59.5t109.5 -22.5t111.5 18t83.5 59.5t52 109t18 166.5q0 81 -15.5 145.5t-43.5 108.5t-68.5 68t-90.5 24q-59 0 -95.5 -12t-57.5 -23 l-17 -8.5t-15 -3.5q-28 0 -28 52q0 25 1 40t3 21q3 8 18 18.5t43 20t68.5 15.5t92.5 6q88 0 157 -32.5t117.5 -93.5t74.5 -148t26 -195q0 -243 -110.5 -368t-316.5 -125q-43 0 -82.5 8.5t-74 22t-63 31t-49.5 36.5q-21 -19 -50 -36.5t-63.5 -31t-73.5 -22t-81 -8.5 q-207 0 -317 124.5t-110 368.5zM486 1287q0 41 15 76.5t41.5 61t65.5 40t89 14.5q55 0 109.5 -20t113 -44t121.5 -44t134 -20q20 0 28.5 -7.5t8.5 -41.5q0 -18 -1.5 -29t-6 -17t-12 -8t-20.5 -2q-81 0 -150 20t-126.5 44.5t-106 44.5t-88.5 20q-44 0 -71.5 -30t-27.5 -74 q0 -16 -10.5 -20.5t-49.5 -4.5q-31 0 -43.5 7.5t-12.5 33.5zM700 972q0 8 3 13.5t11 11.5l33 29l16.5 16.5t12 15.5t7 19t2.5 26q-16 0 -30.5 2t-25.5 10.5t-18 24.5t-7 45q0 25 5.5 40.5t17 24.5t29 12t43.5 3q24 0 41.5 -3t29 -13t17 -27t5.5 -44q0 -17 -1 -36.5t-5 -39.5 t-12 -39.5t-20 -36.5l-17 -20q-13 -16 -22.5 -25.5t-20.5 -15.5t-23.5 -8t-31.5 -2q-25 0 -32 4t-7 13z" />
<glyph unicode="&#x47e;" horiz-adv-x="1855" d="M95 645q0 146 30 263t87.5 199.5t139.5 127t186 44.5q62 0 108.5 -7.5t79 -19t50.5 -24t21 -22.5q2 -8 3 -27.5t1 -52.5q0 -59 -23 -59q-10 0 -27 10.5t-43.5 22.5t-64.5 22.5t-89 10.5q-63 0 -114.5 -34t-88 -97.5t-56 -155t-19.5 -206.5q0 -139 22.5 -235.5 t65.5 -156.5t105 -87.5t141 -27.5q78 0 138 33t96 86v335q0 16 19 23.5t65 7.5q49 0 66.5 -7.5t17.5 -23.5v-335q35 -53 95 -86t138 -33q79 0 141 27.5t105 87.5t65.5 156.5t22.5 235.5q0 115 -19.5 206.5t-55.5 155t-87.5 97.5t-114.5 34q-52 0 -89.5 -10.5t-64.5 -22.5 t-44 -22.5t-27 -10.5q-22 0 -22 59q0 33 1 52.5t3 27.5q3 10 21 22.5t50 24t79 19t108 7.5q104 0 186.5 -44.5t139.5 -127t87.5 -200t30.5 -262.5q0 -329 -130.5 -495t-376.5 -166q-53 0 -101.5 12t-90 32t-76 45t-58.5 51q-24 -26 -59 -51t-76.5 -45t-90 -32t-100.5 -12 q-246 0 -376.5 165.5t-130.5 495.5zM482 1553h892l-88 -191h-33l-47 98h-215l-46 -98h-34l-46 98h-215l-47 -98h-33zM595 1264z" />
<glyph unicode="&#x47f;" horiz-adv-x="1353" d="M33 904q0 19 17 24.5t64 5.5q27 0 44.5 -1.5t27 -5.5t14 -10t6.5 -15l232 -702q2 -6 3 -12.5t3 -12.5q2 -7 4 -15l13 30l155 333l-117 341q-4 11 -7 23t-3 17q0 19 17 24.5t64 5.5q27 0 44.5 -1.5t27 -5.5t14 -10t6.5 -15l225 -682l17 -60l5 13q50 94 91 192.5t70 194 t44.5 183.5t15.5 159q0 18 17.5 25t68.5 7q45 0 65 -6t20 -26q0 -62 -15.5 -143.5t-44.5 -175.5t-69.5 -194.5t-91.5 -200.5q-41 -79 -66 -122.5t-34 -51.5q-14 -14 -32.5 -17t-54.5 -3q-29 0 -48.5 2t-30.5 6t-17 11t-9 16l-107 309q-22 -50 -47.5 -104.5t-47.5 -101.5 t-39 -79.5t-23 -38.5q-14 -14 -32.5 -17t-54.5 -3q-29 0 -48.5 2t-30.5 6t-17 11t-9 16l-289 835q-4 11 -7 23t-3 17zM231 1258h892l-88 -191h-33l-47 98h-215l-46 -98h-34l-46 98h-215l-47 -98h-33zM344 969z" />
<glyph unicode="&#x480;" horiz-adv-x="1066" d="M95 615q0 156 40.5 280t113.5 209t175 130t226 45q56 0 107.5 -10t95.5 -26t78 -36t47 -34q14 -13 17.5 -20t5.5 -16q6 -18 6 -52q0 -74 -30 -74q-15 0 -39 19t-62.5 42t-93.5 42t-133 19q-84 0 -152.5 -34.5t-117.5 -99t-76 -159t-27 -215.5q0 -120 26 -212.5 t74.5 -154.5t118.5 -93.5t159 -31.5q44 0 72.5 5.5t44.5 5.5q14 0 18 -15t4 -60v-393q0 -16 -17.5 -23.5t-66.5 -7.5t-66.5 7.5t-17.5 23.5v308q-122 1 -220 42.5t-167 121.5t-106 197.5t-37 269.5z" />
<glyph unicode="&#x481;" horiz-adv-x="845" d="M88 453q0 130 31.5 223.5t87 153.5t130 88t161.5 28q42 1 81.5 -7t73.5 -21.5t58.5 -29t37.5 -28.5q10 -11 16 -18.5t8 -16.5t2.5 -20.5t1.5 -29.5q0 -38 -8.5 -53t-21.5 -15q-14 0 -33.5 16t-48.5 35.5t-70.5 36t-98.5 16.5q-117 0 -178.5 -89t-61.5 -260 q0 -172 63 -256.5t181 -84.5q27 0 48.5 4.5t38 10.5t26 10t14.5 4q11 0 16 -11.5t5 -50.5v-413q0 -15 -16 -22.5t-65 -7.5q-48 0 -64 7.5t-16 22.5v306h-8q-95 0 -168 31.5t-122.5 91.5t-75 148t-25.5 201z" />
<glyph unicode="&#x482;" horiz-adv-x="1218" d="M87 561q0 18 8.5 34.5t19.5 30.5t23 22.5t20 8.5q7 0 13 -3l278 -160l195 338l-278 160q-15 7 -14 28q0 18 8 34.5t19.5 30.5t23.5 22.5t20 8.5q7 0 13 -3l278 -160l178 308q8 13 24 12q17 0 35.5 -8.5t33.5 -20.5t25.5 -24t10.5 -19q0 -8 -4 -13l-178 -307l278 -161 q14 -8 14 -28q0 -19 -8.5 -35.5t-19.5 -30.5t-23.5 -22t-18.5 -8q-9 0 -14 4l-277 160l-196 -338l279 -161q14 -8 13 -28q0 -19 -8 -35.5t-19.5 -30.5t-23.5 -22t-19 -8q-9 0 -14 4l-277 160l-178 -308q-8 -13 -22 -13q-17 0 -35.5 9t-34 21t-26.5 25t-11 20q0 5 3 10 l178 308l-277 160q-15 7 -15 28z" />
<glyph unicode="&#x483;" horiz-adv-x="0" d="M-842 936zM-814 1157q0 55 21 75.5t77 20.5h436q5 43 27 67.5t69 24.5q55 0 76 -25t21 -78q0 -55 -21.5 -75.5t-77.5 -20.5h-436q-6 -43 -27.5 -67t-68.5 -24q-55 0 -75.5 24.5t-20.5 77.5z" />
<glyph unicode="&#x484;" horiz-adv-x="0" d="M-841 936zM-813 1136q0 34 8.5 41.5t28.5 7.5q71 0 134.5 20t121.5 44t112.5 44t109.5 20q50 0 89 -14.5t66 -40t41.5 -61t14.5 -76.5q0 -26 -12.5 -33.5t-43.5 -7.5q-39 0 -49 5t-10 20q0 44 -28 74t-72 30q-40 0 -88.5 -20t-106 -44.5t-126.5 -44.5t-150 -20 q-13 0 -20.5 2t-12 8t-6 17t-1.5 29z" />
<glyph unicode="&#x485;" horiz-adv-x="0" d="M-545 1288q0 27 5 44.5t16.5 27t29 12.5t41.5 3t42.5 -3t30 -11.5t17 -24.5t5.5 -41q0 -28 -7 -44.5t-18 -24.5t-25.5 -10.5t-30.5 -2.5q0 -15 2.5 -25.5t7.5 -19t12 -15.5l16 -16l33 -30q8 -6 11 -11.5t3 -13.5q0 -9 -7 -13t-32 -4q-19 0 -31.5 2t-23.5 8t-20.5 16 t-22.5 25l-16 21q-14 17 -21.5 36t-11.5 39t-4.5 39.5t-0.5 36.5z" />
<glyph unicode="&#x486;" horiz-adv-x="0" d="M-546 1082q0 8 3 14t11 11l33 30q9 9 16.5 16t12 15.5t7 19t2.5 25.5q-16 0 -30.5 2.5t-25.5 10.5t-18 24.5t-7 44.5q0 25 5.5 41t17 24.5t29.5 11.5t43 3q24 0 42 -3t29 -12.5t16.5 -27t5.5 -44.5q0 -17 -1 -36.5t-5 -39.5t-12 -39.5t-20 -35.5l-17 -21 q-13 -16 -22.5 -25.5t-20.5 -15.5t-23.5 -8t-31.5 -2q-25 0 -32 4t-7 13z" />
<glyph unicode="&#x488;" horiz-adv-x="1970" d="M20 429q0 50 11 89t35.5 65t62.5 40.5t91 14.5q50 0 88 -13.5t63 -40t38 -66t13 -92.5q0 -5 -2 -9.5t-7 -7.5t-13.5 -4t-24.5 -1q-26 0 -35.5 6t-9.5 18q-2 32 -10 54t-23 36.5t-34.5 21t-42.5 6.5q-27 0 -47.5 -8t-33 -23.5t-19.5 -38t-9 -48.5q0 -7 -2.5 -11t-7 -7 t-14 -4.5t-23.5 -1.5q-26 0 -35 6t-9 19zM135 -60q0 50 11 89t35.5 65.5t62.5 40.5t91 14q50 0 88 -13t63.5 -40t37.5 -66q13 -38 13 -92q0 -5 -2 -9.5t-7 -7.5t-13.5 -4t-24.5 -1q-26 0 -35.5 5.5t-9.5 17.5q-2 32 -10 54.5t-23 37t-34.5 21t-42.5 6.5q-27 0 -47 -8 t-33 -23.5t-19.5 -38t-8.5 -49.5q0 -7 -2.5 -10.5t-7.5 -6.5t-14.5 -4.5t-22.5 -1.5q-26 0 -35.5 6t-9.5 18zM135 905q0 50 11 89t35.5 65.5t62.5 40.5t91 14q50 0 88 -13t63.5 -40t38 -66t12.5 -93q0 -5 -2 -9t-7 -7t-13.5 -4t-24.5 -1q-26 0 -35.5 5.5t-9.5 17.5 q-2 32 -10 54t-23 37t-34.5 21t-42.5 6q-27 0 -47 -7.5t-33 -23t-19.5 -38t-8.5 -49.5q0 -7 -2.5 -10.5t-7.5 -6.5t-14.5 -4.5t-22.5 -1.5q-26 0 -35.5 6t-9.5 18zM773 -330q0 50 11.5 89t36 65.5t62.5 40.5t91 14q50 0 88 -13t63 -40t38 -66t13 -93q0 -5 -2 -9.5t-7 -7.5 t-13.5 -3.5t-24.5 -0.5q-26 0 -35.5 5.5t-9.5 17.5q-2 32 -10.5 54t-23 36.5t-34 21t-42.5 6.5q-27 0 -47.5 -8t-33 -23.5t-19.5 -38t-9 -48.5q0 -7 -2.5 -11t-7 -7t-14 -4t-23.5 -1q-26 0 -35.5 5.5t-9.5 18.5zM773 1184q0 50 11.5 89t36 65t62.5 40.5t91 14.5 q50 0 88 -13.5t63 -40.5t38 -66t13 -92q0 -5 -2 -9.5t-7 -7.5t-13.5 -4t-24.5 -1q-26 0 -35.5 6t-9.5 18q-2 32 -10.5 54t-23 36.5t-34 21t-42.5 6.5q-27 0 -47.5 -8t-33 -23.5t-19.5 -38t-9 -48.5q0 -7 -2.5 -11t-7 -7t-14 -4.5t-23.5 -1.5q-26 0 -35.5 6t-9.5 19z M1420 -60q0 50 11 89t35.5 65.5t62.5 40.5t91 14q50 0 88 -13t63.5 -40t38.5 -66q12 -38 12 -92q0 -5 -2 -9.5t-6.5 -7.5t-13.5 -4t-25 -1q-26 0 -35.5 5.5t-9.5 17.5q-2 32 -10 54.5t-22.5 37t-34 21t-43.5 6.5q-27 0 -47 -8t-33 -23.5t-19.5 -38t-8.5 -49.5 q0 -7 -2.5 -10.5t-7.5 -6.5t-14 -4.5t-23 -1.5q-26 0 -35.5 6t-9.5 18zM1420 905q0 50 11 89t35.5 65.5t62.5 40.5t91 14q50 0 88 -13t63.5 -40t38 -66t12.5 -93q0 -5 -2 -9t-6.5 -7t-13.5 -4t-25 -1q-26 0 -35.5 5.5t-9.5 17.5q-2 32 -10 54t-22.5 37t-34 21t-43.5 6 q-27 0 -47 -7.5t-33 -23t-19.5 -38t-8.5 -49.5q0 -7 -2.5 -10.5t-7.5 -6.5t-14 -4.5t-23 -1.5q-26 0 -35.5 6t-9.5 18zM1546 429q0 50 11 89t35.5 65t62.5 40.5t91 14.5q50 0 88 -13.5t63.5 -40t38 -66t12.5 -92.5q0 -5 -2 -9.5t-6.5 -7.5t-13.5 -4t-25 -1q-26 0 -35.5 6 t-9.5 18q-2 32 -10 54t-22.5 36.5t-34 21t-43.5 6.5q-27 0 -47 -8t-33 -23.5t-19.5 -38t-8.5 -48.5q0 -7 -2.5 -11t-7.5 -7t-14.5 -4.5t-22.5 -1.5q-26 0 -35.5 6t-9.5 19z" />
<glyph unicode="&#x489;" horiz-adv-x="1898" d="M3 622q0 28 5.5 35.5t18.5 1.5l215 -104h100q40 0 52 -18t12 -58t-12 -57t-52 -17q-24 0 -44.5 2.5t-39 8t-36 14t-35.5 22.5l-161 107q-12 9 -17.5 21.5t-5.5 41.5zM179 -51.5q-1 8.5 12 14.5l226 78l70 70q28 28 50 24.5t50 -31.5q14 -14 22 -26t9.5 -23t-4 -22.5 t-20.5 -26.5q-34 -34 -66.5 -51t-77.5 -25l-188 -38q-15 -2 -27.5 2t-34.5 26q-20 20 -21 28.5zM332 1197q-2 15 2.5 27.5t25.5 34.5q20 20 28.5 21t14.5 -12l78 -226l71 -70q28 -28 24 -50t-32 -50q-14 -14 -25.5 -22t-23 -9.5t-23 4t-26.5 20.5q-18 18 -30 34t-21 32.5 t-15 35.5t-10 42zM800 -413l104 215v99q0 40 17.5 52.5t57.5 12.5q39 0 57 -12.5t18 -52.5q0 -24 -2.5 -44t-8 -38.5t-14.5 -36t-22 -36.5l-107 -160q-9 -12 -21.5 -18t-41.5 -6q-28 0 -35.5 5.5t-1.5 19.5zM846 1117q0 48 10 82.5t37 72.5l106 161q9 12 21 17q12 6 42 6 q28 0 35.5 -5.5t2.5 -18.5l-105 -215v-100q0 -40 -18 -52t-57 -12q-40 0 -57 12t-17 52zM1281 963.5q-3 21.5 25 49.5q18 18 33.5 30t32.5 21t36 15t41 10l189 38q15 2 27.5 -2.5t33.5 -25.5q20 -20 21.5 -28.5t-12.5 -14.5l-226 -78l-70 -71q-28 -28 -50 -24t-50 32 q-28 27 -31 48.5zM1323.5 96.5q3.5 21.5 31.5 49.5q27 27 48.5 31t49.5 -24q34 -34 51 -66t25 -77l38 -189q2 -15 -2 -27.5t-26 -33.5q-20 -20 -28.5 -21.5t-14.5 12.5l-78 226l-70 70q-28 28 -24.5 49.5zM1493 539q0 39 12.5 56.5t52.5 17.5q48 0 82.5 -10t72.5 -37 l160 -106q12 -9 17.5 -21.5t5.5 -42.5q0 -28 -5 -35t-19 -2l-215 105h-99q-40 0 -52.5 17.5t-12.5 57.5z" />
<glyph unicode="&#x48a;" horiz-adv-x="1326" d="M168 27v1212q0 15 19 23t65 8q49 0 66.5 -8t17.5 -23v-834q0 -26 -0.5 -56.5t-3.5 -58.5h2q16 24 37 59t44 69l546 823q10 14 26 21.5t54 7.5q44 0 59 -8t15 -25v-1092h133q22 0 34 -2t16.5 -7t2.5 -13t-8 -20l-184 -401q-12 -25 -40 -31t-76 -6q-29 0 -44.5 3.5 t-21.5 10t-4 15.5t9 21l152 279h-53q-49 0 -66 8t-17 22v830q0 30 1 62.5t3 59.5h-2q-16 -27 -37 -62t-43 -68l-547 -823q-6 -8 -11.5 -13.5t-14.5 -9t-22 -5t-33 -1.5q-44 0 -59 8.5t-15 24.5zM342 1592q0 10 3.5 16.5t12.5 10.5t24 6t37 2q23 0 37 -2.5t21 -7.5t9.5 -12.5 t2.5 -18.5q0 -24 10 -47.5t30 -41.5t48 -29t66 -11q36 0 63.5 11t47 29t29.5 41.5t10 51.5q0 9 2.5 16t9.5 11.5t20.5 7t35.5 2.5q23 0 38.5 -2t25 -6t13 -10.5t3.5 -16.5q0 -50 -16.5 -96t-52.5 -80.5t-92.5 -55.5t-137.5 -21q-74 0 -130.5 18t-94 51.5t-56.5 80t-19 103.5 z" />
<glyph unicode="&#x48b;" horiz-adv-x="1092" d="M149 23v881q0 16 16.5 23t63.5 7t64.5 -7.5t17.5 -22.5v-508q0 -38 -2 -76t-5 -75q22 37 45 73t49 70l378 516q6 8 12.5 14t15.5 9.5t22.5 5t32.5 1.5q42 0 57.5 -7t15.5 -24v-758h92q22 0 34 -2t16.5 -7t2.5 -13t-8 -20l-176 -386q-6 -13 -11.5 -20.5t-14.5 -11 t-23.5 -4.5t-37.5 -1q-29 0 -45 3.5t-22 9.5t-4 15.5t9 20.5l146 265h-38q-47 0 -64.5 7.5t-17.5 21.5v506q0 38 1.5 77.5t4.5 78.5q-22 -39 -49 -77t-54 -75l-373 -510q-7 -8 -13 -13.5t-13.5 -9t-20 -5t-31.5 -1.5q-43 0 -58 7.5t-15 21.5zM246 1318q0 20 16 28t61 8 q23 0 37 -2.5t21.5 -7.5t10.5 -13q2 -9 2 -19q0 -62 39.5 -103t113.5 -41q36 0 64.5 10.5t47.5 30.5t28.5 46.5t9.5 58.5q0 20 12.5 30t56.5 10q47 0 63.5 -8t16.5 -28q0 -56 -17 -104.5t-53 -85t-93 -57.5t-137 -21q-149 0 -224.5 71t-75.5 197z" />
<glyph unicode="&#x48c;" horiz-adv-x="1062" d="M10 1069q0 19 2 32t6 22t10.5 13t14.5 4h125v99q0 7 4.5 13t14.5 10t26 6t39 2q24 0 40.5 -2t26 -6t13.5 -10t4 -13v-99h231q7 0 13.5 -4t11 -13t6.5 -22t2 -32t-2 -31.5t-6.5 -21t-11 -12.5t-13.5 -4h-231v-234h190q139 0 221.5 -23.5t140.5 -70t90.5 -116t32.5 -161.5 q0 -77 -24 -146.5t-78.5 -125t-144 -89.5t-251.5 -34h-280q-12 0 -23.5 3.5t-20 11.5t-15 21.5t-6.5 31.5v932h-125q-8 0 -14.5 4t-10.5 12t-6 21.5t-2 31.5zM336 140h187q116 0 173 23.5t86.5 59t41.5 77.5t12 79q0 60 -17 105t-53 77t-90.5 49t-163.5 17h-176v-487z" />
<glyph unicode="&#x48d;" horiz-adv-x="967" d="M38 1141q0 18 2 30t6.5 19.5t10 10.5t13.5 3h108v126q0 8 3.5 13.5t12.5 9.5t24.5 5.5t39.5 1.5q23 0 38.5 -1.5t25 -5.5t13.5 -9.5t4 -13.5v-126h239q8 0 14 -3t10 -10.5t6 -20t2 -29.5t-2 -29t-6 -20t-10 -11.5t-14 -3.5h-239v-483q36 3 78 4.5t86 1.5q106 0 183 -21 t125.5 -60.5t72 -93.5t23.5 -121.5t-25 -126t-77.5 -101.5t-134.5 -68t-196 -25q-26 0 -54.5 0.5t-56 2t-54 3.5t-51.5 5q-41 5 -60.5 26.5t-19.5 65.5v991h-109q-8 0 -13 3.5t-9.5 11.5t-6.5 20t-2 29zM339 124q34 -4 73 -7t87 -3q121 0 179.5 47.5t58.5 131.5 q0 40 -12.5 72.5t-42 55.5t-76 35.5t-115.5 12.5q-41 0 -80.5 -2t-71.5 -5v-338z" />
<glyph unicode="&#x48e;" horiz-adv-x="1033" d="M168 25v1166q0 39 20.5 56t45.5 17h271q41 0 78.5 -3.5t89 -15t104.5 -42t90 -75.5t57 -104t20 -130q0 -95 -31 -171.5t-89 -130t-142.5 -83t-202.5 -29.5h-143v-455q0 -8 -4.5 -13.5t-13.5 -9t-25.5 -6t-40.5 -2.5t-40.5 2.5t-26 6t-13.5 9.5t-4 13zM336 618h151 q76 0 126.5 19.5t84.5 54.5t52 83t18 105q0 77 -29 129t-71.5 77t-88 32t-88.5 7h-155v-507zM474 759q0 11 8.5 22t31.5 25q28 22 48 20q14 0 19 -11l269 -381q4 -5 4.5 -9.5t0.5 -9.5q-1 -19 -38 -45q-18 -12 -29.5 -16.5t-18.5 -4.5q-13 0 -22 11l-268 383q-5 8 -5 16z " />
<glyph unicode="&#x48f;" horiz-adv-x="1050" d="M149 -324v1227q0 9 3 14.5t12 9.5t22.5 5.5t33.5 1.5q21 0 34 -1.5t21.5 -5.5t12 -9.5t3.5 -14.5v-118q40 41 77 71.5t74.5 50.5t77.5 30t84 10q96 0 163 -37t109.5 -101.5t62 -149.5t19.5 -181q0 -115 -25 -207t-73 -156t-119.5 -99t-163.5 -35q-39 0 -72 8t-65 24.5 t-63 42t-66 59.5v-439q0 -8 -4 -14t-13 -10t-24.5 -5.5t-40.5 -1.5q-23 0 -38.5 1.5t-25 5.5t-13 10t-3.5 14zM311 287q66 -81 125.5 -124t125.5 -43q61 0 104 29.5t70 78t39.5 109t12.5 122.5q0 67 -10 130t-35 112t-67 78.5t-105 29.5q-31 0 -61.5 -9.5t-61.5 -29.5 t-65 -52.5t-72 -80.5v-350zM546 276q0 11 8.5 22t31.5 25q28 22 48 20q14 0 19 -11l269 -381q4 -5 4.5 -9.5t0.5 -9.5q-1 -19 -38 -45q-18 -12 -29.5 -16.5t-18.5 -4.5q-13 0 -22 11l-268 383q-5 8 -5 16z" />
<glyph unicode="&#x490;" horiz-adv-x="865" d="M168 24v1171q0 34 18 51.5t44 17.5h470v249q0 8 3 13t10.5 8.5t21.5 5t36 1.5q23 0 37.5 -2t22 -6t10 -9t2.5 -12v-321q0 -37 -17.5 -54.5t-44.5 -17.5h-445v-1095q0 -8 -4 -13t-13.5 -9t-26 -6t-40.5 -2q-23 0 -40 2t-26.5 6t-13.5 9.5t-4 12.5z" />
<glyph unicode="&#x491;" horiz-adv-x="708" d="M149 24v847q0 29 13.5 43.5t36.5 14.5h347v207q0 5 3.5 9t11 7t20.5 5t33 2q21 0 33.5 -2t20 -5.5t10.5 -8t3 -8.5v-294q0 -28 -13.5 -42.5t-36.5 -14.5h-320v-760q0 -8 -4 -13t-13 -9t-24.5 -6t-40.5 -2q-23 0 -38.5 2t-25 6t-13 9.5t-3.5 12.5z" />
<glyph unicode="&#x492;" horiz-adv-x="849" d="M26 656q0 36 9 53.5t27 17.5h125v464q0 39 20.5 56t45.5 17h559q8 0 14 -4t10.5 -12.5t6.5 -22t2 -31.5q0 -19 -2 -32.5t-6.5 -21.5t-11 -12t-13.5 -4h-458v-397h224q9 0 16.5 -4.5t11.5 -13t6.5 -21.5t2.5 -32q0 -37 -9 -53t-28 -16h-224v-562q0 -8 -3.5 -13.5t-13.5 -9 t-25.5 -6t-40.5 -2.5q-23 0 -40 2.5t-27 6t-13.5 9.5t-3.5 13v562h-125q-19 0 -27.5 16t-8.5 53z" />
<glyph unicode="&#x493;" horiz-adv-x="743" d="M38 471q0 18 2 30t6.5 19.5t10 10.5t13.5 3h131v337q0 29 13.5 43.5t36.5 14.5h442q8 0 13.5 -4.5t10 -14t7 -22.5t2.5 -32q0 -20 -2.5 -33t-7 -22t-10 -13t-13.5 -4h-331v-250h241q8 0 13.5 -3t10 -10.5t6.5 -20t2 -29.5t-2 -29t-6.5 -20t-10.5 -11.5t-13 -3.5h-241 v-383q0 -8 -4 -13t-12.5 -9t-24 -6t-40.5 -2q-23 0 -38.5 2t-25 6t-13 9.5t-3.5 12.5v383h-132q-8 0 -13 3.5t-9.5 11.5t-6.5 20t-2 29z" />
<glyph unicode="&#x494;" horiz-adv-x="1063" d="M168 25v1166q0 39 20.5 56t45.5 17h559q17 0 25 -16.5t8 -53.5q0 -38 -8 -54t-25 -16h-457v-363q25 5 61.5 8t72.5 3q129 0 230 -38t170 -109.5t105.5 -176t36.5 -237.5q0 -141 -30.5 -247t-85.5 -176.5t-133 -106.5t-174 -36q-82 0 -126 11t-62 33q-10 14 -13 29.5 t-3 41.5q0 40 4.5 51.5t15.5 11.5q4 0 15.5 -5t32 -10t51 -10t73.5 -5q56 0 102.5 25.5t80 77t52 130t18.5 185.5q0 216 -94.5 315.5t-278.5 99.5q-35 0 -65.5 -4t-55.5 -12v-585q0 -16 -17.5 -23.5t-66.5 -7.5t-66.5 8t-17.5 23z" />
<glyph unicode="&#x495;" horiz-adv-x="905" d="M149 24v847q0 29 13.5 43.5t36.5 14.5h443q8 0 13 -4.5t9.5 -14t7 -22.5t2.5 -32q0 -20 -2.5 -33t-7 -22t-10 -13t-12.5 -4h-331v-250q30 3 64 3q108 0 195.5 -31.5t148 -89t93.5 -138.5t33 -178q0 -104 -28 -188.5t-77 -143.5t-116.5 -91t-147.5 -32q-70 0 -107 8 t-52 25q-4 5 -6.5 14t-4 20.5t-2 23t-0.5 21.5q0 30 3.5 40t13.5 10q3 0 13 -3.5t27 -8t42.5 -8t61.5 -3.5q47 0 86 19t67 58t44 97.5t16 137.5q0 151 -79 227t-235 76q-29 0 -53 -3v-372q0 -8 -4 -13t-13 -9t-24.5 -6t-40.5 -2q-23 0 -38.5 2t-25 6t-13 9.5t-3.5 12.5z" />
<glyph unicode="&#x496;" horiz-adv-x="1673" d="M83 26q0 3 0.5 8t2 12t4 15t6.5 19l98 286q22 66 47.5 113.5t54.5 81t66 55.5t84 36v1q-39 10 -70.5 28.5t-58 50.5t-49 77.5t-43.5 110.5l-89 264q-6 18 -9.5 31t-3.5 23q0 8 3.5 14t12.5 10t25 6t40 2q28 0 45 -2.5t26.5 -7.5t13.5 -13t8 -18l92 -298q17 -54 38 -93 t53 -65t76 -38t105 -12h58v516q0 7 3.5 13t12.5 9.5t25 6t40 2.5t40 -2.5t25.5 -6t13.5 -9.5t4 -13v-516h57q59 0 103.5 13.5t77 41t55 66.5t37.5 89l92 296q3 10 7 18t13.5 13t26.5 7.5t44 2.5q25 0 41 -2t25.5 -6t12.5 -10t3 -14q0 -11 -4 -24t-8 -30l-88 -258 q-21 -60 -42 -104t-46.5 -74.5t-58.5 -51.5t-76 -34v-2q49 -17 86 -40t66.5 -57.5t53.5 -82t46 -114.5l75 -221h112q20 0 28 -11.5t8 -36.5v-405q0 -8 -3.5 -12.5t-11.5 -7.5t-21.5 -5t-36.5 -2q-20 0 -33.5 2t-22.5 5t-12.5 8t-3.5 12v305l-18 -2l-34 -1q-27 0 -44.5 2.5 t-27.5 7.5t-14.5 12t-8.5 18l-105 319q-20 61 -46 102.5t-61 69.5t-81.5 40.5t-104.5 12.5h-57v-553q0 -8 -4 -13.5t-13.5 -9t-25.5 -6t-40 -2.5q-23 0 -39.5 2.5t-25.5 6t-12.5 9.5t-3.5 13v553h-58q-63 0 -110.5 -15t-82.5 -44t-59.5 -71t-42.5 -95l-102 -319 q-4 -11 -9 -18t-15 -12t-27 -7.5t-45 -2.5q-25 0 -41.5 2t-26 6t-13.5 10t-4 14z" />
<glyph unicode="&#x497;" horiz-adv-x="1437" d="M61 18q0 6 2 15t9 24l97 221q19 44 40 77.5t45 58t52 41.5t61 27v2q-23 8 -46 20.5t-45.5 34.5t-44 55t-42.5 82l-81 194q-5 13 -7.5 22.5t-2.5 18.5q0 5 3 9.5t11.5 7.5t23.5 4.5t39 1.5q26 0 43.5 -1.5t28.5 -5.5t16.5 -10t7.5 -14l77 -203q17 -42 34.5 -72t41 -49 t52.5 -27.5t67 -8.5h65v369q0 5 5 9.5t15 7t25.5 4t35.5 1.5q21 0 36 -1.5t25 -4t15 -7t5 -9.5v-369h65q38 0 67.5 9t53 28t43 48.5t35.5 71.5l82 203q4 8 8.5 14t13.5 10t25.5 5.5t42.5 1.5q23 0 38.5 -1.5t23.5 -4.5t11.5 -7.5t3.5 -9.5q0 -9 -3 -18.5t-8 -22.5l-84 -194 q-21 -49 -42.5 -81.5t-44 -54t-44.5 -34.5t-44 -20v-2q33 -12 61 -28.5t51.5 -41t44 -58.5t40.5 -78l61 -141h100q21 0 29.5 -8t8.5 -32v-392q0 -7 -3 -11.5t-11 -7t-22 -4.5t-32 -2q-20 0 -32.5 2t-21 4.5t-12 7t-3.5 11.5v292q-20 -3 -39 -3q-23 0 -40 2t-27.5 5.5t-15 9 t-7.5 11.5l-94 227q-19 44 -39 75.5t-44.5 51.5t-56 29t-74.5 9h-65v-397q0 -5 -5 -9.5t-15 -7.5t-25 -4.5t-36 -1.5t-36 1.5t-25 4.5t-15 7.5t-5 9.5v397h-65q-43 0 -75 -9t-57.5 -29t-45.5 -51.5t-39 -75.5l-94 -227q-2 -7 -7 -12t-14.5 -8.5t-26.5 -5.5t-43 -2 q-22 0 -38 1.5t-25.5 4.5t-13 7.5t-3.5 10.5z" />
<glyph unicode="&#x498;" horiz-adv-x="947" d="M73 159q0 30 6 41t18 11t32.5 -12.5t55 -30t83.5 -30t118 -12.5q64 0 117.5 16t91 45.5t58.5 70.5t21 91q0 54 -19.5 97.5t-58 75t-96.5 49t-133 17.5h-148q-12 0 -19 3.5t-11.5 11t-6.5 21t-2 32.5t2 31.5t6.5 21t12 12.5t17.5 4h139q64 0 117.5 14.5t91.5 43t58.5 70 t20.5 94.5q0 43 -14.5 79t-43 61t-71 39t-100.5 14q-62 0 -111 -13.5t-84 -29.5t-59.5 -29.5t-36.5 -13.5q-7 0 -11 3t-7 10t-3.5 20t-0.5 31q0 13 0.5 25t3 22t6.5 18t12 16t37 23t72 28.5t97.5 22.5t116.5 9q94 0 164 -22.5t117 -63.5t70 -98.5t23 -127.5 q0 -64 -19 -115.5t-51.5 -89t-76.5 -61.5t-93 -33v-3q59 -7 109.5 -33.5t87.5 -68t58.5 -96t21.5 -116.5q0 -84 -30.5 -152.5t-90.5 -118t-148 -76t-202 -26.5q-63 0 -114 10t-88.5 23.5t-58.5 25.5t-29 19t-12.5 14.5t-6.5 19t-4 27.5t-2 39zM275 -284q0 15 1.5 24t5 14 t9 7t12.5 2h112q36 0 53.5 12.5t17.5 37.5q0 17 -8.5 36t-37.5 48l-103 103h173l56 -56q25 -25 40.5 -46t23 -39.5t10 -34.5t2.5 -32q0 -37 -14 -64.5t-39.5 -46t-62 -28t-80.5 -9.5q-39 0 -73 4t-66 13q-9 3 -15.5 6.5t-9.5 9.5t-5 15t-2 24z" />
<glyph unicode="&#x499;" horiz-adv-x="845" d="M73 138q0 16 2 26.5t5 17t7 10t11 3.5q11 0 29.5 -13t51 -29t80 -30t116.5 -14q49 0 88 10.5t66.5 30.5t42.5 50t15 71q0 34 -14.5 61t-46 46t-80.5 30t-118 11h-98q-10 0 -15.5 3.5t-10 10.5t-6 19.5t-1.5 28.5t2 28t6 18.5t10 10t14 3.5h95q62 0 106.5 10t74 29 t43.5 46.5t14 63.5q0 32 -13.5 56.5t-36.5 41t-56 24.5t-71 8q-60 0 -106.5 -13.5t-80 -29.5t-55 -29.5t-30.5 -13.5q-5 0 -9 2.5t-7.5 9t-5 17.5t-1.5 27q0 28 4.5 45t16 28.5t41 27t69 28t86 20.5t94.5 8q71 0 131 -15t102.5 -46t66 -76t23.5 -106q0 -36 -12 -68.5 t-34 -60t-54 -49t-71 -33.5l-2 -1q38 -4 75 -22t66.5 -46.5t47.5 -68t18 -87.5q0 -66 -26.5 -119t-76 -90.5t-120.5 -57.5t-162 -20q-51 0 -95.5 7.5t-81 19t-61.5 24.5t-35 21.5t-15 16t-7 16.5t-3.5 21.5t-1.5 30.5zM225 -284q0 15 1.5 24t5 14t9 7t12.5 2h112 q36 0 53.5 12.5t17.5 37.5q0 17 -8.5 36t-37.5 48l-103 103h173l56 -56q25 -25 40.5 -46t23 -39.5t10 -34.5t2.5 -32q0 -37 -14 -64.5t-39.5 -46t-62 -28t-80.5 -9.5q-39 0 -73 4t-66 13q-9 3 -15.5 6.5t-9.5 9.5t-5 15t-2 24z" />
<glyph unicode="&#x49a;" horiz-adv-x="1161" d="M168 25v1214q0 7 4 13t13.5 9.5t26.5 6t40 2.5q24 0 40.5 -2.5t26 -6t13.5 -9.5t4 -13v-516h70q59 0 103 14t77.5 42.5t59.5 72t46 102.5l96 275q3 10 8 18t14.5 13t26.5 7.5t45 2.5q25 0 40.5 -2t25 -6t12.5 -10t3 -14q0 -11 -3.5 -24t-9.5 -30l-100 -263 q-21 -60 -44.5 -103t-50.5 -73.5t-59.5 -50.5t-72.5 -32v-2q46 -17 81.5 -38.5t66 -54t56 -78t49.5 -108.5l94 -236h111q20 0 28 -11.5t8 -36.5v-405q0 -8 -3.5 -12.5t-11 -7.5t-21.5 -5t-37 -2q-20 0 -33.5 2t-22.5 5t-12 8t-3 12v302h-43q-33 0 -50.5 2.5t-27.5 7.5 t-15.5 12t-8.5 18l-116 309q-23 62 -51.5 106t-65 73t-83.5 42.5t-106 13.5h-70v-553q0 -8 -4 -13.5t-13.5 -9t-26 -6t-40.5 -2.5q-23 0 -40 2.5t-26.5 6t-13.5 9.5t-4 13z" />
<glyph unicode="&#x49b;" horiz-adv-x="988" d="M149 19v892q0 5 4.5 9.5t14.5 7.5t25.5 4.5t35.5 1.5q21 0 36.5 -1.5t25.5 -4.5t15 -7.5t5 -9.5v-368h68q37 0 68 8.5t56 27.5t45 49t37 73l82 202q2 8 7 14t14.5 10t25.5 5.5t43 1.5q23 0 38.5 -1.5t23.5 -4.5t11 -7.5t3 -9.5q0 -9 -2.5 -18.5t-7.5 -22.5l-84 -193 q-20 -49 -42.5 -82t-46 -55t-48 -34.5t-46.5 -19.5v-2q34 -12 62.5 -28.5t53.5 -40.5t46.5 -58t40.5 -78l62 -142h101q21 0 29.5 -8t8.5 -32v-392q0 -7 -3 -11.5t-11 -7t-22 -4.5t-32 -2q-20 0 -32.5 2t-21 4.5t-12 7t-3.5 11.5v289h-39q-24 0 -41 2t-28 5.5t-16 9t-7 11.5 l-93 228q-18 44 -38 75.5t-46.5 51t-59.5 28.5t-76 9h-68v-395q0 -5 -5 -10t-15 -8t-25.5 -5t-36.5 -2t-36 2t-25 5t-14.5 8t-4.5 10z" />
<glyph unicode="&#x49c;" horiz-adv-x="1085" d="M168 25v1214q0 7 4 13t13.5 9.5t26.5 6t40 2.5q24 0 40.5 -2.5t26 -6t13.5 -9.5t4 -13v-516h70h28v128q0 27 0.5 45.5t5.5 29.5t16 15.5t31 4.5q21 0 31.5 -4t15.5 -15.5t5.5 -29t0.5 -43.5v-105q25 12 46 30q34 28 60 72t46 103l96 275q3 10 8 18t14.5 13t26.5 7.5 t45 2.5q25 0 40.5 -2t25 -6t12.5 -10t3 -14q0 -11 -3.5 -24t-9.5 -30l-100 -263q-21 -60 -44.5 -103t-50.5 -73.5t-59.5 -50.5t-72.5 -32v-2q46 -17 81.5 -38.5t66 -54t56 -78t49.5 -108.5l119 -301q10 -25 12 -35.5t2 -18.5q0 -9 -4 -14.5t-13.5 -9.5t-26 -6t-40.5 -2 q-28 0 -45.5 2.5t-27.5 7.5t-15.5 12t-8.5 18l-116 309q-23 62 -51.5 106t-65.5 72q-25 21 -55 33v-112q0 -27 -1 -45.5t-6 -29.5t-16 -15.5t-32 -4.5q-20 0 -30.5 4t-15 15.5t-5 29t-0.5 43.5v138q-14 1 -28 1h-70v-553q0 -8 -4 -13.5t-13.5 -9t-26 -6t-40.5 -2.5 q-23 0 -40 2.5t-26.5 6t-13.5 9.5t-4 13z" />
<glyph unicode="&#x49d;" horiz-adv-x="927" d="M149 19v892q0 5 4.5 9.5t14.5 7.5t25.5 4.5t35.5 1.5q21 0 36.5 -1.5t25.5 -4.5t15 -7.5t5 -9.5v-368h68h8v120q0 27 0.5 46t5.5 29.5t16 15.5t31 5q21 0 31.5 -4.5t15.5 -15.5t5.5 -29t0.5 -44v-95l10 7q25 20 45 50t37 73l82 202q2 8 7 14t14.5 10t25.5 5.5t43 1.5 q23 0 38.5 -1.5t23.5 -4.5t11 -7.5t3 -9.5q0 -9 -2.5 -18.5t-7.5 -22.5l-84 -193q-20 -49 -42.5 -82t-46 -55t-48 -34.5t-46.5 -19.5v-2q34 -12 62.5 -28.5t53.5 -40.5t46.5 -58t40.5 -78l96 -222q4 -7 6 -13t3 -11.5t1.5 -8.5t0.5 -6q0 -6 -3.5 -10.5t-12.5 -7.5t-24 -4.5 t-39 -1.5q-27 0 -44 2t-28 5.5t-16 9t-7 11.5l-93 228q-18 44 -38 75.5t-46 51.5q-11 7 -22 13v-96q0 -27 -1 -46t-6 -29.5t-16 -15.5t-32 -5q-20 0 -30.5 4.5t-15 15.5t-5 29t-0.5 44v123h-8h-68v-395q0 -5 -5 -10t-15 -8t-25.5 -5t-36.5 -2t-36 2t-25 5t-14.5 8t-4.5 10z " />
<glyph unicode="&#x49e;" horiz-adv-x="1103" d="M26 1020q0 36 9 53t27 17h124v149q0 7 3.5 13t13.5 9.5t26.5 6t40.5 2.5t40 -2.5t26 -6t14 -9.5t4 -13v-149h224q9 0 16.5 -4.5t11.5 -13t6.5 -21.5t2.5 -31q0 -37 -9 -53.5t-28 -16.5h-224v-227h70q59 0 102.5 14t77.5 42.5t59.5 72t46.5 102.5l96 275q3 10 7.5 18 t14.5 13t27 7.5t44 2.5q25 0 41 -2t25.5 -6t12 -10t2.5 -14q0 -11 -3 -24t-9 -30l-101 -263q-21 -60 -44 -103t-50.5 -73.5t-59.5 -50.5t-72 -32v-2q46 -17 81.5 -38.5t65.5 -54t55.5 -78t50.5 -108.5l119 -301q10 -25 11.5 -35.5t1.5 -18.5q0 -9 -3.5 -14.5t-13 -9.5 t-26 -6t-41.5 -2q-28 0 -45 2.5t-27.5 7.5t-15.5 12t-8 18l-117 309q-23 62 -51.5 106t-65 73t-83.5 42.5t-105 13.5h-70v-553q0 -8 -4 -13.5t-14 -9t-26 -6t-40 -2.5q-23 0 -40 2.5t-27 6t-13.5 9.5t-3.5 13v925h-124q-19 0 -27.5 16t-8.5 54z" />
<glyph unicode="&#x49f;" horiz-adv-x="979" d="M38 1141q0 18 2 30t6.5 19.5t10 10.5t13.5 3h131v134q0 5 4.5 9.5t14 7t25.5 4t36 1.5q21 0 36.5 -1.5t25.5 -4t14.5 -7t4.5 -9.5v-134h241q8 0 13.5 -3t10 -10.5t6.5 -20t2 -29.5t-2 -29t-6.5 -20t-10.5 -11.5t-13 -3.5h-241v-534h69q37 0 67.5 8.5t56 27.5t45.5 49 t37 73l82 202q2 8 6.5 14t14.5 10t26 5.5t43 1.5q23 0 38 -1.5t23.5 -4.5t11.5 -7.5t3 -9.5q0 -9 -2.5 -18.5t-7.5 -22.5l-84 -193q-20 -49 -42.5 -82t-46 -55t-48 -34.5t-47.5 -19.5v-2q34 -12 63 -28.5t54 -40.5t46.5 -58t40.5 -78l96 -222q4 -7 6 -13t3 -11.5t1.5 -8.5 t0.5 -6q0 -6 -3.5 -10.5t-12.5 -7.5t-24.5 -4.5t-38.5 -1.5q-27 0 -44.5 2t-28 5.5t-15.5 9t-7 11.5l-94 228q-18 44 -37.5 75.5t-46 51t-59.5 28.5t-76 9h-69v-395q0 -5 -4.5 -10t-14.5 -8t-25.5 -5t-36.5 -2t-36.5 2t-25 5t-14 8t-4.5 10v1058h-132q-8 0 -13 3.5 t-9.5 11.5t-6.5 20t-2 29z" />
<glyph unicode="&#x4a0;" horiz-adv-x="1261" d="M15 1192q0 40 8.5 56t24.5 16h398q25 0 45.5 -17t20.5 -56v-468h70q59 0 103 14t77.5 42.5t59.5 72t46 102.5l96 275q3 10 8 18t14.5 13t26.5 7.5t45 2.5q25 0 40.5 -2t25 -6t12.5 -10t3 -14q0 -11 -3.5 -24t-9.5 -30l-101 -263q-21 -60 -44 -103t-50.5 -73.5 t-59.5 -50.5t-72 -32v-2q46 -17 81.5 -38.5t66 -54t55.5 -78t50 -108.5l119 -301q10 -25 12 -35.5t2 -18.5q0 -9 -4 -14.5t-13.5 -9.5t-26 -6t-40.5 -2q-28 0 -45.5 2.5t-27.5 7.5t-15.5 12t-8.5 18l-116 309q-23 62 -51.5 106t-65.5 73t-83.5 42.5t-105.5 13.5h-70v-553 q0 -8 -4 -13.5t-14 -9t-26 -6t-40 -2.5q-23 0 -40 2.5t-26.5 6t-13.5 9.5t-4 13v1096h-296q-8 0 -14.5 3.5t-10 12.5t-6 22t-2.5 33z" />
<glyph unicode="&#x4a1;" horiz-adv-x="1069" d="M10 857q0 38 8.5 55t24.5 17h363q21 0 33.5 -12.5t12.5 -38.5v-335h69q37 0 67.5 8.5t56 27.5t45.5 49t37 73l82 202q2 8 6.5 14t14.5 10t26 5.5t42 1.5q23 0 38.5 -1.5t24 -4.5t11.5 -7.5t3 -9.5q0 -9 -2.5 -18.5t-7.5 -22.5l-84 -193q-20 -49 -43 -82t-46 -55 t-47.5 -34.5t-47.5 -19.5v-2q34 -12 63 -28.5t54 -40.5t46.5 -58t39.5 -78l97 -222q4 -7 6 -13t3 -11.5t1.5 -8.5t0.5 -6q0 -6 -3.5 -10.5t-13 -7.5t-24.5 -4.5t-38 -1.5q-27 0 -44.5 2t-28 5.5t-15.5 9t-7 11.5l-94 228q-18 44 -37.5 75.5t-46 51t-60 28.5t-75.5 9h-69 v-395q0 -5 -5 -10t-14.5 -8t-25 -5t-36.5 -2t-36.5 2t-25 5t-14 8t-4.5 10v764h-248q-8 0 -14 4t-10 13.5t-6.5 23t-2.5 33.5z" />
<glyph unicode="&#x4a2;" horiz-adv-x="1285" d="M168 25v1213q0 8 4 14t13.5 9.5t26.5 6t40 2.5q24 0 40.5 -2.5t26 -6t13.5 -9.5t4 -14v-506h575v506q0 8 4 14t13.5 9.5t25.5 6t41 2.5q23 0 39.5 -2.5t26 -6t13.5 -9.5t4 -14v-1093h128q20 0 28 -11.5t8 -36.5v-405q0 -8 -3.5 -12.5t-11 -7.5t-21.5 -5t-37 -2 q-20 0 -33.5 2t-22.5 5t-12 8t-3 12v302h-103q-25 0 -41 2.5t-25.5 6t-13.5 9.5t-4 13v561h-575v-561q0 -8 -4 -13.5t-13.5 -9t-26 -6t-40.5 -2.5q-23 0 -40 2.5t-26.5 6t-13.5 9.5t-4 13z" />
<glyph unicode="&#x4a3;" horiz-adv-x="1110" d="M149 24v879q0 8 3.5 13.5t13 10t25 6t38.5 1.5q24 0 40 -1.5t25 -6t13 -10t4 -13.5v-357h448v357q0 8 4 13.5t12.5 10t24 6t40.5 1.5q23 0 39 -1.5t24.5 -6t12.5 -10t4 -13.5v-764h119q22 0 32 -9t8 -31v-398q0 -6 -3.5 -9.5t-11.5 -6t-20.5 -4t-29.5 -1.5 q-19 0 -32.5 1.5t-22 4t-12 6t-3.5 8.5v294h-104q-24 0 -40 2t-24.5 6t-12.5 9.5t-4 12.5v386h-448v-386q0 -8 -4 -13t-13 -9t-24.5 -6t-40.5 -2q-23 0 -38.5 2t-25 6t-13 9.5t-3.5 12.5z" />
<glyph unicode="&#x4a4;" horiz-adv-x="1422" d="M168 25v1213q0 8 4 14t13.5 9.5t26.5 6t40 2.5q24 0 40.5 -2.5t26 -6t13.5 -9.5t4 -14v-506h575v459q0 39 20 56t46 17h398q16 0 24.5 -16t8.5 -56q0 -21 -2.5 -33.5t-6 -21.5t-10 -12.5t-14.5 -3.5h-296l-1 -2v-1094q0 -8 -4 -13.5t-13.5 -9t-25.5 -6t-40 -2.5 q-25 0 -41 2.5t-25.5 6t-13.5 9.5t-4 13v561h-575v-561q0 -8 -4 -13.5t-13.5 -9t-26 -6t-40.5 -2.5q-23 0 -40 2.5t-26.5 6t-13.5 9.5t-4 13z" />
<glyph unicode="&#x4a5;" horiz-adv-x="1210" d="M149 24v879q0 8 3.5 13.5t13 10t25 6t38.5 1.5q24 0 40 -1.5t25 -6t13 -10t4 -13.5v-357h448v332q0 26 12.5 38.5t33.5 12.5h363q16 0 24.5 -16.5t8.5 -55.5q0 -21 -2.5 -34t-6.5 -22.5t-10 -13.5t-14 -4h-248v-759q0 -8 -4 -13t-12.5 -9t-24.5 -6t-39 -2q-24 0 -40 2 t-24.5 6t-12.5 9.5t-4 12.5v386h-448v-386q0 -8 -4 -13t-13 -9t-24.5 -6t-40.5 -2q-23 0 -38.5 2t-25 6t-13 9.5t-3.5 12.5z" />
<glyph unicode="&#x4a6;" horiz-adv-x="1804" d="M168 24v1171q0 34 17 51.5t44 17.5h788q27 0 42.5 -17.5t15.5 -51.5v-435q25 5 62 8.5t74 3.5q129 0 230 -38t170.5 -109.5t105.5 -176t36 -237.5q0 -141 -30.5 -247t-85.5 -176.5t-133 -106.5t-174 -36q-82 0 -126 11t-61 33q-10 14 -13.5 29.5t-3.5 41.5q0 40 4.5 51.5 t15.5 11.5q4 0 15.5 -5t32 -10t51 -10t73.5 -5q56 0 102.5 25.5t80 77t52 130t18.5 185.5q0 216 -94.5 315.5t-278.5 99.5q-36 0 -66 -4.5t-57 -12.5v-585q0 -8 -4 -13t-13.5 -9t-25.5 -6t-41 -2q-23 0 -39.5 2t-26 6t-14 9.5t-4.5 12.5v1094h-571v-1094q0 -8 -4.5 -13 t-13.5 -9t-25.5 -6t-40.5 -2t-40.5 2t-26 6t-13.5 9.5t-4 12.5z" />
<glyph unicode="&#x4a7;" horiz-adv-x="1485" d="M149 24v847q0 29 13.5 43.5t36.5 14.5h644q23 0 36 -14.5t13 -43.5v-337q30 3 63 3q108 0 195.5 -31.5t148 -89t93.5 -138.5t33 -178q0 -104 -28 -188.5t-77 -143.5t-116.5 -91t-147.5 -32q-70 0 -107 8t-52 25q-4 5 -6.5 14t-4 20.5t-2 23t-0.5 21.5q0 30 3.5 40 t13.5 10q3 0 13 -3.5t27 -8t42.5 -8t61.5 -3.5q47 0 86 19t67.5 58t44 97.5t15.5 137.5q0 151 -79 227t-235 76q-28 0 -52 -3v-372q0 -8 -4 -13t-13 -9t-24.5 -6t-38.5 -2q-24 0 -40 2t-25.5 6t-13.5 9.5t-4 12.5v768h-418v-768q0 -8 -4 -13t-13.5 -9t-25 -6t-39.5 -2 q-23 0 -38.5 2t-25 6t-13 9.5t-3.5 12.5z" />
<glyph unicode="&#x4a8;" horiz-adv-x="1274" d="M95 615q0 156 40.5 280t113.5 209t175 130t226 45q34 0 67.5 -4.5t58.5 -14.5q20 -7 27 -30q2 -9 4 -21.5t2 -29.5q0 -38 -8 -53t-23 -15q-5 0 -18.5 3.5t-31.5 7.5t-39 7.5t-40 3.5q-84 0 -152.5 -34.5t-117.5 -99t-76 -159t-27 -215.5q0 -120 26 -212.5t74.5 -154.5 t118.5 -93.5t159 -31.5q15 0 29.5 1t28.5 3q-68 91 -108.5 208t-40.5 250q0 115 24 198t65.5 136.5t98.5 79t122 25.5t123 -24t101 -77.5t67.5 -138.5t24.5 -207q0 -157 -58.5 -280.5t-155.5 -202.5q57 -29 120 -30q19 0 39.5 3.5t38.5 7.5t32 7.5t19 3.5q15 0 22.5 -15 t7.5 -53q0 -18 -2 -30.5t-4 -20.5q-7 -22 -26 -30q-25 -10 -58.5 -14.5t-67.5 -4.5q-72 0 -139 24t-127 68q-94 -35 -199 -36q-123 0 -222 41t-169 121.5t-107.5 198t-37.5 270.5zM741 587q0 -125 33 -222t86 -165q73 57 112.5 153t39.5 221q0 72 -8.5 132.5t-25.5 104 t-42.5 67t-59.5 23.5q-35 0 -60.5 -23.5t-42 -65t-24.5 -99.5t-8 -126z" />
<glyph unicode="&#x4a9;" horiz-adv-x="1089" d="M87 455q0 116 33.5 207.5t95 155t147.5 96.5t190 33q28 0 58.5 -4.5t52.5 -10.5q21 -7 25 -24.5t4 -43.5q0 -32 -8.5 -44.5t-22.5 -12.5q-7 0 -13 1t-14 3q-14 3 -33.5 6.5t-48.5 3.5q-67 0 -122 -24t-93.5 -69.5t-60 -112.5t-21.5 -152q0 -171 79 -259t222 -88 q8 0 16.5 0.5t13.5 2.5q-53 65 -83.5 144t-30.5 181q0 81 20.5 139t56 95t84 54t103.5 17q56 0 105 -16.5t85.5 -53t58 -96t21.5 -145.5q0 -122 -46 -207t-122 -144q20 -8 43 -11.5t45 -3.5q27 0 44.5 2.5t29 6t18 6t12.5 2.5q17 0 23.5 -13.5t6.5 -46.5q0 -24 -5 -39 q-7 -20 -30 -27q-22 -8 -50 -12t-56 -4q-61 0 -118.5 17t-107.5 49q-38 -13 -75.5 -19t-80.5 -6q-104 0 -187 30.5t-142 90t-90.5 146.5t-31.5 200zM635 438q0 -95 27.5 -159.5t72.5 -111.5q55 41 82 105.5t27 162.5q0 44 -7 80.5t-20 62.5t-32.5 41t-46.5 15 q-26 0 -45.5 -15t-32.5 -40.5t-19 -62t-6 -78.5z" />
<glyph unicode="&#x4aa;" horiz-adv-x="1066" d="M95 615q0 157 40.5 280.5t113.5 208.5t175 130t226 45q55 0 107 -10t95.5 -25.5t78 -36t47.5 -34t17 -20.5t6.5 -16t4 -21.5t1.5 -30.5q0 -20 -2 -33.5t-6 -22.5t-9.5 -13.5t-12.5 -4.5q-14 0 -38.5 19t-63 42t-93.5 42t-133 19q-84 0 -152.5 -34t-117.5 -99t-76 -159.5 t-27 -215.5q0 -120 26 -212.5t74.5 -154.5t118.5 -93.5t159 -31.5q75 0 131.5 18.5t96 41.5t65 41.5t39.5 18.5q7 0 12 -3t8 -11.5t4.5 -23t1.5 -36.5q0 -16 -1 -27.5t-3.5 -20.5t-6.5 -16t-13.5 -16.5t-41 -29.5t-78 -39t-106.5 -32.5t-131 -13.5q-123 0 -222 41 t-169 121.5t-107.5 198t-37.5 270.5zM461 -284q0 15 1.5 24t5 14t9 7t12.5 2h112q36 0 53.5 12.5t17.5 37.5q0 17 -8.5 36t-37.5 48l-103 103h173l56 -56q25 -25 40.5 -46t23 -39.5t10 -34.5t2.5 -32q0 -37 -14 -64.5t-39.5 -46t-62 -28t-80.5 -9.5q-39 0 -73 4t-66 13 q-9 3 -15.5 6.5t-9.5 9.5t-5 15t-2 24z" />
<glyph unicode="&#x4ab;" horiz-adv-x="845" d="M88 453q0 130 31.5 223.5t87 153t130 88t161.5 28.5q42 0 81.5 -7.5t73 -20.5t59 -29.5t37.5 -28t16.5 -18.5t7 -16.5t3.5 -21t1 -29.5q0 -38 -8.5 -53t-21.5 -15q-15 0 -34 16t-48 35.5t-70.5 36t-98.5 16.5q-116 0 -178 -89.5t-62 -259.5q0 -85 16 -149t47.5 -107 t76.5 -64t104 -21q56 0 98 17.5t72.5 38.5t51.5 38t33 17q7 0 11.5 -3.5t8 -13t5 -23.5t1.5 -34q0 -17 -1 -29t-3.5 -20t-5.5 -14.5t-15.5 -19t-41.5 -30.5t-66 -32t-80 -23t-89 -9q-95 0 -168 31.5t-122 91.5t-75 147.5t-26 201.5zM293 -284q0 15 1.5 24t5 14t9 7t12.5 2 h112q36 0 53.5 12.5t17.5 37.5q0 17 -8.5 36t-37.5 48l-103 103h173l56 -56q25 -25 40.5 -46t23 -39.5t10 -34.5t2.5 -32q0 -37 -14 -64.5t-39.5 -46t-62 -28t-80.5 -9.5q-39 0 -73 4t-66 13q-9 3 -15.5 6.5t-9.5 9.5t-5 15t-2 24z" />
<glyph unicode="&#x4ac;" horiz-adv-x="974" d="M15 1191q0 19 2.5 33t6 23t10 13t14.5 4h879q8 0 14 -4t10.5 -13t6.5 -23t2 -33t-2 -32t-6.5 -21.5t-10.5 -12.5t-14 -4h-356v-976h127q20 0 28 -11.5t8 -36.5v-405q0 -8 -3 -12.5t-11 -7.5t-21.5 -5t-37.5 -2q-20 0 -33.5 2t-22 5t-12 8t-3.5 12v302h-103 q-25 0 -40.5 2.5t-25.5 6t-14 9t-4 13.5v1096h-355q-8 0 -14.5 4t-10 12.5t-6 22t-2.5 31.5z" />
<glyph unicode="&#x4ad;" horiz-adv-x="774" d="M10 856q0 18 2.5 31.5t6.5 23t10 14t14 4.5h688q8 0 14.5 -4.5t10.5 -14t6.5 -23.5t2.5 -32q0 -20 -2 -33t-6.5 -22t-10.5 -13.5t-15 -4.5h-263v-643h119q22 0 32 -9t8 -31v-398q0 -6 -3.5 -9.5t-11.5 -6t-20.5 -4t-29.5 -1.5q-19 0 -32.5 1.5t-22 4t-12 6t-3.5 8.5v294 h-104q-24 0 -40 2t-25 6t-12.5 9.5t-3.5 12.5v758h-264q-8 0 -14.5 4.5t-10 13.5t-6 23t-2.5 33z" />
<glyph unicode="&#x4ae;" horiz-adv-x="974" d="M31.5 1239q-2.5 13 5 20t26.5 9t51 2q29 0 47.5 -2t29 -5.5t16 -10t10.5 -16.5l175 -363q24 -52 48.5 -108.5t49.5 -114.5h2q22 56 46 111t49 109l176 365q3 10 8 17t14.5 10.5t26 5.5t42.5 2q35 0 55 -2.5t27.5 -9.5t5 -19.5t-12.5 -34.5l-358 -713v-466q0 -8 -4 -13.5 t-13.5 -9t-26 -6t-40.5 -2.5t-40 2.5t-26.5 6t-14.5 9.5t-4 13v466l-357 713q-11 22 -13.5 35z" />
<glyph unicode="&#x4af;" horiz-adv-x="903" d="M33 905q0 8 4 14t13.5 9.5t24.5 4.5t37 1q28 0 45.5 -1.5t26.5 -5.5t13.5 -10t8.5 -15l248 -675l4 -12l3 12l245 675q2 9 7 15t14 10t25.5 5.5t42.5 1.5q22 0 37 -1t23 -5t11.5 -9.5t3.5 -13.5q0 -4 -0.5 -8t-1.5 -9t-2.5 -11t-3.5 -13l-335 -864v-325q0 -8 -3.5 -13.5 t-12.5 -9.5t-24.5 -5.5t-40.5 -1.5q-23 0 -38.5 1.5t-25 5.5t-13 9.5t-3.5 13.5v329l-323 860q-4 12 -6.5 21t-3 13t-0.5 7z" />
<glyph unicode="&#x4b0;" horiz-adv-x="974" d="M31.5 1239q-2.5 13 5 20t26.5 9t51 2q29 0 47.5 -2t29 -5.5t16 -10t10.5 -16.5l175 -363q24 -52 48.5 -108.5t49.5 -114.5h2q22 56 46 111t49 109l176 365q3 10 8 17t14.5 10.5t26 5.5t42.5 2q35 0 55 -2.5t27.5 -9.5t5 -19.5t-12.5 -34.5l-358 -713v-50h260 q8 0 14.5 -3.5t10.5 -12t6 -21.5t2 -32t-2 -31.5t-6 -21t-10.5 -12.5t-14.5 -4h-260v-278q0 -8 -4 -13.5t-13.5 -9t-26 -6t-40.5 -2.5t-40 2.5t-26.5 6t-14.5 9.5t-4 13v278h-257q-9 0 -15.5 4t-10.5 12t-6.5 21.5t-2.5 32.5q0 18 2.5 31t6.5 21.5t10.5 12t15.5 3.5h257v50 l-357 713q-11 22 -13.5 35z" />
<glyph unicode="&#x4b1;" horiz-adv-x="903" d="M33 905q0 8 4 14t13.5 9.5t24.5 4.5t37 1q28 0 45.5 -1.5t26.5 -5.5t13.5 -10t8.5 -15l248 -675l4 -12l3 12l245 675q2 9 7 15t14 10t25.5 5.5t42.5 1.5q22 0 37 -1t23 -5t11.5 -9.5t3.5 -13.5q0 -4 -0.5 -8t-1.5 -9t-2.5 -11t-3.5 -13l-335 -864h177q7 0 13 -3.5 t10 -10.5t6 -19q2 -11 2 -29q0 -17 -2 -29.5t-6 -19.5t-9.5 -10.5t-13.5 -3.5h-177v-200q0 -8 -3.5 -13.5t-12.5 -9.5t-24.5 -5.5t-40.5 -1.5q-23 0 -38.5 1.5t-25 5.5t-13 9.5t-3.5 13.5v200h-172q-8 0 -13.5 3.5t-10 10.5t-6.5 19q-2 14 -2 30q0 18 2 29.5t6.5 18.5 t10.5 10.5t13 3.5h172v4l-323 860q-4 12 -6.5 21t-3 13t-0.5 7z" />
<glyph unicode="&#x4b2;" horiz-adv-x="1115" d="M49.5 26.5q2.5 12.5 14.5 34.5l345 581l-329 561q-12 21 -15 34.5t4.5 21t27 9.5t53.5 2q29 0 48 -1.5t29.5 -5t15.5 -10t11 -14.5l271 -472l270 472q5 8 10 14.5t14 10t25.5 5t45.5 1.5q30 0 49 -2.5t27.5 -9.5t6.5 -20t-14 -35l-328 -557l293 -501h111q20 0 28 -11.5 t8 -36.5v-405q0 -8 -3.5 -12.5t-11 -7.5t-21.5 -5t-37 -2q-20 0 -33.5 2t-22 5t-12 8t-3.5 12v302h-38q-27 0 -44.5 2.5t-26 6.5t-14 11.5t-11.5 19.5l-276 493l-285 -503q-5 -9 -10.5 -14.5t-16 -9t-28 -5t-46.5 -1.5q-32 0 -50.5 2.5t-26 10t-5 20z" />
<glyph unicode="&#x4b3;" horiz-adv-x="923" d="M40.5 20q0.5 9 9.5 23l273 429l-259 413q-8 14 -8 23t9 15.5t28 8.5t51 2q28 0 45 -1.5t27 -4.5t14.5 -8t8.5 -12l200 -327l204 327q4 6 8.5 11t13 8.5t23.5 5t41 1.5q28 0 46.5 -2t27.5 -7.5t8 -15.5t-10 -24l-257 -408l213 -340h100q21 0 30 -8t9 -32v-392 q0 -7 -3 -11.5t-11.5 -7t-22 -4.5t-32.5 -2q-20 0 -32.5 2t-20.5 4.5t-11.5 7t-3.5 11.5v289h-39q-19 0 -32.5 1.5t-24 5t-15.5 8.5t-10 13l-211 348l-210 -349q-4 -7 -9.5 -12t-15.5 -8.5t-27 -5t-44 -1.5q-28 0 -46 2.5t-26.5 8.5t-8 15z" />
<glyph unicode="&#x4b4;" horiz-adv-x="1455" d="M15 1191q0 19 2.5 33t6 23t10 13t14.5 4h762q8 0 14 -4t10.5 -13t6.5 -23t2 -32.5t-2 -32t-6.5 -22t-11 -12.5t-13.5 -4h-297v-976h566v1094q0 7 4 13t14 10t26.5 6t40.5 2q23 0 39.5 -2t26 -6t13.5 -10t4 -13v-1094h128q20 0 28 -11.5t8 -36.5v-405q0 -8 -3.5 -12.5 t-11 -7.5t-21.5 -5t-37 -2q-20 0 -33.5 2t-22.5 5t-12 8t-3 12v308h-863q-27 0 -43 17t-16 51v1053h-297q-8 0 -14.5 4t-10 12.5t-6 22t-2.5 31.5z" />
<glyph unicode="&#x4b5;" horiz-adv-x="1192" d="M10 856q0 18 2.5 31.5t6.5 23t10 14t14 4.5h591q8 0 14 -4.5t10 -14t6.5 -23.5t2.5 -32q0 -20 -2 -33t-6.5 -22t-10 -13.5t-14.5 -4.5h-215v-401v-242h421v764q0 8 4 13.5t13 10t24.5 6t39.5 1.5t40 -1.5t24.5 -6t12.5 -10t4 -13.5v-764h122q23 0 31 -9t8 -31v-398 q-1 -11 -17.5 -16t-49.5 -5q-36 0 -53 5.5t-17 15.5v299h-718q-23 0 -36.5 14t-13.5 43v725h-215q-8 0 -14.5 4.5t-10 13.5t-6 23t-2.5 33z" />
<glyph unicode="&#x4b6;" horiz-adv-x="1150" d="M113 880v359q0 14 17 22.5t65 8.5t66.5 -8.5t18.5 -22.5v-347q0 -59 13 -106t45 -80t87.5 -50.5t142.5 -17.5q54 0 105.5 4t101.5 8v589q0 14 19 22.5t66 8.5q49 0 65.5 -8.5t16.5 -22.5v-1094h128q20 0 28 -11.5t8 -36.5v-405q0 -8 -3 -12.5t-11 -7.5t-21.5 -5t-37.5 -2 q-20 0 -33.5 2t-22 5t-12 8t-3.5 12v302h-102q-47 0 -66 8.5t-19 21.5v485q-57 -6 -110.5 -10.5t-108.5 -4.5q-94 0 -175 15t-140.5 57.5t-93.5 118t-34 195.5z" />
<glyph unicode="&#x4b7;" horiz-adv-x="978" d="M64 653v250q0 8 3.5 13.5t13.5 10t25 6t39 1.5t39.5 -1.5t24.5 -6t13.5 -10t4.5 -13.5v-224q0 -79 11.5 -118.5t34 -62t55 -32t76.5 -9.5q58 0 113 14.5t110 42.5v389q0 8 3.5 13.5t12.5 10t25.5 6t39.5 1.5t39 -1.5t24.5 -6t12.5 -10t4 -13.5v-764h122q23 0 31 -9t8 -31 v-398q-1 -11 -17.5 -16t-49.5 -5q-36 0 -53 5.5t-17 15.5v293h-104q-23 0 -39.5 2t-25.5 6t-12.5 9.5t-3.5 12.5v354q-55 -24 -116 -38.5t-132 -14.5q-91 0 -151.5 23.5t-96.5 64.5t-51.5 97.5t-15.5 142.5z" />
<glyph unicode="&#x4b8;" horiz-adv-x="1111" d="M113 880v359q0 7 4 13t13.5 9.5t25.5 6t39 2.5q24 0 40 -2.5t26.5 -6t14.5 -9.5t4 -13v-347q0 -59 13 -106t45 -80t88 -51q21 -7 49 -11v132q0 27 0.5 46t5.5 29.5t16 15.5t31 5q21 0 31.5 -4.5t15.5 -15.5t5.5 -28.5t0.5 -44.5v-141q47 0 92 4q52 4 102 8v589 q0 7 4.5 13t15 9.5t27 6t38.5 2.5q24 0 40 -2.5t25.5 -6t13 -9.5t3.5 -13v-1215q0 -7 -3.5 -12.5t-13 -9t-25 -6t-40.5 -2.5q-22 0 -38.5 2.5t-27 6t-15 9.5t-4.5 12v485q-57 -6 -110 -11q-42 -3 -84 -4v-126q0 -27 -1 -45.5t-6 -29.5t-16 -16t-32 -5q-20 0 -30.5 4.5 t-15 16t-5 29t-0.5 43.5v132q-49 4 -94 12q-81 16 -140.5 58t-93.5 117.5t-34 195.5z" />
<glyph unicode="&#x4b9;" horiz-adv-x="937" d="M64 653v250q0 8 3.5 13.5t13.5 10t25 6t39 1.5t39.5 -1.5t24.5 -6t13.5 -10t4.5 -13.5v-224q0 -79 11.5 -118.5t34 -62t54.5 -32.5q21 -6 46 -8v152q0 27 0.5 46t6 29.5t16 15.5t31.5 5t31.5 -4.5t15.5 -15.5t5 -28.5v-44.5v-150q19 4 38 9q56 15 110 42v389 q0 8 3.5 13.5t12.5 10t25.5 6t39.5 1.5t39 -1.5t24.5 -6t12.5 -10t4 -13.5v-879q0 -8 -4 -13t-12.5 -9t-24.5 -6t-39 -2t-39.5 2t-25.5 6t-12.5 9.5t-3.5 12.5v354q-55 -24 -116 -39l-32 -6v-131q0 -27 -0.5 -45.5t-5.5 -29.5t-16 -16t-32 -5q-20 0 -30.5 4.5t-15.5 16 t-5.5 29t-0.5 43.5v126q-87 1 -145 24q-61 23 -97 64t-51.5 97.5t-15.5 142.5z" />
<glyph unicode="&#x4ba;" horiz-adv-x="1111" d="M169 24v1215q0 7 4 13t13 9.5t25 6t40 2.5q22 0 39 -2.5t27 -6t14.5 -9.5t4.5 -13v-484q57 6 110.5 10.5t109.5 4.5q94 0 175 -15.5t140.5 -58t93 -117.5t33.5 -195v-360q0 -7 -4 -12.5t-13 -9t-25.5 -6t-39.5 -2.5q-24 0 -40 2.5t-26.5 6t-14.5 9.5t-4 12v348 q0 59 -12.5 105.5t-45 80t-88 51t-142.5 17.5q-54 0 -105 -4t-102 -9v-589q0 -7 -4.5 -12.5t-14.5 -9t-27 -6t-39 -2.5q-24 0 -40 2.5t-25 6t-13 9.5t-4 12z" />
<glyph unicode="&#x4bb;" horiz-adv-x="937" d="M149 24v879q0 8 4 13.5t13 9.5t24.5 6t38.5 2t39.5 -2t26 -6t13 -9.5t3.5 -13.5v-353q55 24 115.5 38.5t132.5 14.5q91 0 151.5 -23.5t96.5 -64.5t51 -98t15 -143v-250q0 -8 -3.5 -13t-13 -9.5t-25 -6t-38.5 -1.5q-24 0 -40 1.5t-24.5 6t-13 10t-4.5 12.5v225 q0 79 -11.5 118t-34 62t-55.5 32.5t-77 9.5q-58 0 -113 -15t-109 -42v-390q0 -8 -3.5 -13t-13 -9.5t-25.5 -6t-40 -1.5q-23 0 -38.5 1.5t-24.5 6t-13 10t-4 12.5z" />
<glyph unicode="&#x4bc;" horiz-adv-x="1490" d="M39 812q0 31 4.5 64t13.5 56q4 11 8 18t13 11.5t23.5 6.5t38.5 2q33 0 44 -5.5t11 -16.5q0 -7 -3 -14.5t-6 -20t-6 -30t-3 -43.5q0 -56 33 -80.5t98 -30.5q12 127 53 230t112 174.5t171.5 110t229.5 38.5t226 -42.5t162.5 -124t98.5 -199.5t33 -270q0 -27 -14 -44 t-47 -17h-852q4 -102 27.5 -186t73.5 -144.5t129.5 -94t195.5 -33.5q84 0 149 17t113 37.5t78.5 37.5t47.5 17q16 0 22 -14.5t6 -59.5q0 -32 -4 -47.5t-22 -32.5q-12 -11 -45.5 -28t-85 -33t-118 -28t-143.5 -12q-150 0 -261 40t-185 116t-112.5 188.5t-42.5 259.5 q-68 3 -118 15t-83 38.5t-48.5 69t-15.5 104.5zM484 728h725q-7 88 -26 163t-57.5 130t-100.5 86.5t-154 31.5q-97 0 -166 -32.5t-115.5 -88t-72 -131t-33.5 -159.5z" />
<glyph unicode="&#x4bd;" horiz-adv-x="1195" d="M24 604q0 27 4.5 55t13.5 47q4 9 8.5 15.5t13 9.5t23 5t38.5 2q33 0 44.5 -4t11.5 -12q0 -5 -3 -11.5t-6.5 -15.5t-6.5 -23.5t-3 -34.5q0 -47 31 -66t103 -21q12 93 45.5 166.5t87 125t125.5 78.5t159 27q103 0 176 -32.5t120 -89t69 -132.5t22 -162v-29q0 -38 -19 -54 t-44 -16h-576q0 -73 15 -132t49 -101t88.5 -64.5t133.5 -22.5q62 0 111 10.5t85 23t58.5 23t34.5 10.5q15 0 20.5 -14t5.5 -49q0 -25 -3 -39t-14 -24q-5 -5 -31.5 -17t-68.5 -24t-97 -21.5t-118 -9.5q-210 0 -321 112.5t-118 338.5q-87 0 -139 13.5t-80.5 37t-38 54.5 t-9.5 67zM461 550h477q3 127 -56.5 199t-175.5 72q-60 0 -104.5 -22.5t-75.5 -59.5t-47 -86t-18 -103z" />
<glyph unicode="&#x4be;" horiz-adv-x="1490" d="M39 812q0 31 4.5 64t13.5 56q4 11 8 18t13 11.5t23.5 6.5t38.5 2q33 0 44 -5.5t11 -16.5q0 -7 -3 -14.5t-6 -20t-6 -30t-3 -43.5q0 -56 33 -80.5t98 -30.5q12 127 53 230t112 174.5t171.5 110t229.5 38.5t226 -42.5t162.5 -124t98.5 -199.5t33 -270q0 -27 -14 -44 t-47 -17h-852q4 -102 27.5 -186t73.5 -144.5t129.5 -94t195.5 -33.5q84 0 149 17t113 37.5t78.5 37.5t47.5 17q16 0 22 -14.5t6 -59.5q0 -32 -4 -47.5t-22 -32.5q-11 -10 -41.5 -25.5t-76.5 -31t-106 -28t-131 -15.5v-290q0 -8 -3 -12.5t-11 -7.5t-21.5 -5t-37.5 -2 q-20 0 -33.5 2t-22 5t-12 8t-3.5 12v295q-245 27 -365.5 179.5t-128.5 418.5q-68 3 -118 15t-83 38.5t-48.5 69t-15.5 104.5zM484 728h725q-7 88 -26 163t-57.5 130t-100.5 86.5t-154 31.5q-97 0 -166 -32.5t-115.5 -88t-72 -131t-33.5 -159.5z" />
<glyph unicode="&#x4bf;" horiz-adv-x="1195" d="M24 604q0 27 4.5 55t13.5 47q4 9 8.5 15.5t13 9.5t23 5t38.5 2q33 0 44.5 -4t11.5 -12q0 -5 -3 -11.5t-6.5 -15.5t-6.5 -23.5t-3 -34.5q0 -47 31 -66t103 -21q12 93 45.5 166.5t87 125t125.5 78.5t159 27q103 0 176 -32.5t120 -89t69 -132.5t22 -162v-29q0 -38 -19 -54 t-44 -16h-576q0 -73 15 -132t49 -101t88.5 -64.5t133.5 -22.5q62 0 111 10.5t85 23t58.5 23t34.5 10.5q15 0 20.5 -14t5.5 -49q0 -25 -3 -39t-14 -24q-5 -5 -26.5 -15t-56 -20.5t-80 -20.5t-98.5 -14v-278q0 -13 -14 -19t-54 -6q-38 0 -53.5 6t-15.5 19v281 q-170 21 -260 132t-96 314q-87 0 -139 13.5t-80.5 37t-38 54.5t-9.5 67zM461 550h477q3 127 -56.5 199t-175.5 72q-60 0 -104.5 -22.5t-75.5 -59.5t-47 -86t-18 -103z" />
<glyph unicode="&#x4c0;" horiz-adv-x="503" d="M168 25v1213q0 8 4.5 14t14.5 9.5t26 6t39 2.5q24 0 40.5 -2.5t26 -6t13.5 -9.5t4 -14v-1213q0 -8 -4 -13.5t-13.5 -9t-26 -6t-40.5 -2.5q-23 0 -40 2.5t-26.5 6t-13.5 9.5t-4 13z" />
<glyph unicode="&#x4c1;" horiz-adv-x="1601" d="M83 26q0 3 0.5 8t2 12t4 15t6.5 19l98 286q22 66 47.5 113.5t54.5 81t66 55.5t84 36v1q-39 10 -70.5 28.5t-58 50.5t-49 77.5t-43.5 110.5l-89 264q-6 18 -9.5 31t-3.5 23q0 8 3.5 14t12.5 10t25 6t40 2q28 0 45 -2.5t26.5 -7.5t13.5 -13t8 -18l92 -298q17 -54 38 -93 t53 -65t76 -38t105 -12h58v516q0 7 3.5 13t12.5 9.5t25 6t40 2.5t40 -2.5t25.5 -6t13.5 -9.5t4 -13v-516h57q59 0 103.5 13.5t77 41t55 66.5t37.5 89l92 296q3 10 7 18t13.5 13t26.5 7.5t44 2.5q25 0 41 -2t25.5 -6t12.5 -10t3 -14q0 -11 -4 -24t-8 -30l-88 -258 q-21 -60 -42 -104t-46.5 -74.5t-58.5 -51.5t-76 -34v-2q49 -17 86 -40t66.5 -57.5t53.5 -82t46 -114.5l97 -286q4 -11 7 -19t4.5 -15t2.5 -12t1 -8q0 -9 -4.5 -14.5t-14 -9.5t-26 -6t-41.5 -2q-27 0 -44.5 2.5t-27.5 7.5t-14.5 12t-8.5 18l-105 319q-20 61 -46 102.5 t-61 69.5t-81.5 40.5t-104.5 12.5h-57v-553q0 -8 -4 -13.5t-13.5 -9t-25.5 -6t-40 -2.5q-23 0 -39.5 2.5t-25.5 6t-12.5 9.5t-3.5 13v553h-58q-63 0 -110.5 -15t-82.5 -44t-59.5 -71t-42.5 -95l-102 -319q-4 -11 -9 -18t-15 -12t-27 -7.5t-45 -2.5q-25 0 -41.5 2t-26 6 t-13.5 10t-4 14zM372 1264zM501 1592q0 10 3.5 16.5t12.5 10.5t24.5 6t36.5 2q23 0 37 -2.5t21 -7.5t9.5 -12.5t2.5 -18.5q0 -24 10 -47.5t30 -41.5t48.5 -29t65.5 -11q36 0 63.5 11t47.5 29t29.5 41.5t9.5 51.5q0 9 2.5 16t10 11.5t20.5 7t35 2.5q23 0 38.5 -2t25 -6 t13.5 -10.5t4 -16.5q0 -50 -17 -96t-53 -80.5t-92.5 -55.5t-137.5 -21q-74 0 -130.5 18t-94 51.5t-56.5 80t-19 103.5z" />
<glyph unicode="&#x4c2;" horiz-adv-x="1377" d="M61 18q0 6 2 15t9 24l97 221q19 44 40 77.5t45 58t52 41.5t61 27v2q-23 8 -46 20.5t-45.5 34.5t-44 55t-42.5 82l-81 194q-5 13 -7.5 22.5t-2.5 18.5q0 5 3 9.5t11.5 7.5t23.5 4.5t39 1.5q26 0 43.5 -1.5t28.5 -5.5t16.5 -10t7.5 -14l77 -203q17 -42 34.5 -72t41 -49 t52.5 -27.5t67 -8.5h65v369q0 5 5 9.5t15 7t25.5 4t35.5 1.5q21 0 36 -1.5t25 -4t15 -7t5 -9.5v-369h65q38 0 67.5 9t53 28t43 48.5t35.5 71.5l82 203q4 8 8.5 14t13.5 10t25.5 5.5t42.5 1.5q23 0 38.5 -1.5t23.5 -4.5t11.5 -7.5t3.5 -9.5q0 -9 -3 -18.5t-8 -22.5l-84 -194 q-21 -49 -42.5 -81.5t-44 -54t-44.5 -34.5t-44 -20v-2q33 -12 61 -28.5t51.5 -41t44 -58.5t40.5 -78l96 -221q3 -7 5 -13t3 -11.5t2 -8.5t1 -6q0 -6 -3.5 -10.5t-13 -7.5t-24.5 -4.5t-39 -1.5q-27 0 -44 2t-27.5 5.5t-15 9t-7.5 11.5l-94 227q-19 44 -39 75.5t-44.5 51.5 t-56 29t-74.5 9h-65v-397q0 -5 -5 -9.5t-15 -7.5t-25 -4.5t-36 -1.5t-36 1.5t-25 4.5t-15 7.5t-5 9.5v397h-65q-43 0 -75 -9t-57.5 -29t-45.5 -51.5t-39 -75.5l-94 -227q-2 -7 -7 -12t-14.5 -8.5t-26.5 -5.5t-43 -2q-22 0 -38 1.5t-25.5 4.5t-13 7.5t-3.5 10.5zM260 929z M389 1318q0 10 3.5 17t12.5 11t24.5 6t36.5 2q23 0 37 -2.5t21 -7.5t10 -13q2 -9 2 -19q0 -31 10 -57t30 -46t48.5 -30.5t65.5 -10.5q36 0 63.5 10.5t47.5 30.5t29.5 47t9.5 58q0 10 2.5 17.5t10 12.5t20.5 7.5t35 2.5q23 0 38.5 -2t25 -6t13.5 -11t4 -17q0 -56 -17 -104.5 t-53 -85t-92.5 -57.5t-137.5 -21q-74 0 -130.5 18.5t-94 53t-56.5 84.5t-19 112z" />
<glyph unicode="&#x4c3;" horiz-adv-x="1092" d="M168 25v1214q0 14 17.5 22.5t66.5 8.5t66.5 -8.5t17.5 -22.5v-516h70q58 0 102.5 13.5t78.5 42.5t59.5 72.5t45.5 102.5l96 275q3 10 8 18t14.5 13t26.5 7.5t45 2.5q25 0 40.5 -2t24.5 -6t12.5 -10t3.5 -14q0 -11 -3.5 -24t-9.5 -30l-100 -263q-34 -95 -80 -154t-105 -86 v-5q84 -21 153.5 -62t118.5 -101.5t77 -142.5q27 -80 27 -182q0 -135 -30.5 -236.5t-85.5 -169.5t-133 -102.5t-174 -34.5q-82 0 -126 11t-61 33q-10 14 -13.5 29t-3.5 42q0 40 4.5 51.5t16.5 11.5q4 0 15 -5t31.5 -10t51 -10t73.5 -5q56 0 102.5 24.5t80 73t52 123.5 t18.5 175q0 103 -29 176.5t-83 120.5t-129.5 69.5t-167.5 22.5h-114v-553q0 -16 -17.5 -23.5t-66.5 -7.5t-66.5 8t-17.5 23z" />
<glyph unicode="&#x4c4;" horiz-adv-x="952" d="M149 19v892q0 11 19 17t61 6q81 0 82 -23v-368h68q37 0 68 8.5t55.5 27.5t45 49t37.5 73l82 202q2 8 7 14t14.5 9.5t26 5.5t42.5 2q48 0 62 -6.5t14 -16.5q0 -18 -10 -41l-84 -193q-20 -49 -42 -82t-46 -54t-48.5 -33.5t-46.5 -19.5v-2q80 -15 142.5 -47.5t105.5 -82 t65.5 -114.5t22.5 -142q0 -104 -28 -188.5t-78.5 -143.5t-120 -91t-152.5 -32q-70 0 -107 8t-52 25q-4 5 -6.5 14t-4 20.5t-2 23t-0.5 21.5q0 30 3.5 40t13.5 10q3 0 13 -3.5t27 -8t42.5 -8t61.5 -3.5q51 0 92 19t70 58.5t45 99.5t16 142q0 148 -91 229.5t-261 81.5h-62 v-395q0 -11 -20 -18t-62 -7q-43 0 -61.5 7t-18.5 18z" />
<glyph unicode="&#x4c5;" horiz-adv-x="1263" d="M3 57q0 49 9 66t24 17q35 0 67.5 14.5t61.5 55t56.5 113.5t53 189.5t49.5 282.5t47 393q5 41 19.5 58.5t43.5 17.5h561q27 0 43 -17.5t16 -51.5v-1050h132q22 0 33.5 -2t16 -7t2.5 -13t-8 -20l-183 -401q-12 -25 -40 -31t-76 -6q-29 0 -45 3.5t-22 10t-4 15.5t9 21 l152 279h-52q-49 0 -66 8t-17 22v1095h-356q-26 -226 -52 -397.5t-55.5 -297.5t-65 -210.5t-81 -135.5t-102.5 -72.5t-130 -21.5q-21 0 -31 17t-10 56z" />
<glyph unicode="&#x4c6;" horiz-adv-x="1032" d="M21 56q0 47 6.5 61.5t22.5 14.5q33 0 62 15t54 49.5t47 91t41 138.5t36 192t31 252q4 58 49 58h451q23 0 36.5 -14.5t13.5 -43.5v-725h93q22 0 34 -2t16.5 -7t2.5 -13t-8 -20l-177 -386q-6 -13 -11.5 -20.5t-14 -11t-23 -4.5t-38.5 -1q-29 0 -44.5 3.5t-21.5 9.5t-4 15.5 t9 20.5l145 265h-38q-47 0 -64.5 7.5t-17.5 21.5v769h-242q-23 -234 -60.5 -390t-88.5 -248.5t-116.5 -131.5t-146.5 -39q-18 0 -26 14t-8 59z" />
<glyph unicode="&#x4c7;" horiz-adv-x="1246" d="M168 25v1213q0 16 17.5 24t66.5 8t66.5 -8t17.5 -24v-506h575v506q0 16 17.5 24t66.5 8q48 0 65.5 -8t17.5 -24v-1154q0 -108 -30 -190.5t-85.5 -138t-133.5 -83t-174 -27.5q-82 0 -126 11t-61 33q-10 14 -13.5 29t-3.5 42q0 40 4.5 51.5t16.5 11.5q4 0 15 -5t31.5 -10 t51.5 -10t74 -5q56 0 104.5 17.5t84.5 53t57 90.5t21 128v504h-575v-561q0 -16 -17.5 -23.5t-66.5 -7.5t-66.5 8t-17.5 23z" />
<glyph unicode="&#x4c8;" horiz-adv-x="1069" d="M149 24v879q0 16 16.5 23.5t63.5 7.5q49 0 65.5 -7.5t16.5 -23.5v-357h448v357q0 16 16 23.5t65 7.5q47 0 63.5 -7.5t16.5 -23.5v-872q0 -88 -28 -159.5t-76.5 -122t-116.5 -77.5t-148 -27q-70 0 -107 8t-51 25q-4 5 -7 14t-4.5 20.5t-2 23t-0.5 21.5q0 30 3.5 40 t13.5 10q3 0 13 -3.5t27 -8t42.5 -8t61.5 -3.5q47 0 87 14t69.5 43.5t46 73.5t16.5 104v391h-448v-386q0 -15 -16.5 -22.5t-65.5 -7.5q-48 0 -64 8t-16 22z" />
<glyph unicode="&#x4c9;" horiz-adv-x="1246" d="M168 25v1213q0 16 17.5 24t66.5 8t66.5 -8t17.5 -24v-506h575v506q0 16 17.5 24t66.5 8q48 0 65.5 -8t17.5 -24v-1093h133q22 0 34 -2t16.5 -7t2.5 -13t-8 -20l-184 -401q-12 -25 -40 -31t-76 -6q-29 0 -44.5 3.5t-21.5 10t-4 15.5t9 21l152 279h-53q-49 0 -66 8.5 t-17 22.5v561h-575v-561q0 -16 -17.5 -23.5t-66.5 -7.5t-66.5 8t-17.5 23z" />
<glyph unicode="&#x4ca;" horiz-adv-x="1082" d="M149 24v879q0 16 16.5 23.5t63.5 7.5q49 0 65.5 -7.5t16.5 -23.5v-357h448v357q0 16 16 23.5t65 7.5q47 0 63.5 -7.5t16.5 -23.5v-758h94q22 0 34 -2t16 -7t2 -13t-7 -20l-177 -386q-6 -13 -11.5 -20.5t-14 -11t-23.5 -4.5t-38 -1q-29 0 -45 3.5t-21.5 9.5t-3.5 15.5 t8 20.5l146 265h-38q-47 0 -64.5 8t-17.5 22v386h-448v-386q0 -15 -16.5 -22.5t-65.5 -7.5q-48 0 -64 8t-16 22z" />
<glyph unicode="&#x4cb;" horiz-adv-x="1111" d="M113 880v359q0 7 4 13t13.5 9.5t25.5 6t39 2.5q24 0 40 -2.5t26.5 -6t14.5 -9.5t4 -13v-347q0 -59 13 -106t45 -80t87.5 -50.5t142.5 -17.5q54 0 105.5 4t101.5 8v589q0 7 4.5 13t15 9.5t27 6t38.5 2.5q24 0 40 -2.5t25.5 -6t13 -9.5t3.5 -13v-1215q0 -7 -3.5 -12.5 t-13.5 -9t-25.5 -6t-41.5 -2.5h-102v-302q0 -8 -3.5 -12.5t-12.5 -7.5t-22.5 -5t-32.5 -2q-23 0 -37 2t-22 5t-11.5 8t-3.5 12v405q0 25 8.5 36.5t27.5 11.5h128v364q-57 -6 -110.5 -10.5t-108.5 -4.5q-94 0 -175 15t-140.5 57.5t-93.5 118t-34 195.5z" />
<glyph unicode="&#x4cc;" horiz-adv-x="937" d="M64 653v250q0 8 3.5 13.5t13.5 10t25 6t39 1.5t39.5 -1.5t24.5 -6t13.5 -10t4.5 -13.5v-224q0 -79 11.5 -118.5t34 -62t55 -32t76.5 -9.5q58 0 113 14.5t110 42.5v389q0 8 3.5 13.5t12.5 10t25.5 6t39.5 1.5t39 -1.5t24.5 -6t12.5 -10t4 -13.5v-879q0 -8 -4 -13t-12.5 -9 t-24.5 -6t-40 -2h-104v-294q0 -5 -3.5 -8.5t-12 -6t-22 -4t-32.5 -1.5q-18 0 -30 1.5t-20 4t-11.5 6t-3.5 9.5v398q-2 22 7.5 31t32.5 9h119v239q-55 -24 -116 -38.5t-132 -14.5q-91 0 -151.5 23.5t-96.5 64.5t-51.5 97.5t-15.5 142.5z" />
<glyph unicode="&#x4cd;" horiz-adv-x="1756" d="M168 25v1163q0 41 21.5 58.5t47.5 17.5h102q63 0 95.5 -24.5t49.5 -78.5l367 -915h4l381 912q21 60 50.5 83t77.5 23h107q29 0 50 -18q21 -16 21 -58v-1043h137q22 0 34 -2t16 -7t2 -13t-7 -20l-184 -401q-12 -25 -40 -31t-76 -6q-29 0 -45 3.5t-21.5 10t-4 15.5t8.5 21 l153 279h-53q-49 0 -66 8t-17 22v1102h-2l-450 -1105q-6 -14 -24 -20.5t-58 -6.5q-41 0 -59.5 7.5t-22.5 19.5l-431 1105h-1v-1101q0 -16 -17 -23.5t-66 -7.5q-48 0 -64 8t-16 23z" />
<glyph unicode="&#x4ce;" horiz-adv-x="1427" d="M95 15q-2 7 0 18l96 832q5 31 22 47.5t52 16.5h77q28 0 48 -4.5t34 -15.5t24 -29t19 -45l130 -374q22 -69 43.5 -137.5t37.5 -127.5h2q18 61 39 132t43 135l130 372q8 24 17 42.5t22.5 29.5t32.5 16.5t47 5.5h76q35 0 53 -15t21 -47l85 -722h113q22 0 34 -2t16.5 -7 t2.5 -13t-8 -20l-176 -386q-6 -13 -11.5 -20.5t-14.5 -11t-23.5 -4.5t-37.5 -1q-29 0 -45 3.5t-22 9.5t-4 15.5t9 20.5l146 265h-38q-47 0 -65 7.5t-18 21.5l-63 511q-6 55 -11.5 122.5t-10.5 124.5l-1 23q-9 -28 -19.5 -59.5t-21 -64t-21 -64.5t-18.5 -60l-185 -521 q-4 -12 -9.5 -19.5t-14.5 -12.5t-23.5 -7t-34.5 -2q-40 0 -57 8.5t-25 31.5l-178 522q-10 26 -20.5 58t-21 64.5t-19.5 64.5t-16 61l-1 -23q-6 -58 -13.5 -125t-10.5 -122l-61 -504q-1 -12 -5 -19t-13 -10.5t-25 -5t-41 -1.5q-23 0 -38 2t-22 7t-9 12z" />
<glyph unicode="&#x4cf;" horiz-adv-x="503" d="M168 25v1213q0 8 4.5 14t14.5 9.5t26 6t39 2.5q24 0 40.5 -2.5t26 -6t13.5 -9.5t4 -14v-1213q0 -8 -4 -13.5t-13.5 -9t-26 -6t-40.5 -2.5q-23 0 -40 2.5t-26.5 6t-13.5 9.5t-4 13z" />
<glyph unicode="&#x4d0;" horiz-adv-x="1157" d="M34.5 26q0.5 13 8.5 35l424 1173q4 11 10 18t18.5 11t31.5 5.5t48 1.5q31 0 51.5 -1.5t33.5 -5.5t20 -11.5t10 -18.5l424 -1173q8 -21 8.5 -34.5t-7.5 -20.5t-26 -9t-48 -2t-48 1.5t-27.5 5t-14 9.5t-8.5 14l-108 308h-525l-104 -304q-3 -9 -8 -15t-14 -10.5t-26 -6.5 t-45 -2t-46 2.5t-25.5 9.5t-7 20zM149 1264zM278 1592q0 10 3.5 16.5t12.5 10.5t24.5 6t36.5 2q23 0 37 -2.5t21 -7.5t9.5 -12.5t2.5 -18.5q0 -24 10 -47.5t30 -41.5t48.5 -29t65.5 -11q36 0 63.5 11t47.5 29t29.5 41.5t9.5 51.5q0 9 2.5 16t10 11.5t20.5 7t35 2.5 q23 0 38.5 -2t25 -6t13.5 -10.5t4 -16.5q0 -50 -17 -96t-53 -80.5t-92.5 -55.5t-137.5 -21q-74 0 -130.5 18t-94 51.5t-56.5 80t-19 103.5zM352 466h439l-221 630h-1z" />
<glyph unicode="&#x4d1;" horiz-adv-x="958" d="M45 929zM90 249q0 74 30 129t87 91t139 54t184 18h121v68q0 51 -10.5 90t-34.5 65t-62 39t-94 13q-60 0 -107 -14t-82.5 -31t-59.5 -31t-36 -14q-8 0 -13.5 3.5t-10 11.5t-6.5 20t-2 27q0 24 3.5 38.5t16.5 27t45 29.5t74 31.5t92 23.5t101 9q95 0 161 -21.5t107 -63 t60 -103t19 -143.5v-593q0 -12 -8 -17.5t-21.5 -8.5t-40.5 -3q-25 0 -40 3t-22 9t-7 17v88q-58 -62 -128.5 -96t-149.5 -34q-69 0 -125.5 18.5t-96 52.5t-61.5 84t-22 113zM174 1318q0 10 3.5 17t12.5 11t24.5 6t36.5 2q23 0 37 -2.5t21 -7.5t10 -13q2 -9 2 -19 q0 -31 10 -57t30 -46t48.5 -30.5t65.5 -10.5q36 0 63.5 10.5t47.5 30.5t29.5 47t9.5 58q0 10 2.5 17.5t10 12.5t20.5 7.5t35 2.5q23 0 38.5 -2t25 -6t13.5 -11t4 -17q0 -56 -17 -104.5t-53 -85t-92.5 -57.5t-137.5 -21q-74 0 -130.5 18.5t-94 53t-56.5 84.5t-19 112z M255 257q0 -68 43.5 -109t121.5 -41q63 0 117.5 32.5t113.5 98.5v187h-137q-66 0 -115 -11.5t-81.5 -33.5t-47.5 -52.5t-15 -70.5z" />
<glyph unicode="&#x4d2;" horiz-adv-x="1157" d="M34.5 26q0.5 13 8.5 35l424 1173q4 11 10 18t18.5 11t31.5 5.5t48 1.5q31 0 51.5 -1.5t33.5 -5.5t20 -11.5t10 -18.5l424 -1173q8 -21 8.5 -34.5t-7.5 -20.5t-26 -9t-48 -2t-48 1.5t-27.5 5t-14 9.5t-8.5 14l-108 308h-525l-104 -304q-3 -9 -8 -15t-14 -10.5t-26 -6.5 t-45 -2t-46 2.5t-25.5 9.5t-7 20zM151 1264zM280 1491q0 55 20 75t75 20t74.5 -19.5t19.5 -73.5q0 -55 -20.5 -75.5t-74.5 -20.5q-55 0 -74.5 20.5t-19.5 73.5zM352 466h439l-221 630h-1zM683 1491q0 55 20.5 75t74.5 20q56 0 75.5 -19.5t19.5 -73.5q0 -55 -20 -75.5 t-76 -20.5q-54 0 -74 20.5t-20 73.5z" />
<glyph unicode="&#x4d3;" horiz-adv-x="958" d="M86 929zM90 249q0 74 30 129t87 91t139 54t184 18h121v68q0 51 -10.5 90t-34.5 65t-62 39t-94 13q-60 0 -107 -14t-82.5 -31t-59.5 -31t-36 -14q-8 0 -13.5 3.5t-10 11.5t-6.5 20t-2 27q0 24 3.5 38.5t16.5 27t45 29.5t74 31.5t92 23.5t101 9q95 0 161 -21.5t107 -63 t60 -103t19 -143.5v-593q0 -12 -8 -17.5t-21.5 -8.5t-40.5 -3q-25 0 -40 3t-22 9t-7 17v88q-58 -62 -128.5 -96t-149.5 -34q-69 0 -125.5 18.5t-96 52.5t-61.5 84t-22 113zM215 1186q0 55 19 74t72 19q54 0 72.5 -19.5t18.5 -71.5q0 -54 -20 -73t-72 -19q-53 0 -71.5 19 t-18.5 71zM255 257q0 -68 43.5 -109t121.5 -41q63 0 117.5 32.5t113.5 98.5v187h-137q-66 0 -115 -11.5t-81.5 -33.5t-47.5 -52.5t-15 -70.5zM561 1186q0 55 19 74t71 19q54 0 72.5 -19.5t18.5 -71.5q0 -54 -19.5 -73t-72.5 -19t-71 19t-18 71z" />
<glyph unicode="&#x4d4;" horiz-adv-x="1526" d="M-51 20q0 7 3.5 16.5t11.5 24.5l637 1167q6 12 14 19t20.5 10.5t32 5t47.5 1.5h664q8 0 14 -4t10.5 -13t6.5 -22t2 -33q0 -18 -2 -31t-6.5 -21t-10.5 -12t-14 -4h-494v-397h424q9 0 15 -4t10 -13t6.5 -22t2.5 -32t-2.5 -31.5t-6.5 -21t-10.5 -12.5t-14.5 -4h-424v-447 h502q7 0 13 -4t10.5 -12.5t6.5 -21.5t2 -33q0 -18 -2 -31t-6.5 -21.5t-10.5 -12.5t-13 -4h-607q-23 0 -42.5 15t-19.5 53v241h-436l-150 -282q-5 -10 -11 -16t-17 -10t-29 -5.5t-47 -1.5q-21 0 -35 1t-24.5 3.5t-15 8t-4.5 13.5zM346 443h372v681h-6z" />
<glyph unicode="&#x4d5;" horiz-adv-x="1545" d="M90 248q0 75 30 130t87 91t139 54t184 18h121v68q0 51 -10.5 90t-34.5 65t-62 39t-94 13q-60 0 -107 -14t-83 -31t-60.5 -31t-36.5 -14q-8 0 -13 3.5t-9 11.5t-6 20t-2 27q0 24 3.5 38.5t16.5 27t45 29.5t74 31.5t92 23.5t101 9q62 0 110 -10.5t83.5 -30t60.5 -47.5 t41 -61q47 72 127 110.5t181 38.5t173 -33t118.5 -89.5t68.5 -132.5t22 -161v-29q0 -38 -19 -54t-42 -16h-577q0 -73 15 -132t49 -101t89.5 -64.5t135.5 -22.5q62 0 110 10.5t83.5 23t59 23t34.5 10.5q7 0 11.5 -3.5t8 -10.5t5 -19t1.5 -30q0 -13 -1 -22t-2.5 -16.5t-5 -13 t-8.5 -11t-31.5 -18t-68.5 -24t-96.5 -21t-117.5 -9.5q-67 0 -121.5 11t-98 32.5t-77 51.5t-58.5 70q-32 -38 -69.5 -68.5t-79.5 -52.5t-88 -33t-96 -11q-69 0 -125.5 18.5t-96 52.5t-61.5 84t-22 112zM255 257q0 -68 43.5 -109t121.5 -41q63 0 124 36.5t127 117.5 q-11 33 -16.5 78t-5.5 86h-135q-66 0 -115 -11.5t-81.5 -33.5t-47.5 -52.5t-15 -70.5zM812 550h477q1 63 -13 113t-43.5 85t-73.5 54t-101 19q-60 0 -105 -22.5t-75.5 -59.5t-47 -86t-18.5 -103z" />
<glyph unicode="&#x4d6;" horiz-adv-x="976" d="M87 1264zM168 68v1127q0 38 20 53.5t42 15.5h600q8 0 14.5 -4t10 -13t6 -22t2.5 -33q0 -18 -2.5 -31t-6 -21t-10 -12t-14.5 -4h-494v-396h424q8 0 14 -4.5t10.5 -12.5t6.5 -21.5t2 -32.5q0 -18 -2 -30.5t-6.5 -20t-10.5 -11t-14 -3.5h-424v-452h501q8 0 14 -4t11 -12.5 t7 -21.5t2 -33q0 -18 -2 -31t-7 -21.5t-11 -12.5t-14 -4h-607q-22 0 -42 15t-20 53zM216 1592q0 10 3.5 16.5t12.5 10.5t24.5 6t36.5 2q23 0 37 -2.5t21 -7.5t9.5 -12.5t2.5 -18.5q0 -24 10 -47.5t30 -41.5t48.5 -29t65.5 -11q36 0 63.5 11t47.5 29t29.5 41.5t9.5 51.5 q0 9 2.5 16t10 11.5t20.5 7t35 2.5q23 0 38.5 -2t25 -6t13.5 -10.5t4 -16.5q0 -50 -17 -96t-53 -80.5t-92.5 -55.5t-137.5 -21q-74 0 -130.5 18t-94 51.5t-56.5 80t-19 103.5z" />
<glyph unicode="&#x4d7;" horiz-adv-x="995" d="M84 929zM91 460q0 113 29 203.5t84.5 153.5t133.5 96.5t175 33.5q104 0 176.5 -33t119 -89t68.5 -132t22 -162v-29q0 -38 -19 -54t-43 -16h-576q0 -73 14.5 -132t48.5 -101t89 -64.5t134 -22.5q62 0 111 10.5t84.5 23t58.5 23t35 10.5q7 0 12.5 -3.5t8 -10.5t4 -19 t1.5 -30q0 -13 -1 -22t-2.5 -16.5t-4.5 -13t-8.5 -11t-32 -18t-68.5 -24t-97 -21t-118 -9.5q-108 0 -189.5 30.5t-137.5 90t-84 149.5t-28 209zM213 1318q0 10 3.5 17t12.5 11t24.5 6t36.5 2q23 0 37 -2.5t21 -7.5t10 -13q2 -9 2 -19q0 -31 10 -57t30 -46t48.5 -30.5 t65.5 -10.5q36 0 63.5 10.5t47.5 30.5t29.5 47t9.5 58q0 10 2.5 17.5t10 12.5t20.5 7.5t35 2.5q23 0 38.5 -2t25 -6t13.5 -11t4 -17q0 -56 -17 -104.5t-53 -85t-92.5 -57.5t-137.5 -21q-74 0 -130.5 18.5t-94 53t-56.5 84.5t-19 112zM261 550h476q3 127 -56 199t-175 72 q-60 0 -105 -22.5t-75 -59.5t-46.5 -86t-18.5 -103z" />
<glyph unicode="&#x4d8;" horiz-adv-x="1286" d="M98 615q0 27 13.5 44.5t46.5 17.5h852q-5 101 -28.5 185t-73.5 144.5t-129 94.5t-195 34q-84 0 -149 -17t-113 -37.5t-79 -38t-47 -17.5q-8 0 -13 3t-8.5 11.5t-5 23t-1.5 37.5q0 32 4 47.5t22 32.5q12 11 45.5 28t85 33t118 27.5t143.5 11.5q155 0 268.5 -42 t187.5 -123.5t110 -201.5t36 -276q0 -150 -36 -272t-107 -207.5t-178.5 -132t-249.5 -46.5q-129 0 -226 42.5t-162.5 124t-98 200t-32.5 269.5zM282 534q7 -88 26 -163t57.5 -130t100.5 -86.5t154 -31.5q97 0 166 32.5t115.5 88t72 130t33.5 160.5h-725z" />
<glyph unicode="&#x4d9;" horiz-adv-x="995" d="M96 397v30q0 38 19 54t43 16h576q0 73 -14.5 132t-48.5 100.5t-89 64t-134 22.5q-62 0 -111 -10t-84.5 -22.5t-58.5 -23t-35 -10.5q-7 0 -12 3.5t-8 10.5t-5 19q-1 11 -1 29q0 13 1 22.5t2.5 16.5t5 13t8.5 11.5t31.5 17.5t68.5 24t97 21t118 9q108 0 189.5 -30 t137.5 -89.5t84 -149.5t28 -209q0 -113 -29 -203.5t-84.5 -153.5t-133.5 -97t-175 -34q-104 0 -176.5 33.5t-119 89.5t-68.5 132t-22 161zM258 379q-3 -127 56 -199.5t175 -72.5q60 0 105 22.5t75 60t46.5 86.5t18.5 103h-476z" />
<glyph unicode="&#x4da;" horiz-adv-x="1286" d="M98 615q0 27 13.5 44.5t46.5 17.5h852q-5 101 -28.5 185t-73.5 144.5t-129 94.5t-195 34q-84 0 -149 -17t-113 -37.5t-79 -38t-47 -17.5q-8 0 -13 3t-8.5 11.5t-5 23t-1.5 37.5q0 32 4 47.5t22 32.5q12 11 45.5 28t85 33t118 27.5t143.5 11.5q155 0 268.5 -42 t187.5 -123.5t110 -201.5t36 -276q0 -150 -36 -272t-107 -207.5t-178.5 -132t-249.5 -46.5q-129 0 -226 42.5t-162.5 124t-98 200t-32.5 269.5zM208 1264zM282 534q7 -88 26 -163t57.5 -130t100.5 -86.5t154 -31.5q97 0 166 32.5t115.5 88t72 130t33.5 160.5h-725zM337 1491 q0 55 20 75t75 20t74.5 -19.5t19.5 -73.5q0 -55 -20.5 -75.5t-74.5 -20.5q-55 0 -74.5 20.5t-19.5 73.5zM740 1491q0 55 20.5 75t74.5 20q56 0 75.5 -19.5t19.5 -73.5q0 -55 -20 -75.5t-76 -20.5q-54 0 -74 20.5t-20 73.5z" />
<glyph unicode="&#x4db;" horiz-adv-x="995" d="M96 397v30q0 38 19 54t43 16h576q0 73 -14.5 132t-48.5 100.5t-89 64t-134 22.5q-62 0 -111 -10t-84.5 -22.5t-58.5 -23t-35 -10.5q-7 0 -12 3.5t-8 10.5t-5 19q-1 11 -1 29q0 13 1 22.5t2.5 16.5t5 13t8.5 11.5t31.5 17.5t68.5 24t97 21t118 9q108 0 189.5 -30 t137.5 -89.5t84 -149.5t28 -209q0 -113 -29 -203.5t-84.5 -153.5t-133.5 -97t-175 -34q-104 0 -176.5 33.5t-119 89.5t-68.5 132t-22 161zM104 929zM233 1186q0 55 19 74t72 19q54 0 72.5 -19.5t18.5 -71.5q0 -54 -20 -73t-72 -19q-53 0 -71.5 19t-18.5 71zM258 379 q-3 -127 56 -199.5t175 -72.5q60 0 105 22.5t75 60t46.5 86.5t18.5 103h-476zM579 1186q0 55 19 74t71 19q54 0 72.5 -19.5t18.5 -71.5q0 -54 -19.5 -73t-72.5 -19t-71 19t-18 71z" />
<glyph unicode="&#x4dc;" horiz-adv-x="1601" d="M83 26q0 3 0.5 8t2 12t4 15t6.5 19l98 286q22 66 47.5 113.5t54.5 81t66 55.5t84 36v1q-39 10 -70.5 28.5t-58 50.5t-49 77.5t-43.5 110.5l-89 264q-6 18 -9.5 31t-3.5 23q0 8 3.5 14t12.5 10t25 6t40 2q28 0 45 -2.5t26.5 -7.5t13.5 -13t8 -18l92 -298q17 -54 38 -93 t53 -65t76 -38t105 -12h58v516q0 7 3.5 13t12.5 9.5t25 6t40 2.5t40 -2.5t25.5 -6t13.5 -9.5t4 -13v-516h57q59 0 103.5 13.5t77 41t55 66.5t37.5 89l92 296q3 10 7 18t13.5 13t26.5 7.5t44 2.5q25 0 41 -2t25.5 -6t12.5 -10t3 -14q0 -11 -4 -24t-8 -30l-88 -258 q-21 -60 -42 -104t-46.5 -74.5t-58.5 -51.5t-76 -34v-2q49 -17 86 -40t66.5 -57.5t53.5 -82t46 -114.5l97 -286q4 -11 7 -19t4.5 -15t2.5 -12t1 -8q0 -9 -4.5 -14.5t-14 -9.5t-26 -6t-41.5 -2q-27 0 -44.5 2.5t-27.5 7.5t-14.5 12t-8.5 18l-105 319q-20 61 -46 102.5 t-61 69.5t-81.5 40.5t-104.5 12.5h-57v-553q0 -8 -4 -13.5t-13.5 -9t-25.5 -6t-40 -2.5q-23 0 -39.5 2.5t-25.5 6t-12.5 9.5t-3.5 13v553h-58q-63 0 -110.5 -15t-82.5 -44t-59.5 -71t-42.5 -95l-102 -319q-4 -11 -9 -18t-15 -12t-27 -7.5t-45 -2.5q-25 0 -41.5 2t-26 6 t-13.5 10t-4 14zM376 1264zM505 1491q0 55 20 75t75 20t74.5 -19.5t19.5 -73.5q0 -55 -20.5 -75.5t-74.5 -20.5q-55 0 -74.5 20.5t-19.5 73.5zM908 1491q0 55 20.5 75t74.5 20q56 0 75.5 -19.5t19.5 -73.5q0 -55 -20 -75.5t-76 -20.5q-54 0 -74 20.5t-20 73.5z" />
<glyph unicode="&#x4dd;" horiz-adv-x="1377" d="M61 18q0 6 2 15t9 24l97 221q19 44 40 77.5t45 58t52 41.5t61 27v2q-23 8 -46 20.5t-45.5 34.5t-44 55t-42.5 82l-81 194q-5 13 -7.5 22.5t-2.5 18.5q0 5 3 9.5t11.5 7.5t23.5 4.5t39 1.5q26 0 43.5 -1.5t28.5 -5.5t16.5 -10t7.5 -14l77 -203q17 -42 34.5 -72t41 -49 t52.5 -27.5t67 -8.5h65v369q0 5 5 9.5t15 7t25.5 4t35.5 1.5q21 0 36 -1.5t25 -4t15 -7t5 -9.5v-369h65q38 0 67.5 9t53 28t43 48.5t35.5 71.5l82 203q4 8 8.5 14t13.5 10t25.5 5.5t42.5 1.5q23 0 38.5 -1.5t23.5 -4.5t11.5 -7.5t3.5 -9.5q0 -9 -3 -18.5t-8 -22.5l-84 -194 q-21 -49 -42.5 -81.5t-44 -54t-44.5 -34.5t-44 -20v-2q33 -12 61 -28.5t51.5 -41t44 -58.5t40.5 -78l96 -221q3 -7 5 -13t3 -11.5t2 -8.5t1 -6q0 -6 -3.5 -10.5t-13 -7.5t-24.5 -4.5t-39 -1.5q-27 0 -44 2t-27.5 5.5t-15 9t-7.5 11.5l-94 227q-19 44 -39 75.5t-44.5 51.5 t-56 29t-74.5 9h-65v-397q0 -5 -5 -9.5t-15 -7.5t-25 -4.5t-36 -1.5t-36 1.5t-25 4.5t-15 7.5t-5 9.5v397h-65q-43 0 -75 -9t-57.5 -29t-45.5 -51.5t-39 -75.5l-94 -227q-2 -7 -7 -12t-14.5 -8.5t-26.5 -5.5t-43 -2q-22 0 -38 1.5t-25.5 4.5t-13 7.5t-3.5 10.5zM296 929z M425 1186q0 55 19 74t72 19q54 0 72.5 -19.5t18.5 -71.5q0 -54 -20 -73t-72 -19q-53 0 -71.5 19t-18.5 71zM771 1186q0 55 19 74t71 19q54 0 72.5 -19.5t18.5 -71.5q0 -54 -19.5 -73t-72.5 -19t-71 19t-18 71z" />
<glyph unicode="&#x4de;" horiz-adv-x="947" d="M21 1264zM73 159q0 30 6 41t18 11t32.5 -12.5t55 -30t83.5 -30t118 -12.5q64 0 117.5 16t91 45.5t58.5 70.5t21 91q0 54 -19.5 97.5t-58 75t-96.5 49t-133 17.5h-148q-12 0 -19 3.5t-11.5 11t-6.5 21t-2 32.5t2 31.5t6.5 21t12 12.5t17.5 4h139q64 0 117.5 14.5t91.5 43 t58.5 70t20.5 94.5q0 43 -14.5 79t-43 61t-71 39t-100.5 14q-62 0 -111 -13.5t-84 -29.5t-59.5 -29.5t-36.5 -13.5q-7 0 -11 3t-7 10t-3.5 20t-0.5 31q0 13 0.5 25t3 22t6.5 18t12 16t37 23t72 28.5t97.5 22.5t116.5 9q94 0 164 -22.5t117 -63.5t70 -98.5t23 -127.5 q0 -64 -19 -115.5t-51.5 -89t-76.5 -61.5t-93 -33v-3q59 -7 109.5 -33.5t87.5 -68t58.5 -96t21.5 -116.5q0 -84 -30.5 -152.5t-90.5 -118t-148 -76t-202 -26.5q-63 0 -114 10t-88.5 23.5t-58.5 25.5t-29 19t-12.5 14.5t-6.5 19t-4 27.5t-2 39zM150 1491q0 55 20 75t75 20 t74.5 -19.5t19.5 -73.5q0 -55 -20.5 -75.5t-74.5 -20.5q-55 0 -74.5 20.5t-19.5 73.5zM553 1491q0 55 20.5 75t74.5 20q56 0 75.5 -19.5t19.5 -73.5q0 -55 -20 -75.5t-76 -20.5q-54 0 -74 20.5t-20 73.5z" />
<glyph unicode="&#x4df;" horiz-adv-x="845" d="M8 929zM73 138q0 16 2 26.5t5 17t7 10t11 3.5q11 0 29.5 -13t51 -29t80 -30t116.5 -14q49 0 88 10.5t66.5 30.5t42.5 50t15 71q0 34 -14.5 61t-46 46t-80.5 30t-118 11h-98q-10 0 -15.5 3.5t-10 10.5t-6 19.5t-1.5 28.5t2 28t6 18.5t10 10t14 3.5h95q62 0 106.5 10t74 29 t43.5 46.5t14 63.5q0 32 -13.5 56.5t-36.5 41t-56 24.5t-71 8q-60 0 -106.5 -13.5t-80 -29.5t-55 -29.5t-30.5 -13.5q-5 0 -9 2.5t-7.5 9t-5 17.5t-1.5 27q0 28 4.5 45t16 28.5t41 27t69 28t86 20.5t94.5 8q71 0 131 -15t102.5 -46t66 -76t23.5 -106q0 -36 -12 -68.5 t-34 -60t-54 -49t-71 -33.5l-2 -1q38 -4 75 -22t66.5 -46.5t47.5 -68t18 -87.5q0 -66 -26.5 -119t-76 -90.5t-120.5 -57.5t-162 -20q-51 0 -95.5 7.5t-81 19t-61.5 24.5t-35 21.5t-15 16t-7 16.5t-3.5 21.5t-1.5 30.5zM137 1186q0 55 19 74t72 19q54 0 72.5 -19.5 t18.5 -71.5q0 -54 -20 -73t-72 -19q-53 0 -71.5 19t-18.5 71zM483 1186q0 55 19 74t71 19q54 0 72.5 -19.5t18.5 -71.5q0 -54 -19.5 -73t-72.5 -19t-71 19t-18 71z" />
<glyph unicode="&#x4e0;" horiz-adv-x="947" d="M73 159q0 30 6 41t18 11t32.5 -13t55 -29.5t83.5 -29.5t118 -13q63 0 116 15.5t91 45.5t59.5 75t21.5 103q0 50 -15.5 94t-52 76.5t-95 52t-144.5 19.5h-45q-16 0 -27.5 11.5t-11.5 50.5q0 34 13.5 54.5t21.5 32.5l294 365h-489q-37 0 -37 69q0 73 37 74h616 q28 0 39.5 -15t11.5 -58q0 -24 -4 -48t-23 -49l-281 -349v-7q83 -10 152.5 -37.5t119.5 -73.5t77.5 -111.5t27.5 -151.5q0 -90 -30.5 -160.5t-90.5 -120t-148 -76t-202 -26.5q-64 0 -114.5 10t-87.5 23t-59.5 26t-28.5 19q-7 7 -12 14.5t-8 19t-4 27.5t-1 39z" />
<glyph unicode="&#x4e1;" horiz-adv-x="933" d="M73 -194q0 30 6 40.5t18 10.5q9 0 29 -13t55.5 -29t85.5 -29.5t119 -13.5q71 0 124 19t88.5 52.5t53 81.5t17.5 105q0 51 -15 97t-50.5 80.5t-93 54.5t-143.5 20h-45q-16 0 -27.5 9t-11.5 43t13.5 54.5t21.5 32.5l275 374h-460q-19 0 -28 12.5t-9 47.5q0 73 37 74h587 q28 0 39.5 -15t11.5 -58q0 -24 -9 -43.5t-29 -44.5l-260 -357v-8q83 -10 150.5 -37.5t115.5 -73.5t74.5 -111.5t26.5 -151.5q0 -90 -28 -161t-84 -121t-141 -76t-199 -26q-64 0 -114.5 8.5t-87.5 20.5t-59.5 23t-28.5 16q-7 6 -12 12.5t-8 17t-4 25.5t-1 38z" />
<glyph unicode="&#x4e2;" horiz-adv-x="1283" d="M168 27v1212q0 7 4.5 13t14.5 10t26 6t39 2q24 0 40.5 -2t26 -6t13.5 -10t4 -13v-834q0 -26 -0.5 -56.5t-3.5 -58.5h2q16 24 37 59t44 69l546 823q5 7 11 12.5t15 9t21.5 5.5t32.5 2q22 0 36.5 -2t22.5 -6.5t11.5 -10t3.5 -14.5v-1213q0 -8 -4 -13t-13.5 -9t-25.5 -6 t-41 -2q-23 0 -39.5 2t-26 6t-13.5 9.5t-4 12.5v830q0 30 1 62.5t3 59.5h-2q-8 -14 -17 -29.5t-20 -33t-21.5 -34.5t-21.5 -33l-547 -823q-6 -8 -11.5 -13.5t-15 -9t-22 -5t-32.5 -1.5q-22 0 -36.5 2t-22.5 6.5t-11.5 10.5t-3.5 14zM215 1264zM344 1488q0 16 2 28.5t6 20.5 t10 12t14 4h533q7 0 13 -4t10.5 -12t6 -20t1.5 -29t-1.5 -29t-6 -20t-10.5 -12t-13 -4h-533q-8 0 -14 4t-10 12t-6 20.5t-2 28.5z" />
<glyph unicode="&#x4e3;" horiz-adv-x="1081" d="M146 929zM149 23v881q0 7 3.5 13t13 10t25 5.5t38.5 1.5q47 0 64.5 -7.5t17.5 -22.5v-508q0 -38 -2 -76t-5 -75q22 37 45 73t49 70l378 516q6 8 12.5 14t15.5 9.5t22 5t33 1.5q21 0 35 -1.5t22.5 -5.5t12 -10t3.5 -14v-880q0 -7 -4 -12.5t-13 -9t-24.5 -5.5t-38.5 -2 t-39 2t-26 5.5t-13.5 9.5t-3.5 12v506q0 38 1.5 77.5t4.5 78.5q-22 -39 -49 -77t-54 -75l-373 -510q-7 -8 -12.5 -13.5t-13.5 -9t-21 -5t-31 -1.5q-21 0 -35 2t-22.5 5.5t-12 9.5t-3.5 12zM275 1199q0 18 2 30t6 19.5t10 11t14 3.5h468q8 0 13.5 -3.5t9 -11t6 -19.5t2.5 -30 q0 -17 -2.5 -28t-6 -18.5t-9 -11.5t-13.5 -4h-468q-8 0 -14 4t-10 11.5t-6 19t-2 27.5z" />
<glyph unicode="&#x4e4;" horiz-adv-x="1283" d="M168 27v1212q0 7 4.5 13t14.5 10t26 6t39 2q24 0 40.5 -2t26 -6t13.5 -10t4 -13v-834q0 -26 -0.5 -56.5t-3.5 -58.5h2q16 24 37 59t44 69l546 823q5 7 11 12.5t15 9t21.5 5.5t32.5 2q22 0 36.5 -2t22.5 -6.5t11.5 -10t3.5 -14.5v-1213q0 -8 -4 -13t-13.5 -9t-25.5 -6 t-41 -2q-23 0 -39.5 2t-26 6t-13.5 9.5t-4 12.5v830q0 30 1 62.5t3 59.5h-2q-8 -14 -17 -29.5t-20 -33t-21.5 -34.5t-21.5 -33l-547 -823q-6 -8 -11.5 -13.5t-15 -9t-22 -5t-32.5 -1.5q-22 0 -36.5 2t-22.5 6.5t-11.5 10.5t-3.5 14zM217 1264zM346 1491q0 55 20 75t75 20 t74.5 -19.5t19.5 -73.5q0 -55 -20.5 -75.5t-74.5 -20.5q-55 0 -74.5 20.5t-19.5 73.5zM749 1491q0 55 20.5 75t74.5 20q56 0 75.5 -19.5t19.5 -73.5q0 -55 -20 -75.5t-76 -20.5q-54 0 -74 20.5t-20 73.5z" />
<glyph unicode="&#x4e5;" horiz-adv-x="1081" d="M147 929zM149 23v881q0 7 3.5 13t13 10t25 5.5t38.5 1.5q47 0 64.5 -7.5t17.5 -22.5v-508q0 -38 -2 -76t-5 -75q22 37 45 73t49 70l378 516q6 8 12.5 14t15.5 9.5t22 5t33 1.5q21 0 35 -1.5t22.5 -5.5t12 -10t3.5 -14v-880q0 -7 -4 -12.5t-13 -9t-24.5 -5.5t-38.5 -2 t-39 2t-26 5.5t-13.5 9.5t-3.5 12v506q0 38 1.5 77.5t4.5 78.5q-22 -39 -49 -77t-54 -75l-373 -510q-7 -8 -12.5 -13.5t-13.5 -9t-21 -5t-31 -1.5q-21 0 -35 2t-22.5 5.5t-12 9.5t-3.5 12zM276 1186q0 55 19 74t72 19q54 0 72.5 -19.5t18.5 -71.5q0 -54 -20 -73t-72 -19 q-53 0 -71.5 19t-18.5 71zM622 1186q0 55 19 74t71 19q54 0 72.5 -19.5t18.5 -71.5q0 -54 -19.5 -73t-72.5 -19t-71 19t-18 71z" />
<glyph unicode="&#x4e6;" horiz-adv-x="1324" d="M97 625q0 149 36 271.5t108 207.5t180.5 131.5t253.5 46.5q140 0 243 -42t172 -122.5t103 -199.5t34 -272t-36.5 -276t-108 -209.5t-180 -133t-253.5 -46.5q-143 0 -246.5 42.5t-171.5 124t-101 201.5t-33 276zM240 1264zM274 637q0 -111 19 -205t62.5 -162t117.5 -105.5 t185 -37.5q110 0 185.5 41t121.5 111t65.5 161.5t19.5 194.5q0 107 -19 199.5t-63.5 160t-119 106t-183.5 38.5t-183.5 -41t-121 -109.5t-66.5 -160t-20 -191.5zM369 1491q0 55 20 75t75 20t74.5 -19.5t19.5 -73.5q0 -55 -20.5 -75.5t-74.5 -20.5q-55 0 -74.5 20.5 t-19.5 73.5zM772 1491q0 55 20.5 75t74.5 20q56 0 75.5 -19.5t19.5 -73.5q0 -55 -20 -75.5t-76 -20.5q-54 0 -74 20.5t-20 73.5z" />
<glyph unicode="&#x4e7;" horiz-adv-x="1054" d="M88 456q0 107 28 197.5t84 156t140 101.5t196 36q108 0 189 -32t134.5 -93.5t80.5 -149.5t27 -198q0 -107 -28.5 -197.5t-84.5 -156t-140.5 -102.5t-195.5 -37q-108 0 -189 32.5t-134.5 94t-80 149.5t-26.5 199zM135 929zM257 467q0 -72 13 -135.5t44 -111t82.5 -75.5 t128.5 -28q70 0 122 25.5t85.5 71.5t49 109.5t15.5 139.5q0 71 -13 134.5t-43.5 111.5t-82.5 75.5t-129 27.5q-71 0 -122.5 -25t-84.5 -71.5t-49 -110t-16 -138.5zM264 1186q0 55 19 74t72 19q54 0 72.5 -19.5t18.5 -71.5q0 -54 -20 -73t-72 -19q-53 0 -71.5 19t-18.5 71z M610 1186q0 55 19 74t71 19q54 0 72.5 -19.5t18.5 -71.5q0 -54 -19.5 -73t-72.5 -19t-71 19t-18 71z" />
<glyph unicode="&#x4e8;" horiz-adv-x="1324" d="M97 625q0 151 36.5 273t109.5 207t181 131t251 46q137 0 240.5 -41t172.5 -121.5t104 -199.5t35 -273t-36.5 -277t-108.5 -209.5t-180.5 -133t-252.5 -46.5q-142 0 -245.5 41.5t-171.5 123.5t-101.5 202t-33.5 277zM274 570q5 -100 27 -182.5t67 -141t116 -91.5t174 -33 q104 0 176.5 34t119.5 95t70 142.5t26 176.5h-776zM274 705h775q-5 95 -28 175t-68.5 138.5t-116 92t-171.5 33.5t-173.5 -34t-119.5 -93t-70.5 -139t-27.5 -173z" />
<glyph unicode="&#x4e9;" horiz-adv-x="1047" d="M88 459q0 107 28 196.5t83.5 154.5t138.5 101t194 36q106 0 187 -33t134 -94.5t80 -150t27 -197.5q0 -108 -28 -198t-83.5 -155t-139 -101.5t-194.5 -36.5q-109 0 -189.5 34.5t-133 96.5t-78.5 151t-26 196zM254 409q2 -67 19 -122.5t49.5 -95.5t83 -61.5t117.5 -21.5 q62 0 112 19.5t84.5 58t53.5 94.5t21 129h-540zM254 527h540q-3 60 -18.5 112.5t-47.5 92.5t-82 64t-122 24q-68 0 -118 -23.5t-83 -63.5t-49.5 -93t-19.5 -113z" />
<glyph unicode="&#x4ea;" horiz-adv-x="1324" d="M97 625q0 151 36.5 273t109.5 207t181 131t251 46q137 0 240.5 -41t172.5 -121.5t104 -199.5t35 -273t-36.5 -277t-108.5 -209.5t-180.5 -133t-252.5 -46.5q-142 0 -245.5 41.5t-171.5 123.5t-101.5 202t-33.5 277zM237 1264zM274 570q5 -100 27 -182.5t67 -141 t116 -91.5t174 -33q104 0 176.5 34t119.5 95t70 142.5t26 176.5h-776zM274 705h775q-5 95 -28 175t-68.5 138.5t-116 92t-171.5 33.5t-173.5 -34t-119.5 -93t-70.5 -139t-27.5 -173zM366 1491q0 55 20 75t75 20t74.5 -19.5t19.5 -73.5q0 -55 -20.5 -75.5t-74.5 -20.5 q-55 0 -74.5 20.5t-19.5 73.5zM769 1491q0 55 20.5 75t74.5 20q56 0 75.5 -19.5t19.5 -73.5q0 -55 -20 -75.5t-76 -20.5q-54 0 -74 20.5t-20 73.5z" />
<glyph unicode="&#x4eb;" horiz-adv-x="1047" d="M88 459q0 107 28 196.5t83.5 154.5t138.5 101t194 36q106 0 187 -33t134 -94.5t80 -150t27 -197.5q0 -108 -28 -198t-83.5 -155t-139 -101.5t-194.5 -36.5q-109 0 -189.5 34.5t-133 96.5t-78.5 151t-26 196zM131 929zM254 409q2 -67 19 -122.5t49.5 -95.5t83 -61.5 t117.5 -21.5q62 0 112 19.5t84.5 58t53.5 94.5t21 129h-540zM254 527h540q-3 60 -18.5 112.5t-47.5 92.5t-82 64t-122 24q-68 0 -118 -23.5t-83 -63.5t-49.5 -93t-19.5 -113zM260 1186q0 55 19 74t72 19q54 0 72.5 -19.5t18.5 -71.5q0 -54 -20 -73t-72 -19q-53 0 -71.5 19 t-18.5 71zM606 1186q0 55 19 74t71 19q54 0 72.5 -19.5t18.5 -71.5q0 -54 -19.5 -73t-72.5 -19t-71 19t-18 71z" />
<glyph unicode="&#x4ec;" horiz-adv-x="1095" d="M74 1264zM91 180q0 29 6 44.5t21 15.5q11 0 33.5 -17.5t61.5 -39t98.5 -39t143.5 -17.5q85 0 151.5 29.5t113 87t71 142.5t26.5 199h-603q-8 0 -14 4t-10 12t-6 21.5t-2 30.5q0 20 2 33t6 21.5t10 13t14 4.5h601q-7 96 -34 172.5t-75 129.5t-116.5 81.5t-154.5 28.5 q-68 0 -121 -16.5t-91.5 -36t-62.5 -36t-34 -16.5q-6 0 -10.5 3t-8 10.5t-5 19.5t-1.5 32q0 19 1 32.5t3.5 23t6 17t11 14.5t36.5 24t73 33t101 28t122 12q130 0 232 -43.5t171.5 -125.5t105.5 -201.5t36 -270.5q0 -157 -34.5 -280t-104 -206.5t-171.5 -127.5t-238 -44 q-51 0 -102.5 8.5t-98 22.5t-82 32.5t-50 31.5t-18 20t-6 17.5t-3.5 26t-1 39.5zM203 1491q0 55 20 75t75 20t74.5 -19.5t19.5 -73.5q0 -55 -20.5 -75.5t-74.5 -20.5q-55 0 -74.5 20.5t-19.5 73.5zM606 1491q0 55 20.5 75t74.5 20q56 0 75.5 -19.5t19.5 -73.5 q0 -55 -20 -75.5t-76 -20.5q-54 0 -74 20.5t-20 73.5z" />
<glyph unicode="&#x4ed;" horiz-adv-x="885" d="M4 929zM75 146q0 37 7.5 50t19.5 13q11 0 28.5 -15.5t49 -33.5t79 -34t116.5 -16q116 0 184 76t75 230h-443q-14 0 -21.5 14t-7.5 47q0 32 8 46t21 14h442q-6 64 -25.5 116t-53.5 88.5t-81.5 56.5t-108.5 20q-58 0 -101 -16t-74.5 -35t-50.5 -35t-29 -16q-6 0 -10 3.5 t-7.5 10t-5 19.5t-1.5 31q0 17 1.5 28t3.5 19t5 13.5t10.5 12.5t31.5 23.5t60.5 32t85.5 27t107 11.5q90 0 165 -30.5t129 -89.5t84 -145.5t30 -196.5q0 -120 -27.5 -213.5t-80 -158t-132 -98.5t-181.5 -34q-53 0 -99 8.5t-81.5 21t-60.5 28.5t-35 25t-14.5 15t-7 15 t-3.5 21t-1 31zM133 1186q0 55 19 74t72 19q54 0 72.5 -19.5t18.5 -71.5q0 -54 -20 -73t-72 -19q-53 0 -71.5 19t-18.5 71zM479 1186q0 55 19 74t71 19q54 0 72.5 -19.5t18.5 -71.5q0 -54 -19.5 -73t-72.5 -19t-71 19t-18 71z" />
<glyph unicode="&#x4ee;" horiz-adv-x="1054" d="M16 1238.5q-1 12.5 7 19.5t26.5 9.5t49.5 2.5q28 0 45 -2t28 -6.5t17 -12t11 -19.5l226 -460q38 -77 71.5 -149t65.5 -143h3q26 74 54 147.5t64 161.5l176 451q3 9 8.5 15t16 10t28.5 5.5t46 1.5q29 0 46.5 -3t25.5 -9t8 -16t-6 -23l-357 -867q-46 -113 -85 -185 t-80 -112t-89 -55t-110 -15q-21 0 -43.5 3t-42 8.5t-34.5 12.5t-22 12t-10.5 11.5t-6 16.5t-3.5 24.5t-1 34.5q0 37 7.5 54t22.5 17q8 0 18 -6t24.5 -14t35.5 -13.5t50 -5.5q24 0 45 5t40 23t39.5 49.5t45.5 86.5l-451 902q-9 20 -10 32.5zM101 1264zM230 1488q0 16 2 28.5 t6 20.5t10 12t14 4h533q7 0 13 -4t10.5 -12t6 -20t1.5 -29t-1.5 -29t-6 -20t-10.5 -12t-13 -4h-533q-8 0 -14 4t-10 12t-6 20.5t-2 28.5z" />
<glyph unicode="&#x4ef;" horiz-adv-x="905" d="M33 903.5q0 11.5 8 18.5t25.5 9.5t46.5 2.5t46 -1.5t26.5 -5.5t14 -11.5t9.5 -19.5l251 -706h3l242 709q6 19 14.5 24.5t25 8t47.5 2.5q27 0 44.5 -2.5t26 -9.5t8.5 -18.5t-6 -29.5l-315 -874l-117 -323q-6 -16 -30 -24t-73 -8q-25 0 -41 2t-24 8t-9 16t5 23l121 306 q-9 4 -17 12.5t-11 18.5l-313 840q-8 21 -8 32.5zM58 929zM187 1199q0 18 2 30t6 19.5t10 11t14 3.5h468q8 0 13.5 -3.5t9 -11t6 -19.5t2.5 -30q0 -17 -2.5 -28t-6 -18.5t-9 -11.5t-13.5 -4h-468q-8 0 -14 4t-10 11.5t-6 19t-2 27.5z" />
<glyph unicode="&#x4f0;" horiz-adv-x="1054" d="M16 1238.5q-1 12.5 7 19.5t26.5 9.5t49.5 2.5q28 0 45 -2t28 -6.5t17 -12t11 -19.5l226 -460q38 -77 71.5 -149t65.5 -143h3q26 74 54 147.5t64 161.5l176 451q3 9 8.5 15t16 10t28.5 5.5t46 1.5q29 0 46.5 -3t25.5 -9t8 -16t-6 -23l-357 -867q-46 -113 -85 -185 t-80 -112t-89 -55t-110 -15q-21 0 -43.5 3t-42 8.5t-34.5 12.5t-22 12t-10.5 11.5t-6 16.5t-3.5 24.5t-1 34.5q0 37 7.5 54t22.5 17q8 0 18 -6t24.5 -14t35.5 -13.5t50 -5.5q24 0 45 5t40 23t39.5 49.5t45.5 86.5l-451 902q-9 20 -10 32.5zM104 1264zM233 1491q0 55 20 75 t75 20t74.5 -19.5t19.5 -73.5q0 -55 -20.5 -75.5t-74.5 -20.5q-55 0 -74.5 20.5t-19.5 73.5zM636 1491q0 55 20.5 75t74.5 20q56 0 75.5 -19.5t19.5 -73.5q0 -55 -20 -75.5t-76 -20.5q-54 0 -74 20.5t-20 73.5z" />
<glyph unicode="&#x4f1;" horiz-adv-x="905" d="M33 903.5q0 11.5 8 18.5t25.5 9.5t46.5 2.5t46 -1.5t26.5 -5.5t14 -11.5t9.5 -19.5l251 -706h3l242 709q6 19 14.5 24.5t25 8t47.5 2.5q27 0 44.5 -2.5t26 -9.5t8.5 -18.5t-6 -29.5l-315 -874l-117 -323q-6 -16 -30 -24t-73 -8q-25 0 -41 2t-24 8t-9 16t5 23l121 306 q-9 4 -17 12.5t-11 18.5l-313 840q-8 21 -8 32.5zM60 929zM189 1186q0 55 19 74t72 19q54 0 72.5 -19.5t18.5 -71.5q0 -54 -20 -73t-72 -19q-53 0 -71.5 19t-18.5 71zM535 1186q0 55 19 74t71 19q54 0 72.5 -19.5t18.5 -71.5q0 -54 -19.5 -73t-72.5 -19t-71 19t-18 71z" />
<glyph unicode="&#x4f2;" horiz-adv-x="1054" d="M16 1238.5q-1 12.5 7 19.5t26.5 9.5t49.5 2.5q28 0 45 -2t28 -6.5t17 -12t11 -19.5l226 -460q38 -77 71.5 -149t65.5 -143h3q26 74 54 147.5t64 161.5l176 451q3 9 8.5 15t16 10t28.5 5.5t46 1.5q29 0 46.5 -3t25.5 -9t8 -16t-6 -23l-357 -867q-46 -113 -85 -185 t-80 -112t-89 -55t-110 -15q-21 0 -43.5 3t-42 8.5t-34.5 12.5t-22 12t-10.5 11.5t-6 16.5t-3.5 24.5t-1 34.5q0 37 7.5 54t22.5 17q8 0 18 -6t24.5 -14t35.5 -13.5t50 -5.5q24 0 45 5t40 23t39.5 49.5t45.5 86.5l-451 902q-9 20 -10 32.5zM118 1264zM252 1396l165 228 q6 8 13.5 13.5t19.5 8.5t29 4.5t41 1.5q37 0 59 -3t31 -8.5t6 -14.5t-14 -20l-217 -223q-7 -7 -14.5 -11.5t-17.5 -6.5t-24 -2.5t-32 -0.5q-31 0 -43 9.5t-2 24.5zM611 1380.5q-1 6.5 4 13.5l175 231q5 7 13 12.5t21 8.5t31.5 4.5t44.5 1.5q32 0 52 -3t28.5 -9t8 -13 t-9.5 -16l-223 -227q-7 -8 -14 -12.5t-16 -6.5t-22.5 -2.5t-32.5 -0.5t-31.5 2t-20 6t-8.5 10.5z" />
</font>
</defs>
</svg>
